<?xml version="1.0" standalone="no"?>
<!DOCTYPE svg PUBLIC "-//W3C//DTD SVG 1.1//EN" "http://www.w3.org/Graphics/SVG/1.1/DTD/svg11.dtd" >
<svg>
<metadata>
Created by FontForge 20090914 at Mon Aug 31 18:09:16 2015
 By www-data
</metadata>
<defs>
<font id="MenschRegular" horiz-adv-x="1705" >
  <font-face 
    font-family="Mensch"
    font-weight="400"
    font-stretch="condensed"
    units-per-em="2048"
    panose-1="0 0 0 0 0 0 0 0 0 0"
    ascent="1536"
    descent="-512"
    x-height="1495"
    cap-height="1513"
    bbox="0 -186.521 1495 1679"
    underline-thickness="102"
    underline-position="-102"
    unicode-range="U+000D-U+25FC"
  />
<missing-glyph horiz-adv-x="748" 
d="M68 0v1365h544v-1365h-544zM136 68h408v1229h-408v-1229z" />
    <glyph glyph-name=".notdef" horiz-adv-x="748" 
d="M68 0v1365h544v-1365h-544zM136 68h408v1229h-408v-1229z" />
    <glyph glyph-name="uni000D" unicode="&#xd;" horiz-adv-x="1024" 
 />
    <glyph glyph-name="space" unicode=" " horiz-adv-x="1024" 
 />
    <glyph glyph-name="exclam" unicode="!" horiz-adv-x="288" 
d="M61 84c0 -23.333 8 -42.833 24 -58.5s35.333 -23.5 58 -23.5c23.333 0 42.833 7.83301 58.5 23.5s23.5 35.167 23.5 58.5s-7.83301 42.833 -23.5 58.5s-35.167 23.5 -58.5 23.5s-42.833 -7.83301 -58.5 -23.5s-23.5 -35.167 -23.5 -58.5zM72 338v1089
c0 19.333 7.16699 36.166 21.5 50.499s30.833 21.5 49.5 21.5c19.333 0 36.166 -7.16699 50.499 -21.5s21.5 -31.166 21.5 -50.499v-1089c0 -20.667 -7.16699 -37.834 -21.5 -51.501s-31.166 -20.5 -50.499 -20.5s-36 6.83301 -50 20.5s-21 30.834 -21 51.501z" />
    <glyph glyph-name="quotedbl" unicode="&#x22;" horiz-adv-x="577" 
d="M119 1393l-0.00195312 212.999c0 19.333 6.83301 36.333 20.5 51s29.834 22 48.501 22c19.333 -1.33301 36.5 -9.16602 51.5 -23.499s22.5 -30.833 22.5 -49.5v-213c0 -19.333 -6.66699 -36.166 -20 -50.499s-29.666 -22.166 -48.999 -23.499
c-20.667 1.33301 -38.167 9.16602 -52.5 23.499s-21.5 31.166 -21.5 50.499zM333.998 1393l-0.00195312 212.999c0 19.333 6.83301 36.333 20.5 51s29.834 22 48.501 22c19.333 -1.33301 36.5 -9.16602 51.5 -23.499s22.5 -30.833 22.5 -49.5v-213
c0 -19.333 -6.66699 -36.166 -20 -50.499s-29.666 -22.166 -48.999 -23.499c-20.667 1.33301 -38.167 9.16602 -52.5 23.499s-21.5 31.166 -21.5 50.499z" />
    <glyph glyph-name="numbersign" unicode="#" 
 />
    <glyph glyph-name="dollar" unicode="$" 
d="M530 408c0 19.333 6.83691 35.998 20.5039 49.998s30.834 21 51.501 21c19.333 0 36.166 -7.16699 50.499 -21.5s21.5 -30.833 21.5 -49.5c0 -90 33.333 -145.333 100 -166v501l-82 64c-27.333 22 -51.833 47 -73.5 75s-39 59 -52 93s-19.5 73 -19.5 117v33.5
c0 17 2.66699 36.833 8 59.5s13.5 46.167 24.5 70.5s26.833 47.5 47.5 69.5c39.333 42 88.333 68 147 78v57c0 19.333 7.16699 36.166 21.5 50.499s31.166 21.5 50.499 21.5c20.667 0 37.834 -7.16699 51.501 -21.5s20.5 -31.166 20.5 -50.499v-59
c35.333 -6.66699 64.166 -17.5 86.499 -32.5s39.833 -30.167 52.5 -45.5c20.667 -23.333 35.667 -48.333 45 -75s15.333 -51.167 18 -73.5s3.33398 -41.666 2.00098 -57.999s-2 -26.833 -2 -31.5c-2.66699 -12 -6.66699 -22 -12 -30
c-5.33301 -6.66699 -13.166 -13.167 -23.499 -19.5s-23.833 -8.16602 -40.5 -5.49902c-18 2.66699 -31 7.83398 -39 15.501s-14 16.167 -18 25.5c-5.33301 10.667 -8 22.334 -8 35.001c1.33301 10.667 0.666016 29 -2.00098 55s-12.334 48.667 -29.001 68
c-9.33301 10.667 -19.333 18 -30 22v-432c27.333 -19.333 53.166 -39.5 77.499 -60.5s48.166 -45.167 71.499 -72.5c64 -80.667 96 -173.334 96 -278.001c0 -65.333 -11.833 -118 -35.5 -158s-47.834 -69.333 -72.501 -88c-35.333 -31.333 -81 -52.666 -137 -63.999v-53
c0 -20.667 -6.83301 -37.834 -20.5 -51.501s-30.834 -20.5 -51.501 -20.5c-19.333 0 -36.166 6.83301 -50.499 20.5s-21.5 30.834 -21.5 51.501v49c-56 10.667 -103.667 32.667 -143 66c-23.333 19.333 -46 48.666 -68 87.999s-33 92.666 -33 159.999zM690.004 1094
c0 -35.333 7.16895 -66.001 21.502 -92.001s35.166 -51.333 62.499 -76v329c-15.333 -5.33301 -29.666 -14.666 -42.999 -27.999c-10.667 -12 -18.834 -25.333 -24.501 -40s-9.83398 -28.667 -12.501 -42c-2.66699 -15.333 -4 -30.333 -4 -45v-6zM918.006 245.997
c26 9.33301 49.499 26 70.499 50s31.5 61.333 31.5 112c0 52 -9.16699 95.667 -27.5 131s-43.166 67.333 -74.499 96v-389z" />
    <glyph glyph-name="percent" unicode="%" 
 />
    <glyph glyph-name="ampersand" unicode="&#x26;" 
 />
    <glyph glyph-name="quotesingle" unicode="'" horiz-adv-x="305" 
d="M88 1393v213c0 19.333 6.83301 36 20.5 50s30.834 21 51.501 21c19.333 0 36 -7.16699 50 -21.5s21 -30.833 21 -49.5v-213c0 -19.333 -7 -36.166 -21 -50.499s-30.667 -21.5 -50 -21.5c-20.667 0 -37.834 7.16699 -51.501 21.5s-20.5 31.166 -20.5 50.499z" />
    <glyph glyph-name="parenleft" unicode="(" horiz-adv-x="622" 
d="M109 729c0 19.333 0.333984 45.333 1.00098 78s2.33398 69.5 5.00098 110.5s6.33398 84.333 11.001 130s11 91.167 19 136.5c20.667 104 47.334 188 80.001 252c31.333 53.333 64.166 88.166 98.499 104.499s64.5 24.5 90.5 24.5c15.333 0 28.333 -5.5 39 -16.5
s16 -24.167 16 -39.5c0 -16.667 -5.5 -30 -16.5 -40s-23.833 -15 -38.5 -15c-6.66699 0 -18.334 -3 -35.001 -9s-35 -27.667 -55 -65c-15.333 -24.667 -28.5 -55 -39.5 -91s-21.167 -78 -30.5 -126c-8 -44 -14.167 -87.667 -18.5 -131s-7.83301 -84.5 -10.5 -123.5
s-4.33398 -74.167 -5.00098 -105.5s-1 -56 -1 -74c0 -19.333 0.333008 -44.666 1 -75.999s2.33398 -66.5 5.00098 -105.5s6.16699 -80.667 10.5 -125s10.5 -87.5 18.5 -129.5c9.33301 -48 19.5 -90 30.5 -126s24.167 -66.333 39.5 -91c20.667 -36.667 39 -58.167 55 -64.5
s27.667 -9.5 35 -9.5c15.333 0 28.333 -5.16699 39 -15.5s16 -23.5 16 -39.5c0 -15.333 -5.33301 -28.5 -16 -39.5s-23.667 -16.5 -39 -16.5c-26 0 -56.167 8.33301 -90.5 25s-67.166 52.334 -98.499 107.001c-32.667 61.333 -59.334 144.333 -80.001 249
c-8 45.333 -14.333 90.833 -19 136.5s-8.33398 89 -11.001 130s-4.33398 78.167 -5.00098 111.5s-1 59.666 -1 78.999z" />
    <glyph glyph-name="parenright" unicode=")" horiz-adv-x="616" 
d="M127 -53c0 16.667 5.49902 30 16.499 40s23.833 15 38.5 15c6.66699 0 18.334 3 35.001 9s35 27.667 55 65c15.333 24.667 28.5 55 39.5 91s21.167 78 30.5 126c8 42 14.167 85.167 18.5 129.5s7.83301 86 10.5 125s4.33398 74.167 5.00098 105.5s1 56.666 1 75.999
c0 18 -0.333008 42.667 -1 74s-2.33398 66.5 -5.00098 105.5s-6.16699 80.333 -10.5 124s-10.5 87.167 -18.5 130.5c-9.33301 48 -19.5 90 -30.5 126s-24.167 66.333 -39.5 91c-20.667 36.667 -39 58.167 -55 64.5s-27.667 9.5 -35 9.5c-15.333 0 -28.333 5.16699 -39 15.5
s-16 23.5 -16 39.5c0 15.333 5.5 28.5 16.5 39.5s23.833 16.5 38.5 16.5c26 0 56.167 -8.16699 90.5 -24.5s67.166 -51.166 98.499 -104.499c32.667 -64 59.334 -148 80.001 -252c8 -45.333 14.333 -90.833 19 -136.5s8.33398 -89 11.001 -130
s4.33398 -77.833 5.00098 -110.5s1 -58.667 1 -78s-0.333008 -45.666 -1 -78.999s-2.33398 -70.5 -5.00098 -111.5s-6.33398 -84.333 -11.001 -130s-11 -91.167 -19 -136.5c-20.667 -105.333 -47.334 -188.333 -80.001 -249
c-31.333 -54.667 -64.166 -90.334 -98.499 -107.001s-64.5 -25 -90.5 -25c-15.333 0 -28.333 5.5 -39 16.5s-16 24.167 -16 39.5z" />
    <glyph glyph-name="asterisk" unicode="*" horiz-adv-x="698" 
d="M41 1151c0 10.667 3.33496 19.5029 10.002 26.5029s15.667 10.5 27 10.5h211l-105 184c-6.66699 9.33301 -8.33398 18.833 -5.00098 28.5s9.33301 17.167 18 22.5c9.33301 5.33301 19.166 6.66602 29.499 3.99902s18.166 -8.66699 23.499 -18l106 -180l105 180
c5.33301 10.667 12.833 17.167 22.5 19.5s19.834 1.16602 30.501 -3.50098c8 -6.66699 13.5 -14.834 16.5 -24.501s1.5 -19.167 -4.5 -28.5l-104 -184h211c10.667 0 19.834 -3.5 27.501 -10.5s11.5 -15.833 11.5 -26.5c0 -26 -13 -39 -39 -39h-211l106 -182
c9.33301 -22 4.66602 -39.667 -14.001 -53c-5.33301 -2.66699 -12 -4.33398 -20 -5.00098c-13.333 0 -24.333 6.33301 -33 19l-105 182l-106 -182c-6.66699 -13.333 -17.667 -20.333 -33 -21c-5.33301 0 -12 2.33301 -20 7c-8 6.66699 -13.833 14.334 -17.5 23.001
s-2.16699 18.667 4.5 30l105 182h-211c-24.667 0 -37 13 -37 39z" />
    <glyph glyph-name="plus" unicode="+" horiz-adv-x="1001" 
d="M70 623c0 20.667 7.16699 37.667 21.5 51s30.833 20 49.5 20h285v285c0 19.333 7.16699 36.166 21.5 50.499s31.166 21.5 50.499 21.5s36 -7.16699 50 -21.5s21 -31.166 21 -50.499v-285h283c20.667 0 37.834 -6.83301 51.501 -20.5s20.5 -30.5 20.5 -50.5
c0 -19.333 -6.83301 -36.166 -20.5 -50.499s-30.834 -21.5 -51.501 -21.5h-283v-283c0 -19.333 -7.16699 -36 -21.5 -50s-30.833 -21 -49.5 -21c-19.333 0 -36.166 7.16699 -50.499 21.5s-21.5 30.833 -21.5 49.5v283h-285c-19.333 0 -36 7.16699 -50 21.5
s-21 31.166 -21 50.499z" />
    <glyph glyph-name="comma" unicode="," horiz-adv-x="378" 
d="M64 -135c-6 19.333 -3.99805 37 6.00195 53l96 186c9.33301 18 23.666 30.167 42.999 36.5s37.666 4.5 54.999 -5.5c18 -9.33301 29.667 -23.666 35 -42.999s3.33301 -37 -6 -53l-98 -186c-9.33301 -18 -23 -30 -41 -36s-36.667 -4.33301 -56 5
c-16.667 9.33301 -28 23.666 -34 42.999z" />
    <glyph glyph-name="hyphen" unicode="-" 
d="M559 684c0 19.333 7.16699 36.166 21.5 50.499s31.166 21.5 50.499 21.5h418c19.333 0 36 -7.16699 50 -21.5s21 -31.166 21 -50.499c0 -20.667 -7 -37.834 -21 -51.501s-30.667 -20.5 -50 -20.5h-418c-19.333 0 -36.166 6.83301 -50.499 20.5s-21.5 30.834 -21.5 51.501
z" />
    <glyph glyph-name="period" unicode="." horiz-adv-x="215" 
d="M27 68c0 22 7.5 40.667 22.5 56s33.833 23 56.5 23c22 0 40.5 -7.66699 55.5 -23s22.5 -34 22.5 -56s-7.5 -40.833 -22.5 -56.5s-33.5 -23.5 -55.5 -23.5c-23.333 0 -42.333 7.83301 -57 23.5s-22 34.5 -22 56.5z" />
    <glyph glyph-name="slash" unicode="/" horiz-adv-x="602" 
d="M55 72l350.999 1335c4 19.333 14.5 34 31.5 44s35.167 12.333 54.5 7s34 -16.5 44 -33.5s12.333 -35.167 7 -54.5l-350 -1335c-4 -19.333 -14.667 -34 -32 -44s-35.666 -12.333 -54.999 -7c-20.667 5.33301 -35.667 16.5 -45 33.5s-11.333 35.167 -6 54.5z" />
    <glyph glyph-name="zero" unicode="0" horiz-adv-x="823" 
d="M76 301.5l0.000976562 36.501v825c0 64 9.83301 119.667 29.5 167s45.834 86.333 78.501 117s69.167 53.5 109.5 68.5s81.166 22.5 122.499 22.5c26 0 60.833 -4.83301 104.5 -14.5s86.5 -32.834 128.5 -69.501c8 -6.66699 16.5 -14.834 25.5 -24.501
s17.5 -20.5 25.5 -32.5c1.33301 -1.33301 2 -2.33301 2 -3s1 -1.66699 3 -3c18 -26 33 -57.833 45 -95.5s18 -82.5 18 -134.5v-837c0 -5.33301 -0.333008 -18.333 -1 -39s-4 -45 -10 -73s-15.833 -57.667 -29.5 -89s-32.834 -60 -57.501 -86
c-62.667 -66.667 -146.667 -100 -252 -100s-188 33.333 -248 100c-19.333 19.333 -36.333 44 -51 74c0 2.66699 -1.33301 5.33398 -4 8.00098c-15.333 32.667 -26.333 71.667 -33 117c-4 26 -6 47.833 -6 65.5zM219.001 444.001l342 895
c-27.333 26 -55.666 41.833 -84.999 47.5s-49.333 8.5 -60 8.5c-50.667 0 -94.334 -16.333 -131.001 -49c-44 -40.667 -66 -101.667 -66 -183v-719zM260.001 152.001c2.66699 -2.66699 5.33301 -5.83203 8 -9.49902s5.33398 -6.83398 8.00098 -9.50098
c31.333 -35.333 78.666 -53 141.999 -53c62.667 0 111.667 17.667 147 53c16.667 16.667 29 35.5 37 56.5s13.833 40.667 17.5 59s5.5 34 5.5 47v21.5v7v778z" />
    <glyph glyph-name="one" unicode="1" horiz-adv-x="843" 
d="M82 49c0 20.667 7.16602 37.833 21.499 51.5s31.166 20.5 50.499 20.5h208v1175l-149 -151c-15.333 -13.333 -32.5 -20.166 -51.5 -20.499s-35.833 6.5 -50.5 20.5c-13.333 15.333 -20.166 32.5 -20.499 51.5s6.5 35.833 20.5 50.5l274 273c22 22 48 27.333 78 16
c28.667 -13.333 43 -36 43 -68v-1347h207c20.667 0 37.667 -6.83301 51 -20.5s20 -30.834 20 -51.501c0 -19.333 -6.83301 -36.166 -20.5 -50.499s-30.5 -21.5 -50.5 -21.5h-559c-19.333 0 -36.166 7.16699 -50.499 21.5s-21.5 31.166 -21.5 50.499z" />
    <glyph glyph-name="two" unicode="2" horiz-adv-x="829" 
d="M39 27c0 124 35.9971 249.338 107.997 376.005c31.333 54.667 66.166 107 104.499 157l117.5 147l95 119.5c30.667 39 57.667 78.333 81 118s42.166 79.167 56.499 118.5s21.5 79.666 21.5 120.999c0 1.33301 0.666992 2.66602 2 3.99902v20.5
c0 12.333 -1.83301 27 -5.5 44s-9.5 35 -17.5 54s-19.667 36.833 -35 53.5c-31.333 35.333 -81.666 53 -150.999 53c-65.333 0 -113.333 -17 -144 -51c-13.333 -15.333 -22.666 -32.833 -27.999 -52.5s-9.66602 -37.834 -12.999 -54.501
c-2.66699 -20.667 -2.66699 -40.334 0 -59.001c2.66699 -16.667 2 -32.334 -2 -47.001c-2.66699 -12 -8.33398 -23.167 -17.001 -33.5s-22 -16.166 -40 -17.499c-19.333 -2.66699 -33.666 0 -42.999 8s-17.666 17.667 -24.999 29c-6.66699 12 -11.334 25.667 -14.001 41
c-1.33301 2.66699 -2.33301 12.834 -3 30.501s0.333008 39.5 3 65.5c8 76.667 32.667 138 74 184c60 66.667 144 100 252 100c109.333 0 195.333 -33.333 258 -100c24.667 -26 43.167 -53.667 55.5 -83s21.5 -57.333 27.5 -84s9 -49.834 9 -69.501v-37.5
c0 -95.333 -30.667 -196.333 -92 -303c-27.333 -45.333 -57.833 -89.833 -91.5 -133.5l-103.5 -129.5l-97 -120.5c-32 -41 -61.333 -82.667 -88 -125s-49.5 -86 -68.5 -131s-32.167 -92.167 -39.5 -141.5h349c50.667 0 81.334 8.33301 92.001 25c8 10.667 13 27 15 49
s3 43.333 3 64s6.83301 37.667 20.5 51s30.834 20 51.501 20c19.333 0 36 -6.83301 50 -20.5s21 -30.5 21 -50.5c0 -40.667 -2.66699 -77.167 -8 -109.5s-17.666 -61.5 -36.999 -87.5c-13.333 -19.333 -28.5 -34.5 -45.5 -45.5s-35.167 -19.5 -54.5 -25.5
s-38 -9.66699 -56 -11s-35.333 -2 -52 -2h-424c-20.667 0 -37.834 7.16699 -51.501 21.5s-20.5 31.166 -20.5 50.499z" />
    <glyph glyph-name="three" unicode="3" horiz-adv-x="870" 
d="M74 293.5c1.33301 17 2.00488 27.1709 2.00488 30.5039c1.33301 13.333 4.66602 24.666 9.99902 33.999c5.33301 8 13.166 14.833 23.499 20.5s25.166 7.16699 44.499 4.5c18 -2.66699 31.667 -8.16699 41 -16.5s15.666 -16.833 18.999 -25.5s5 -16.834 5 -24.501v-13.5
l-2 -17c-1.33301 -12 -1 -26.5 1 -43.5s6.16699 -35 12.5 -54s16.166 -36.167 29.499 -51.5c30 -34 77.667 -51 143 -51c110.667 0 186.667 26.667 228 80c30 38 45 94 45 168c0 155.333 -31.333 266 -94 332c-52 53.333 -132 79.666 -240 78.999
c-20.667 0 -37.834 7.16699 -51.501 21.5s-20.5 31.166 -20.5 50.499v2c0 19.333 6.83301 36.166 20.5 50.499s30.834 21.5 51.501 21.5c48 0 90.667 1.66699 128 5s65.666 13.333 84.999 30c36.667 30 55 114 55 252v6v19.5c0 11.667 -1.66699 26 -5 43
s-8.66602 35 -15.999 54s-18.666 36.833 -33.999 53.5c-34 35.333 -84.667 53 -152 53c-66.667 0 -114.334 -17 -143.001 -51c-13.333 -15.333 -22.833 -32.5 -28.5 -51.5s-9.5 -37 -11.5 -54s-2.66699 -31.167 -2 -42.5l1 -18
c2.66699 -19.333 -2.16602 -36.833 -14.499 -52.5s-27.833 -24.834 -46.5 -27.501c-19.333 -2.66699 -37.166 1.83301 -53.499 13.5s-25.833 26.834 -28.5 45.501c0 2.66699 -0.666992 13 -2 31s-0.666016 40 2.00098 66c8 74 33.333 135.333 76 184
c57.333 66.667 141 100 251 100c109.333 0 194.666 -32.667 255.999 -98c24.667 -26 43.5 -54 56.5 -84s22.667 -58.333 29 -85s9.5 -49.834 9.5 -69.501v-37.5c0 -87.333 -7.66699 -160 -23 -218c-16.667 -61.333 -44.667 -109 -84 -143
c-2.66699 -1.33301 -4.33398 -2.66602 -5.00098 -3.99902s-2.33398 -2.66602 -5.00098 -3.99902c16 -12 31.667 -25.667 47 -41c90 -92.667 135 -236.667 135 -432c0 -108 -25.333 -193.333 -76 -256c-69.333 -90 -182.666 -135 -339.999 -135
c-109.333 0 -193 33.333 -251 100c-42 48 -67.333 109.333 -76 184c-2.66699 27.333 -3.33398 49.5 -2.00098 66.5z" />
    <glyph glyph-name="four" unicode="4" horiz-adv-x="833" 
d="M18 745l186.999 708.998c5.33301 19.333 16.5 34 33.5 44s35.167 12.333 54.5 7s34 -16.166 44 -32.499s12.333 -34.166 7 -53.499l-164 -620h455v637c0 20.667 7.16699 37.667 21.5 51s31.166 20 50.499 20s36 -6.83301 50 -20.5s21 -30.5 21 -50.5v-1420
c0 -19.333 -7.16699 -36 -21.5 -50s-30.833 -21 -49.5 -21c-19.333 0 -36.166 7.16699 -50.499 21.5s-21.5 30.833 -21.5 49.5v639h-549c-24.667 0 -43 9.66699 -55 29c-15.333 16.667 -19.666 37 -12.999 61z" />
    <glyph glyph-name="five" unicode="5" horiz-adv-x="774" 
d="M8 147c-5.33301 19.333 -2.50195 37.5029 8.49805 54.5029s25.833 28.5 44.5 34.5c19.333 4 37.166 0.833008 53.499 -9.5s27.166 -25.166 32.499 -44.499c1.33301 -5.33301 4.5 -13.5 9.5 -24.5s14 -21.5 27 -31.5s31.667 -18.833 56 -26.5s57.166 -11.5 98.499 -11.5
c120 0 201.333 41.667 244 125c19.333 38 30.166 77.167 32.499 117.5s3.5 72.166 3.5 95.499c0 26 -3 59.5 -9 100.5s-19.167 80.167 -39.5 117.5s-50.666 69.666 -90.999 96.999s-95.5 41 -165.5 41h-217c-20.667 0 -37.667 7 -51 21c-13.333 13.333 -20 30.333 -20 51
v608c0 19.333 7.16699 35.833 21.5 49.5s30.833 20.5 49.5 20.5h486c19.333 0 36 -6.83301 50 -20.5s21 -30.834 21 -51.501c0 -19.333 -7.16699 -36 -21.5 -50s-30.833 -21 -49.5 -21h-414v-463h145c54.667 0 102.834 -6.5 144.501 -19.5s77.834 -29.833 108.501 -50.5
s56.334 -43.167 77.001 -67.5s37.667 -48.833 51 -73.5c15.333 -27.333 27.333 -54.666 36 -81.999s15.5 -54 20.5 -80s8.16699 -49.833 9.5 -71.5s2 -40.167 2 -55.5c0 -12 -0.333008 -28.667 -1 -50s-2.66699 -44.333 -6 -69s-8.5 -50.667 -15.5 -78
s-17.167 -53.666 -30.5 -78.999c-12 -23.333 -27.667 -47.333 -47 -72s-43.666 -46.834 -72.999 -66.501s-64.833 -35.667 -106.5 -48s-89.834 -18.5 -144.501 -18.5c-60 0 -110.167 7.16699 -150.5 21.5s-73.166 31.666 -98.499 51.999s-44.166 42.166 -56.499 65.499
s-20.5 44.333 -24.5 63z" />
    <glyph glyph-name="six" unicode="6" horiz-adv-x="954" 
d="M37 743c2.66699 140.667 32.0049 266.332 88.0049 376.999c46.667 87.333 110.667 167.333 192 240c34 28.667 67.5 52.834 100.5 72.501s62.833 36 89.5 49s48.167 22.667 64.5 29s25.166 9.5 26.499 9.5c13.333 4 27 5.33301 41 4
c10.667 -1.33301 21.167 -4.83301 31.5 -10.5s18.166 -16.5 23.499 -32.5c5.33301 -18 5.66602 -32.833 0.999023 -44.5s-11 -21.5 -19 -29.5c-9.33301 -9.33301 -21 -17.666 -35 -24.999l-21 -7c-13.333 -4.66699 -30.833 -12.5 -52.5 -23.5s-46.5 -25 -74.5 -42
s-56.333 -37.833 -85 -62.5c-151.333 -130 -227.333 -298.667 -228 -506v-4c0 -15.333 -0.333008 -30 -1 -44s-1 -28.667 -1 -44l6 6c15.333 16.667 33.166 33.5 53.499 50.5s44.5 32.667 72.5 47s59.5 26 94.5 35s73.5 13.5 115.5 13.5c44 0 83 -4.5 117 -13.5
s64.333 -20.333 91 -34s49.5 -29 68.5 -46s34.833 -33.833 47.5 -50.5c26 -34 43.333 -65.333 52 -94s13.667 -46.334 15 -53.001c15.333 -74 14.666 -147.667 -2.00098 -221c-16.667 -80.667 -49.334 -149.667 -98.001 -207c-74 -82 -168.333 -123 -283 -123h-30
c-165.333 12 -287.666 92 -366.999 240c-74 132.667 -105.333 314 -94 544zM228.005 366.498c3.33301 -38.333 12.6699 -71.8369 28.0029 -100.504c54.667 -101.333 138.667 -156 252 -164c82 -4 146.667 20.667 194 74c31.333 36.667 53.166 83 65.499 139
s13.166 112 2.49902 168c0 2.66699 -3 13.334 -9 32.001s-17.333 38 -34 58c-48 56 -117 84 -207 84c-56 0 -102 -9.83301 -138 -29.5s-65 -41.167 -87 -64.5s-37.833 -45.166 -47.5 -65.499s-14.5 -31.166 -14.5 -32.499
c-6.66699 -27.333 -8.33398 -60.166 -5.00098 -98.499z" />
    <glyph glyph-name="seven" unicode="7" horiz-adv-x="825" 
d="M39 1436c0 20.667 6.83398 37.667 20.501 51s30.834 20 51.501 20h639c23.333 0 42.333 -8.66699 57 -26c6.66699 -9.33301 11 -19.5 13 -30.5s1.66699 -22.167 -1 -33.5l-407 -1407c-4 -15.333 -12.5 -27.666 -25.5 -36.999s-27.167 -14 -42.5 -14
c-9.33301 0 -16 0.666992 -20 2c-19.333 6.66699 -33.833 18.667 -43.5 36s-11.834 35.333 -6.50098 54l379 1313h-542c-20.667 0 -37.834 7.16699 -51.501 21.5s-20.5 31.166 -20.5 50.499z" />
    <glyph glyph-name="eight" unicode="8" horiz-adv-x="829" 
d="M6 332c0 198 44.3291 341.998 132.996 431.998c15.333 15.333 31 29 47 41c-4 4 -7.33301 6.66699 -10 8c-39.333 35.333 -67.333 83 -84 143c-15.333 57.333 -22.666 130 -21.999 218v16v32.5c0 12.333 0.666992 26.166 2 41.499
c10.667 75.333 36.667 136.666 78 183.999c57.333 66.667 141 100 251 100h11h8c110.667 0 195.334 -33.333 254.001 -100c42 -49.333 67.333 -110.666 76 -183.999c4 -27.333 4.66699 -52 2 -74v-16c0 -45.333 -1.83301 -86.166 -5.5 -122.499s-9.5 -68.166 -17.5 -95.499
c-16.667 -61.333 -44.667 -109 -84 -143c-4 -4 -7.33301 -6.66699 -10 -8l24.5 -20.5l24.5 -20.5c88.667 -92.667 133 -236.667 133 -432v-16.5c0 -5.66699 -0.666992 -11.167 -2 -16.5h2c-1.33301 -1.33301 -2 -4.66602 -2 -9.99902c-5.33301 -86 -30 -157 -74 -213
c-52 -68 -129.667 -110.333 -233 -127c-13.333 -2.66699 -27.666 -4.66699 -42.999 -6s-30.333 -2 -45 -2h-8h-11c-27.333 0 -53.666 2 -78.999 6c-105.333 16.667 -186 59.667 -242 129c-49.333 62.667 -74 148 -74 256zM149.996 321.998
c0 -5.33301 2.66992 -20.667 8.00293 -46s17 -51.666 35 -78.999c34 -58.667 83.667 -94.334 149 -107.001c22 -4 45.333 -6 70 -6c26 0 50.333 2 73 6c61.333 12 110 46.333 146 103c15.333 23.333 25.666 45.5 30.999 66.5s8.66602 36.167 9.99902 45.5
c1.33301 5.33301 2 14.333 2 27c0 155.333 -31.333 266 -94 332c-38 40.667 -94 65.667 -168 75c-72.667 -9.33301 -129.334 -34.333 -170.001 -75c-61.333 -64 -92 -174.667 -92 -332v-10zM212.999 1167c1.33301 -134 20.333 -215.002 57 -243.002
c13.333 -12 32 -20.5 56 -25.5s52.667 -8.16699 86 -9.5c31.333 1.33301 58.833 4.33301 82.5 9s43.167 13.334 58.5 26.001c36.667 28.667 55 112.667 55 252v6v6v6c0 8 -0.666992 18.167 -2 30.5s-4 25.666 -8 39.999s-9.5 29.333 -16.5 45s-16.5 29.834 -28.5 42.501
c-32.667 35.333 -79.667 53 -141 53c-62.667 0 -110 -17.667 -142 -53c-12 -12 -21.833 -26 -29.5 -42s-13.5 -31.167 -17.5 -45.5s-6.66699 -27.666 -8 -39.999s-2 -22.5 -2 -30.5v-6c1.33301 -8 1.33301 -15 0 -21z" />
    <glyph glyph-name="nine" unicode="9" horiz-adv-x="884" 
d="M19.5 1109.5c0.333008 38.333 4.16895 76.165 11.502 113.498c19.333 83.333 52.666 151.333 99.999 204c79.333 90 183 131 311 123c118.667 -8 213 -43.333 283 -106c68 -64 115 -163 141 -297v-2c28.667 -184 -31.333 -428.333 -180 -733
c-27.333 -54.667 -54.333 -105.667 -81 -153l-71.5 -123l-52 -84c-13.667 -21.333 -21.167 -32.666 -22.5 -33.999c-15.333 -20 -35.333 -30 -60 -30c-13.333 0 -27 4 -41 12c-15.333 10.667 -24.5 26 -27.5 46s0.833008 38 11.5 54c0 1.33301 13.333 21.833 40 61.5
s58 92 94 157s73.167 138 111.5 219s70.5 163.167 96.5 246.5c-31.333 -20.667 -68.5 -37.667 -111.5 -51s-93.167 -20.666 -150.5 -21.999h-2c-44 0 -83 4.33301 -117 13s-64 19.834 -90 33.501s-48.5 29 -67.5 46s-34.833 33.833 -47.5 50.5c-27.333 34 -45.333 65 -54 93
s-13.667 45.333 -15 52c-6.66699 35.333 -9.83398 72.166 -9.50098 110.499zM170.003 1026c1.33301 -2.66699 4.66504 -12.832 9.99805 -30.499s17 -36.834 35 -57.501c44 -56 112.333 -84 205 -84c106.667 2.66699 190.667 38.334 252 107.001
c19.333 20.667 33 39.667 41 57s13.333 29.666 16 36.999c0 10.667 -0.333008 21.834 -1 33.501s-1.66699 22.834 -3 33.501c-10.667 56 -25 102.167 -43 138.5s-39.167 64.666 -63.5 84.999s-52 35 -83 44s-64.833 14.833 -101.5 17.5
c-82 5.33301 -147.333 -19.334 -196 -74.001c-31.333 -35.333 -53.166 -81 -65.499 -137s-13.166 -112 -2.49902 -168v-2z" />
    <glyph glyph-name="colon" unicode=":" horiz-adv-x="344" 
d="M82 346c0 22 7.5 40.833 22.5 56.5s34.167 23.5 57.5 23.5c22 0 40.5 -7.83301 55.5 -23.5s22.5 -34.5 22.5 -56.5s-7.5 -40.833 -22.5 -56.5s-33.5 -23.5 -55.5 -23.5c-23.333 0 -42.5 7.83301 -57.5 23.5s-22.5 34.5 -22.5 56.5zM82 981c0 22 7.5 40.833 22.5 56.5
s34.167 23.5 57.5 23.5c22 0 40.5 -7.83301 55.5 -23.5s22.5 -34.5 22.5 -56.5s-7.5 -40.833 -22.5 -56.5s-33.5 -23.5 -55.5 -23.5c-23.333 0 -42.5 7.83301 -57.5 23.5s-22.5 34.5 -22.5 56.5z" />
    <glyph glyph-name="semicolon" unicode=";" horiz-adv-x="333" 
d="M82 981c0 22 7.5 40.833 22.5 56.5s34.167 23.5 57.5 23.5c22 0 40.5 -7.83301 55.5 -23.5s22.5 -34.5 22.5 -56.5s-7.5 -40.833 -22.5 -56.5s-33.5 -23.5 -55.5 -23.5c-23.333 0 -42.5 7.83301 -57.5 23.5s-22.5 34.5 -22.5 56.5zM86 346
c0 -22 7.49707 -40.833 22.4971 -56.5s34.167 -23.5 57.5 -23.5h6c5.33301 -44 -11 -85 -49 -123c-9.33301 -9.33301 -14 -20.5 -14 -33.5s4.66699 -24.833 14 -35.5c12 -9.33301 23.667 -14.333 35 -15c10.667 0 22.334 5 35.001 15c39.333 39.333 63 78.833 71 118.5
s8.66699 73.834 2 102.501c-2.66699 18 -6.66699 33.667 -12 47s-10.666 24.333 -15.999 33c-5.33301 15.333 -14.666 27.666 -27.999 36.999s-28 14 -44 14c-23.333 0 -42.5 -7.83301 -57.5 -23.5s-22.5 -34.5 -22.5 -56.5z" />
    <glyph glyph-name="less" unicode="&#x3c;" horiz-adv-x="794" 
d="M88 578c0 20.667 7.00098 37.001 21.001 49.001l485 487c15.333 13.333 32.5 20.166 51.5 20.499s35.833 -6.5 50.5 -20.5c13.333 -15.333 20.166 -32.5 20.499 -51.5s-6.5 -35.833 -20.5 -50.5l-436 -434l430 -428c15.333 -15.333 23 -32.5 23 -51.5
s-7 -36.167 -21 -51.5c-13.333 -13.333 -30.333 -20 -51 -20s-37.667 6.66699 -51 20l-481 479c-13.333 12 -20.333 29.333 -21 52z" />
    <glyph glyph-name="equal" unicode="=" horiz-adv-x="1083" 
d="M49 467c0 20.667 7.16699 37.834 21.5 51.501s31.166 20.5 50.499 20.5h827c19.333 0 36.166 -6.83301 50.499 -20.5s21.5 -30.834 21.5 -51.501c0 -19.333 -7.16699 -36.166 -21.5 -50.499s-31.166 -21.5 -50.499 -21.5h-827c-19.333 0 -36.166 7.16699 -50.499 21.5
s-21.5 31.166 -21.5 50.499zM49 856c0 20.667 7.16699 37.834 21.5 51.501s31.166 20.5 50.499 20.5h827c19.333 0 36.166 -6.83301 50.499 -20.5s21.5 -30.834 21.5 -51.501c0 -19.333 -7.16699 -36.166 -21.5 -50.499s-31.166 -21.5 -50.499 -21.5h-827
c-19.333 0 -36.166 7.16699 -50.499 21.5s-21.5 31.166 -21.5 50.499z" />
    <glyph glyph-name="greater" unicode="&#x3e;" horiz-adv-x="815" 
d="M104.5 1042.5c-0.333008 19 6.49902 36.167 20.499 51.5c15.333 13.333 32.5 20 51.5 20s35.833 -6.66699 50.5 -20l486 -488c13.333 -12 20 -28.333 20 -49c0 -22 -6.66699 -39 -20 -51l-482 -479c-13.333 -14 -30.333 -21 -51 -21s-37.667 7 -51 21
c-13.333 15.333 -20 32.333 -20 51s7.33301 35.667 22 51l430 428l-436 434c-13.333 15.333 -20.166 32.5 -20.499 51.5z" />
    <glyph glyph-name="question" unicode="?" horiz-adv-x="860" 
d="M70 1157c0 49.333 9.50195 95.833 28.502 139.5s44.5 81.834 76.5 114.501s69.833 58.334 113.5 77.001s90.167 28 139.5 28s95.833 -9.33301 139.5 -28s81.834 -44.334 114.501 -77.001s58.167 -70.834 76.5 -114.501s27.5 -90.167 27.5 -139.5
s-6.33301 -91.666 -19 -126.999s-29 -66.333 -49 -93s-42 -49.167 -66 -67.5s-46.667 -34.5 -68 -48.5c-35.333 -24.667 -61 -44.834 -77 -60.501s-24 -36.5 -24 -62.5v-70.5v-46c0 -12.333 0.333008 -22.5 1 -30.5s1 -15.667 1 -23v-118c0 -19.333 -7 -36.166 -21 -50.499
s-30.667 -21.5 -50 -21.5c-20.667 0 -37.834 7.16699 -51.501 21.5s-20.5 31.166 -20.5 50.499v116c-1.33301 13.333 -2 31.333 -2 54v118c0 32.667 5.16699 61.334 15.5 86.001s23.333 46.667 39 66s33 36.166 52 50.499s37.5 27.5 55.5 39.5
c39.333 26 72.666 53.667 99.999 83s41 74 41 134c0 30 -5.83301 58 -17.5 84s-27 48.5 -46 67.5s-41.5 34.333 -67.5 46s-54 17.5 -84 17.5s-58 -5.83301 -84 -17.5s-48.833 -27 -68.5 -46s-35 -41.5 -46 -67.5s-16.5 -54 -16.5 -84
c0 -19.333 -6.83301 -36.166 -20.5 -50.499s-30.834 -21.5 -51.501 -21.5c-19.333 0 -36 7.16699 -50 21.5s-21 31.166 -21 50.499zM326.002 98c0 -23.333 7.83496 -42.833 23.502 -58.5s35.167 -23.5 58.5 -23.5s42.666 7.83301 57.999 23.5s23 35.167 23 58.5
s-7.83301 42.833 -23.5 58.5s-34.834 23.5 -57.501 23.5c-23.333 0 -42.833 -7.83301 -58.5 -23.5s-23.5 -35.167 -23.5 -58.5z" />
    <glyph glyph-name="at" unicode="@" 
 />
    <glyph glyph-name="A" unicode="A" horiz-adv-x="866" 
d="M82 53l284.998 1415c1.33301 5.33301 2.66602 9 3.99902 11v2v2c2.66699 6.66699 6 11.334 10 14.001v4h2v2h2v2h2v2h2c2.66699 2.66699 5.33398 4.83398 8.00098 6.50098s6.33398 3.16699 11.001 4.5v2h2c2.66699 1.33301 5.66699 2 9 2s6.33301 0.666992 9 2h2h4h2
c2.66699 -1.33301 5.83398 -2 9.50098 -2s6.83398 -0.666992 9.50098 -2h2v-2c5.33301 -1.33301 9.33301 -2.83301 12 -4.5s5.33398 -3.83398 8.00098 -6.50098h2v-2h2v-2h2v-2l2 -4c1.33301 -2.66699 3.16602 -5 5.49902 -7s4.16602 -4.33301 5.49902 -7v-2v-2
c1.33301 -1.33301 2 -5 2 -11l286 -1415c4 -19.333 0.666992 -36.833 -10 -52.5s-25 -25.5 -43 -29.5h-12c-15.333 0 -29.5 5.16699 -42.5 15.5s-20.833 23.166 -23.5 38.499l-55 266h-332l-53 -266c-2.66699 -15.333 -10.5 -28.166 -23.5 -38.499
s-27.833 -15.5 -44.5 -15.5h-12c-18 4 -32 14 -42 30s-13 33.333 -9 52zM292.998 423.999h278l-141 692z" />
    <glyph glyph-name="B" unicode="B" horiz-adv-x="991" 
d="M178 63l-0.00195312 1381c0 19.333 6.83301 36.166 20.5 50.499s30.834 21.5 51.501 21.5h2h262c83.333 0 153.666 -42.333 210.999 -127c53.333 -76.667 80 -166.334 80 -269.001c0 -49.333 -6.83301 -97.166 -20.5 -143.499s-33.5 -87.833 -59.5 -124.5
c-8 -12 -17 -23 -27 -33c31.333 -22 60 -51.333 86 -88c57.333 -84.667 86 -185 86 -301c0 -56 -7.5 -109.5 -22.5 -160.5s-36.167 -97.833 -63.5 -140.5c-31.333 -44 -67.166 -78.167 -107.499 -102.5s-82.166 -36.5 -125.499 -36.5h-291
c-1.33301 0 -2.66602 0.666992 -3.99902 2c-1.33301 -1.33301 -3.33301 -2 -6 -2c-20.667 0 -37.834 7.16699 -51.501 21.5s-20.5 31.5 -20.5 51.5zM321.998 135.001l228.998 0.000976562c19.333 0 38.833 6.83301 58.5 20.5s37.834 32.167 54.501 55.5
c20.667 30 36.334 64.167 47.001 102.5s16 77.166 16 116.499c0 40.667 -5.5 80.167 -16.5 118.5s-26.5 71.833 -46.5 100.5c-34 50.667 -71.667 76 -113 76h-229v-590zM321.996 870.002l192 0.00195312c16.667 0 33.834 6.5 51.501 19.5s33.334 30.833 47.001 53.5
s24.834 49 33.501 79s13 62.667 13 98s-4.33301 68.166 -13 98.499s-19.834 56.666 -33.501 78.999s-29.334 40 -47.001 53s-34.834 19.5 -51.501 19.5h-192v-500z" />
    <glyph glyph-name="C" unicode="C" horiz-adv-x="991" 
d="M166 340l0.00488281 37.001v788c0 62.667 9.83301 117.334 29.5 164.001s45.167 85 76.5 115s66.833 52.167 106.5 66.5s79.5 21.5 119.5 21.5c24.667 0 58.5 -4.83301 101.5 -14.5s84.167 -32.167 123.5 -67.5c27.333 -23.333 53.666 -57.5 78.999 -102.5
s38 -105.833 38 -182.5c0 -20.667 -7.16699 -38 -21.5 -52s-31.833 -21 -52.5 -21s-38.167 7.16699 -52.5 21.5s-21.5 31.5 -21.5 51.5c0 50.667 -7.83301 90.667 -23.5 120s-34.334 51.166 -56.001 65.499s-43.167 23.5 -64.5 27.5s-38 6 -50 6
c-23.333 0 -45.666 -4 -66.999 -12s-39.333 -19.667 -54 -35c-42 -38 -63.333 -95.333 -64 -172v-792v-6v-21.5c0 -13 1.5 -28.833 4.5 -47.5s8.16699 -38.5 15.5 -59.5s18.666 -39.833 33.999 -56.5c30 -32.667 74.333 -49 133 -49c61.333 0 107 17 137 51
c15.333 16.667 26.666 34.5 33.999 53.5s12.666 37.333 15.999 55s5 32.834 5 45.501v18c-1.33301 20.667 4.83398 38.5 18.501 53.5s30.834 23.167 51.501 24.5c19.333 1.33301 36.833 -4.83398 52.5 -18.501s24.167 -29.834 25.5 -48.501v-31c0 -18 -3 -40.667 -9 -68
c-12 -76.667 -40.667 -138 -86 -184c-60.667 -65.333 -142.334 -98 -245.001 -98s-183.334 32.667 -242.001 98c-23.333 23.333 -41.833 51.333 -55.5 84s-23.834 68.667 -30.501 108c-4 24.667 -6 46 -6 64z" />
    <glyph glyph-name="D" unicode="D" horiz-adv-x="976" 
d="M176 61v1381c0 19.333 6.83301 36 20.5 50s30.834 21 51.501 21h112h158c40.667 0 80.834 -7.16699 120.501 -21.5s75.334 -36.5 107.001 -66.5s57.334 -68.167 77.001 -114.5s29.5 -100.833 29.5 -163.5v-789c0 -64 -9.83301 -118.833 -29.5 -164.5
s-45.334 -83.834 -77.001 -114.501s-67.334 -53.167 -107.001 -67.5s-79.834 -21.5 -120.501 -21.5h-158h-112c-20.667 0 -37.834 7.16699 -51.501 21.5s-20.5 30.833 -20.5 49.5zM319 135.001h40.999h158c50.667 0 93 15.667 127 47c42 39.333 63.333 98 64 176v789
c0 75.333 -21.333 134 -64 176c-35.333 31.333 -77.666 47 -126.999 47h-158h-41v-1235z" />
    <glyph glyph-name="E" unicode="E" horiz-adv-x="974" 
d="M158 61v1381c0 19.333 7.16699 36 21.5 50s31.5 21 51.5 21h543c20.667 0 38.167 -7.16699 52.5 -21.5s21.5 -30.833 21.5 -49.5c0 -20.667 -7.16699 -38.167 -21.5 -52.5s-31.833 -21.5 -52.5 -21.5h-471v-629h354c20.667 0 37.834 -7.16699 51.501 -21.5
s20.5 -31.5 20.5 -51.5c0 -19.333 -6.83301 -36.166 -20.5 -50.499s-30.834 -21.5 -51.501 -21.5h-354v-459h471c20.667 0 38.167 -7.16699 52.5 -21.5s21.5 -31.833 21.5 -52.5c0 -19.333 -7.16699 -36 -21.5 -50s-31.833 -21 -52.5 -21h-543
c-20.667 0 -38 7.16699 -52 21.5s-21 30.833 -21 49.5z" />
    <glyph glyph-name="F" unicode="F" horiz-adv-x="960" 
d="M180 61l-0.000976562 1381c0 19.333 7.16699 36 21.5 50s31.833 21 52.5 21h543c20.667 0 38 -7.16699 52 -21.5s21 -30.833 21 -49.5c0 -20.667 -7.16699 -38.167 -21.5 -52.5s-31.5 -21.5 -51.5 -21.5h-471v-629h354c20.667 0 37.834 -7.16699 51.501 -21.5
s20.5 -31.5 20.5 -51.5c0 -19.333 -6.83301 -36.166 -20.5 -50.499s-30.834 -21.5 -51.501 -21.5h-354v-533c0 -19.333 -7.16699 -36 -21.5 -50s-31.166 -21 -50.499 -21c-20.667 0 -38.167 7.16699 -52.5 21.5s-21.5 30.833 -21.5 49.5z" />
    <glyph glyph-name="G" unicode="G" horiz-adv-x="976" 
d="M142 325.5c-0.666992 17.667 -0.331055 29.832 1.00195 36.499v803c0 62.667 10 117.334 30 164.001s45.667 85 77 115s66.833 52.167 106.5 66.5s79.834 21.5 120.501 21.5c87.333 0 161.666 -27.333 222.999 -82c26 -23.333 51 -57.833 75 -103.5
s36 -106.834 36 -183.501c0 -19.333 -7.16699 -36 -21.5 -50s-31.166 -21 -50.499 -21c-20.667 0 -38 7.16699 -52 21.5s-21 30.833 -21 49.5c0 52 -8 93 -24 123s-34.167 52.5 -54.5 67.5s-41 24.667 -62 29s-37.167 6.5 -48.5 6.5c-49.333 0 -91.666 -16 -126.999 -48
c-42 -39.333 -63 -98 -63 -176v-809v-2v-21.5c0 -13 1.33301 -29 4 -48s7.66699 -39.5 15 -61.5s19.333 -41 36 -57c30 -32.667 75 -49 135 -49c64 0 111 17 141 51c15.333 16.667 27.166 35.167 35.499 55.5s14.166 39.333 17.499 57s5 32.834 5 45.501v18v2v260h-144
c-20.667 0 -38 7.16699 -52 21.5s-21 31.833 -21 52.5c0 19.333 7.16699 36.166 21.5 50.499s31.5 21.5 51.5 21.5h287v-402c1.33301 -5.33301 1.66602 -16.833 0.999023 -34.5s-3 -38.167 -7 -61.5c-15.333 -75.333 -44.666 -136.666 -87.999 -183.999
c-61.333 -66 -144 -99 -248 -99s-184.333 33 -241 99c-46.667 48 -76.334 112.667 -89.001 194c-2.66699 23.333 -4.33398 43.833 -5.00098 61.5z" />
    <glyph glyph-name="H" unicode="H" horiz-adv-x="1054" 
d="M174 61v1381c0 19.333 7.16699 36 21.5 50s31.166 21 50.499 21c20.667 0 38 -7.16699 52 -21.5s21 -30.833 21 -49.5v-703h431v703c0 19.333 7 36 21 50s31.333 21 52 21c19.333 0 36.166 -7.16699 50.499 -21.5s21.5 -30.833 21.5 -49.5v-1381
c0 -19.333 -7.16699 -36 -21.5 -50s-31.166 -21 -50.499 -21c-20.667 0 -38 7.16699 -52 21.5s-21 30.833 -21 49.5v533h-431v-533c0 -19.333 -7.16699 -36 -21.5 -50s-31.5 -21 -51.5 -21c-19.333 0 -36.166 7.16699 -50.499 21.5s-21.5 30.833 -21.5 49.5z" />
    <glyph glyph-name="I" unicode="I" horiz-adv-x="507" 
d="M178 61v1381c0 19.333 6.83301 36 20.5 50s30.834 21 51.501 21c19.333 0 36.166 -7.16699 50.499 -21.5s21.5 -30.833 21.5 -49.5v-1381c0 -19.333 -7.16699 -36 -21.5 -50s-31.166 -21 -50.499 -21c-20.667 0 -37.834 7.16699 -51.501 21.5s-20.5 30.833 -20.5 49.5z
" />
    <glyph glyph-name="J" unicode="J" horiz-adv-x="1009" 
d="M167 334c0.666992 18.667 1.00293 29.665 1.00293 32.998c2.66699 16.667 6.66699 31.667 12 45c5.33301 10.667 13.166 20.5 23.499 29.5s25.166 12.167 44.499 9.5s33.333 -9.16699 42 -19.5s14.334 -21.166 17.001 -32.499c4 -13.333 5.33301 -28.333 4 -45
c-0.666992 -6 -1 -11.667 -1 -17c0 -18 1.66699 -35.333 5 -52c2.66699 -19.333 7.83398 -40 15.501 -62s19.834 -41 36.501 -57c30 -34 75 -51 135 -51s107 17 141 51c15.333 16.667 27 34.834 35 54.501s13.667 38.334 17 56.001s5 33 5 46v21.5v4v1094
c0 19.333 7.16699 36 21.5 50s31.166 21 50.499 21c20.667 0 38.167 -7.16699 52.5 -21.5s21.5 -30.833 21.5 -49.5l-2 -1092c1.33301 -5.33301 1.66602 -16.833 0.999023 -34.5s-3 -38.167 -7 -61.5c-6.66699 -36.667 -17.334 -71.167 -32.001 -103.5
s-33.334 -59.833 -56.001 -82.5c-61.333 -64.667 -144 -97 -248 -97s-184.667 32.333 -242 97c-46.667 50.667 -76 116 -88 196c-3.33301 23.333 -5 43.666 -5 60.999v9z" />
    <glyph glyph-name="K" unicode="K" horiz-adv-x="1040" 
d="M176 70v439.999v2v932c0 20.667 7.16699 38.167 21.5 52.5s31.166 21.5 50.499 21.5c20.667 0 38.167 -7.16699 52.5 -21.5s21.5 -31.833 21.5 -52.5v-678l438 713c10.667 18 25.667 29.333 45 34s37.666 1.33398 54.999 -9.99902
c16.667 -10.667 27.334 -25.5 32.001 -44.5s1.66699 -37.5 -9 -55.5l-322 -522l391 -772c9.33301 -18 11 -36.167 5 -54.5s-17.667 -32.5 -35 -42.5c-9.33301 -5.33301 -20.333 -8 -33 -8c-13.333 0 -25.833 3.5 -37.5 10.5s-21.167 16.5 -28.5 28.5l-350 694l-151 -248
v-419c0 -20.667 -7.16699 -37.834 -21.5 -51.501s-31.833 -20.5 -52.5 -20.5c-19.333 0 -36.166 6.83301 -50.499 20.5s-21.5 30.834 -21.5 51.501z" />
    <glyph glyph-name="L" unicode="L" horiz-adv-x="1056" 
d="M233 61l-0.000976562 1381c0 19.333 7.16699 36 21.5 50s31.166 21 50.499 21c20.667 0 37.834 -7.16699 51.501 -21.5s20.5 -30.833 20.5 -49.5v-1307h473c19.333 0 36.166 -7.16699 50.499 -21.5s21.5 -31.833 21.5 -52.5c0 -19.333 -7.16699 -36 -21.5 -50
s-31.166 -21 -50.499 -21h-545c-19.333 0 -36.166 7.16699 -50.499 21.5s-21.5 30.833 -21.5 49.5z" />
    <glyph glyph-name="M" unicode="M" horiz-adv-x="1167" 
d="M139 61v1381v4v2v2c1.33301 0 2 0.666992 2 2v2v4c1.33301 2.66699 3.33301 8.33398 6 17.001l3 2v2l2 2v2c1.33301 0 2 0.666992 2 2c2.66699 2.66699 4.33398 4.66699 5.00098 6s2.33398 2.66602 5.00098 3.99902l2 2c0 1.33301 0.666992 2 2 2h2v2h2
c0 1.33301 0.666992 2 2 2h2v2h2h2c0 1.33301 0.666992 2 2 2s2 0.333008 2 1s0.666992 1 2 1h2l2 2h3h2h2c0 1.33301 0.666992 2 2 2h2h4h4h2h2h2h2h2h2h2h2l2 -2c5.33301 0 11 -1.33301 17 -4c1.33301 -1.33301 2.66602 -2 3.99902 -2c0 -1.33301 0.666992 -2 2 -2l2 -2
c1.33301 0 2.66602 -0.666992 3.99902 -2c4 -4 7.33301 -6.66699 10 -8c0 -1.33301 0.666992 -2 2 -2v-2l2 -2v-2c1.33301 0 2 -0.666992 2 -2l2 -2v-2l2 -2l310 -607l309 607v2l2 2v2h2v2l2 2c0 1.33301 0.666992 2 2 2v2c5.33301 5.33301 9.33301 8.66602 12 9.99902
c0 1.33301 1 2 3 2h2c0 1.33301 0.666992 2 2 2v2h2h2c0 1.33301 0.666992 2 2 2c1.33301 1.33301 3 2 5 2s4.33301 0.666992 7 2h2h2c0 1.33301 0.666992 2 2 2h2h2h2h2h4h5h4h2h2h2v-2h2h2h2h2v-2h4l2 -2h2l2 -2h4v-2h2v-2h2l2 -2c1.33301 0 2.33301 -0.666992 3 -2h2
l2 -2c2.66699 -1.33301 5.33398 -4.66602 8.00098 -9.99902c1.33301 0 2 -0.666992 2 -2l2 -2v-2l2 -2l2 -2c2.66699 -5.33301 4 -10.333 4 -15v-2h2v-4v-2v-2v-2v-2v-4v-1381c0 -19.333 -6.83301 -36 -20.5 -50s-30.834 -21 -51.501 -21c-19.333 0 -36 7.16699 -50 21.5
s-21 30.833 -21 49.5v1080l-234 -457c-6.66699 -19.333 -18.334 -33 -35.001 -41c-13.333 -5.33301 -24 -8 -32 -8c-6.66699 0 -12.5 0.666992 -17.5 2s-10.167 3.33301 -15.5 6c-18 8 -30.333 21.667 -37 41l-231 457v-1080c0 -19.333 -7.16699 -36 -21.5 -50
s-31.166 -21 -50.499 -21c-20.667 0 -38.167 7.16699 -52.5 21.5s-21.5 30.833 -21.5 49.5z" />
    <glyph glyph-name="N" unicode="N" horiz-adv-x="1038" 
d="M158 68l0.00195312 1378v4v2v2v2v2v2h2v4v2v2l2 2v5c1.33301 0 2 0.666992 2 2s0.333008 2 1 2s1 0.666992 1 2v2h2v2c0 1.33301 0.666992 2 2 2v2l2 2l2 2c0 1.33301 0.666992 2 2 2c0 1.33301 0.333008 2 1 2s1 0.666992 1 2c1.33301 0 2 0.666992 2 2h2l2 2l2 2
c1.33301 0 2 0.666992 2 2h2l3 2h2l2 2h2c2.66699 2.66699 5.33398 4.16699 8.00098 4.5s5.33398 1.16602 8.00098 2.49902h2c2.66699 1.33301 8 2 16 2h5h2c1.33301 0 2 -0.666992 2 -2h2h2h4c1.33301 -1.33301 2.66602 -2 3.99902 -2l2 -3h4l2 -2
c1.33301 0 2.66602 -0.666992 3.99902 -2h2c0 -1.33301 0.666992 -2 2 -2l2 -2h2v-2h2c0 -1.33301 1 -2 3 -2c0 -1.33301 0.666992 -2 2 -2c1.33301 -1.33301 2 -2.66602 2 -3.99902c1.33301 0 2 -0.666992 2 -2h2v-2h2v-2c0 -1.33301 0.666992 -2 2 -2v-2l2 -2
c0 -1.33301 0.333008 -2 1 -2s1 -0.666992 1 -2l2 -4l459 -1059v1032c0 19.333 6.83301 36.166 20.5 50.499s30.5 21.5 50.5 21.5c19.333 0 36.166 -7.16699 50.499 -21.5s21.5 -31.166 21.5 -50.499v-1378v-7v-2v-2v-2v-2l-2 -2v-2v-4l-2 -2v-4
c-1.33301 0 -2 -0.666992 -2 -2v-2l-2 -2v-2c-1.33301 0 -2 -0.666992 -2 -2v-2h-2v-2l-2 -2c0 -1.33301 -0.666992 -2 -2 -2c0 -1.33301 -0.333008 -2.16602 -1 -2.49902s-1 -1.16602 -1 -2.49902l-2 -2c-1.33301 0 -2 -0.666992 -2 -2h-3l-2 -2
c0 -1.33301 -0.666992 -2 -2 -2l-2 -2h-2c0 -1.33301 -0.666992 -2 -2 -2h-2v-2h-2l-2 -2c-5.33301 -2.66699 -10.666 -4 -15.999 -4c-2.66699 -1.33301 -7.66699 -2 -15 -2h-2h-2h-2h-4c-2.66699 0 -4.66699 0.666992 -6 2h-4c-2.66699 1.33301 -4.33398 2 -5.00098 2
s-2.33398 0.666992 -5.00098 2c-1.33301 1.33301 -2.66602 2 -3.99902 2s-3 0.666992 -5 2l-2 2l-2 2h-2c0 1.33301 -0.666992 2 -2 2l-2 2l-2 2l-2 2l-2 2c-1.33301 1.33301 -2 3 -2 5c-1.33301 0 -2 0.666992 -2 2l-2 2c-1.33301 1.33301 -2 3.33301 -2 6
c-1.33301 1.33301 -2 2.33301 -2 3s-0.666992 1.66699 -2 3l-459 1057v-1030c0 -19.333 -6.83301 -36.166 -20.5 -50.499s-30.834 -21.5 -51.501 -21.5c-19.333 0 -36 7.16699 -50 21.5s-21 31.166 -21 50.499z" />
    <glyph glyph-name="O" unicode="O" horiz-adv-x="927" 
d="M129 321.5c0 17.667 0.665039 29.8301 1.99805 36.4971v801c0 62.667 9.83301 117.334 29.5 164.001s45.334 85.334 77.001 116.001s67.167 53.167 106.5 67.5s79.666 21.5 120.999 21.5c24.667 0 58.167 -4.83301 100.5 -14.5s83.833 -32.167 124.5 -67.5
c13.333 -12 27 -26.333 41 -43s26.333 -36.834 37 -60.501s19.834 -50.5 27.501 -80.5s11.5 -64.333 11.5 -103v-815v-33.5c0 -17 -2 -37.167 -6 -60.5c-13.333 -75.333 -42.666 -137.666 -87.999 -186.999c-61.333 -65.333 -144 -98 -248 -98s-185.333 32.667 -244 98
c-45.333 49.333 -74 114.333 -86 195c-4 24.667 -6 45.834 -6 63.501zM273.998 327.496c0 -13.667 1.50293 -30.002 4.50293 -49.002s8.16699 -39.5 15.5 -61.5s19.333 -41 36 -57c30 -32.667 75 -49 135 -49c61.333 0 108.333 17 141 51c15.333 16.667 27 34.834 35 54.501
s13.833 38.334 17.5 56.001s5.5 32.667 5.5 45v20.5v4v817c0 52 -8.33301 92.667 -25 122s-35.834 51.5 -57.501 66.5s-43.834 24.5 -66.501 28.5s-39.334 6 -50.001 6c-50.667 0 -93 -15.667 -127 -47c-42 -39.333 -63.333 -98 -64 -176v-803v-6v-22.5z" />
    <glyph glyph-name="P" unicode="P" horiz-adv-x="970" 
d="M143 61l0.000976562 1379c0 28.667 12.333 49.667 37 63c9.33301 8 21.666 12.333 36.999 13h301c44 0 86.167 -13.333 126.5 -40s76.166 -64 107.499 -112c27.333 -44 48.5 -92.5 63.5 -145.5s22.5 -106.833 22.5 -161.5c0 -56 -7.5 -110.667 -22.5 -164
s-36.167 -101.666 -63.5 -144.999c-31.333 -48 -67.166 -85 -107.499 -111s-82.5 -39 -126.5 -39h-231v-537c0 -20.667 -6.83301 -37.667 -20.5 -51s-30.834 -20 -51.501 -20c-19.333 0 -36.166 6.83301 -50.499 20.5s-21.5 30.5 -21.5 50.5zM287.001 740.999
l230.999 0.00390625c18 0 36.833 7.16699 56.5 21.5s37.834 35.166 54.501 62.499c20.667 31.333 36.334 67.166 47.001 107.499s16 81.833 16 124.5c0 40.667 -5.5 81.167 -16.5 121.5s-26.5 76.166 -46.5 107.499c-16.667 27.333 -34.834 48.166 -54.501 62.499
s-38.5 21.5 -56.5 21.5h-231v-629z" />
    <glyph glyph-name="Q" unicode="Q" horiz-adv-x="1024" 
d="M184 325.5c0 17.667 0.666992 29.8311 2 36.498v801c0 62.667 10 117.334 30 164.001s45.667 85.334 77 116.001s66.833 53.167 106.5 67.5s79.167 21.5 118.5 21.5c26 0 60.167 -4.83301 102.5 -14.5s83.833 -32.167 124.5 -67.5c13.333 -12 27 -26.333 41 -43
s26.5 -36.834 37.5 -60.501s20.167 -50.5 27.5 -80.5s11 -64.333 11 -103v-815v-33.5c0 -17 -2 -37.167 -6 -60.5c-12 -62.667 -35.333 -118 -70 -166l84 -96c13.333 -15.333 19.166 -32.833 17.499 -52.5s-10.167 -36.5 -25.5 -50.5c-13.333 -10.667 -29 -16 -47 -16
c-23.333 0 -41.666 8.33301 -54.999 25l-88 102c-45.333 -20.667 -96 -31 -152 -31c-104 0 -185.333 33 -244 99c-45.333 49.333 -74 114 -86 194c-4 24.667 -6 45.834 -6 63.501zM330 331.497c0 -13.667 1.33594 -30.001 4.00293 -49.001s7.66699 -39.333 15 -61
s19.333 -40.834 36 -57.501c30 -32.667 75 -49 135 -49c61.333 0 108.666 17 141.999 51c15.333 16.667 27 34.834 35 54.501s13.667 38.334 17 56.001s5 32.667 5 45v20.5v6v815c0 52 -8.16699 92.667 -24.5 122s-35.833 51.5 -58.5 66.5s-44.834 24.5 -66.501 28.5
s-38.834 6 -51.501 6c-49.333 0 -91 -15.667 -125 -47c-42 -39.333 -63 -98 -63 -176v-803v-6v-22.5z" />
    <glyph glyph-name="R" unicode="R" horiz-adv-x="1005" 
d="M162 61l0.000976562 1379c0 20.667 7.16699 38 21.5 52s30.833 21 49.5 21h306c44 0 86 -13.167 126 -39.5s75.667 -63.5 107 -111.5c27.333 -44 48.5 -92.5 63.5 -145.5s22.5 -106.833 22.5 -161.5c0 -56 -7.5 -110.667 -22.5 -164s-36.167 -102 -63.5 -146
c-34 -52 -70.667 -89.333 -110 -112l237 -543c8 -19.333 8.66699 -38.166 2 -56.499s-19.667 -30.833 -39 -37.5c-5.33301 -2.66699 -10.333 -4.33398 -15 -5.00098s-9 -1 -13 -1c-15.333 0 -28.833 3.33301 -40.5 10s-20.834 17.667 -27.501 33l-246 563h-213v-535
c0 -20.667 -7.16699 -37.667 -21.5 -51s-31.833 -20 -52.5 -20c-19.333 0 -36 6.83301 -50 20.5s-21 30.5 -21 50.5zM307.001 739l232.001 0.00292969c18 0 36.833 7.5 56.5 22.5s37.5 35.5 53.5 61.5c20.667 31.333 36.834 67.166 48.501 107.499s17.5 81.833 17.5 124.5
c0 40.667 -5.83301 81.167 -17.5 121.5s-27.834 76.166 -48.501 107.499c-16.667 27.333 -34.834 48.166 -54.501 62.499s-38.167 21.5 -55.5 21.5h-232v-629z" />
    <glyph glyph-name="S" unicode="S" horiz-adv-x="958" 
d="M127 344c0 20.667 7.16211 37.832 21.4951 51.499s31.833 20.5 52.5 20.5c19.333 0 35.666 -6.83301 48.999 -20.5s20 -30.834 20 -51.501c0 -45.333 6.5 -82.333 19.5 -111s29.833 -50.834 50.5 -66.501s43.5 -26.5 68.5 -32.5s49.833 -9 74.5 -9
c13.333 0 32.833 1.66699 58.5 5s50.667 12.5 75 27.5s45.833 36.833 64.5 65.5s28 69 28 121c0 50.667 -7.16699 95.167 -21.5 133.5s-34.166 72.5 -59.499 102.5s-54.333 57.5 -87 82.5s-67.667 50.5 -105 76.5l-99 74c-33.333 26 -63.666 54.667 -90.999 86
c-64 75.333 -97 162 -99 260c0 5.33301 0.5 16.333 1.5 33s3.5 35.667 7.5 57c12 69.333 39.333 127.333 82 174c61.333 64 143.666 96.333 246.999 97c105.333 0 186.666 -32.333 243.999 -97c20.667 -23.333 37.167 -50 49.5 -80s19.833 -62.667 22.5 -98
c2.66699 -24.667 3.66699 -45.5 3 -62.5s-1.66699 -26.833 -3 -29.5c-4 -18 -9 -33.667 -15 -47c-6.66699 -10.667 -14.667 -20.167 -24 -28.5s-23.666 -11.166 -42.999 -8.49902s-33 9.83398 -41 21.501s-13.333 23.5 -16 35.5c-4 15.333 -5 31.333 -3 48
c2.66699 19.333 2.66699 37.666 0 54.999c-2.66699 15.333 -6.66699 32.166 -12 50.499s-14 34.833 -26 49.5c-27.333 32.667 -72.666 49 -135.999 49c-62.667 0 -109.667 -17.667 -141 -53c-15.333 -15.333 -26.666 -32.5 -33.999 -51.5s-12.333 -35.833 -15 -50.5
c-4 -19.333 -5.33301 -38 -4 -56v-6c0 -34 5.5 -64.667 16.5 -92s26.333 -52.666 46 -75.999s43.5 -46.166 71.5 -68.499l95 -72.5c39.333 -26 77.833 -53.667 115.5 -83s72.834 -63.666 105.501 -102.999c74 -90 111 -197.333 111 -322
c0 -62.667 -10.667 -116.834 -32 -162.501s-49.333 -83.167 -84 -112.5s-74.167 -51.166 -118.5 -65.499s-89.166 -21.5 -134.499 -21.5c-95.333 0 -175.666 27 -240.999 81c-26 22 -51.667 55.167 -77 99.5s-38 104.833 -38 181.5z" />
    <glyph glyph-name="T" unicode="T" horiz-adv-x="911" 
d="M82 1440c0 20.667 7.16797 38 21.501 52s31.833 21 52.5 21h643c19.333 0 36 -7.16699 50 -21.5s21 -31.5 21 -51.5c0 -19.333 -7.16699 -36.166 -21.5 -50.499s-30.833 -21.5 -49.5 -21.5h-248v-1307c0 -20.667 -6.83301 -37.667 -20.5 -51s-30.834 -20 -51.501 -20
c-19.333 0 -36 6.83301 -50 20.5s-21 30.5 -21 50.5v1307h-252c-20.667 0 -38.167 7.16699 -52.5 21.5s-21.5 31.166 -21.5 50.499z" />
    <glyph glyph-name="U" unicode="U" horiz-adv-x="1026" 
d="M182 325.5l0.00683594 36.498v1080c0 19.333 7.16699 36 21.5 50s31.166 21 50.499 21c20.667 0 38.167 -7.16699 52.5 -21.5s21.5 -30.833 21.5 -49.5v-1082v-6c0 -1.33301 -0.333008 -8.83301 -1 -22.5s0.666016 -30 3.99902 -49s8.66602 -39.5 15.999 -61.5
s18.666 -41 33.999 -57c30 -32.667 75 -49 135 -49c62.667 0 110.334 17 143.001 51c15.333 16.667 27.166 34.834 35.499 54.501s13.833 39.167 16.5 58.5c4 20.667 5.33301 41.667 4 63v6v1092c0 20.667 7.16699 38 21.5 52s31.5 21 51.5 21
c19.333 0 36.166 -7.16699 50.499 -21.5s21.5 -31.5 21.5 -51.5v-1092c0 -5.33301 -0.333008 -16.5 -1 -33.5s-3 -37.167 -7 -60.5c-12 -75.333 -41.333 -137.333 -88 -186c-60 -66 -142.667 -99 -248 -99c-102.667 0 -183.334 33 -242.001 99
c-46.667 52 -75.334 116.667 -86.001 194c-4 24.667 -6 45.834 -6 63.501z" />
    <glyph glyph-name="V" unicode="V" horiz-adv-x="958" 
d="M139 1425c-4 19.333 -0.5 37.501 10.5 54.501s26.167 27.5 45.5 31.5s37.333 0.333008 54 -11s27.334 -26.666 32.001 -45.999l211 -1038l210 1038c4 19.333 14.167 34.666 30.5 45.999s34.166 15 53.499 11c20.667 -4 36.5 -14.5 47.5 -31.5s14.5 -35.167 10.5 -54.5
l-277 -1366c-4 -16.667 -12.833 -30.334 -26.5 -41.001s-28.5 -16 -44.5 -16h-4h-7c-16.667 0 -31.667 5.5 -45 16.5s-21.333 24.5 -24 40.5z" />
    <glyph glyph-name="W" unicode="W" horiz-adv-x="1280" 
d="M158 1432c-2.66699 19.333 1.99316 36.667 13.9932 52s28.333 24.333 49 27c19.333 2.66699 36.833 -2 52.5 -14s24.834 -27.667 27.501 -47l131 -1061l141 430l2 2v2c0 1.33301 1 2 3 2v2v2c2.66699 2.66699 4 4.33398 4 5.00098v2l2 2l2 2c0 1.33301 0.666992 2 2 2v2
h2v2l2 2c1.33301 0 2 0.666992 2 2h2v2l2 2c2.66699 2.66699 5.66699 4.33398 9 5.00098s6.33301 2.33398 9 5.00098h5l2 2h2h2h2h2v2h2h2h2h2h2h2h2h2h2h2h2l2 -2h2h5c1.33301 0 2 -0.333008 2 -1s0.666992 -1 2 -1h4c2.66699 -2.66699 5.33398 -4.33398 8.00098 -5.00098
s5.33398 -2.33398 8.00098 -5.00098l2 -2c1.33301 0 2 -0.666992 2 -2h2v-2h2v-2c1.33301 0 2 -0.666992 2 -2h2v-2l2 -2l2 -2c0 -1.33301 1 -2 3 -2v-2v-3h2v-2v-2c1.33301 0 2 -0.666992 2 -2l2 -2v-2v-2l143 -430l131 1061c2.66699 19.333 11.834 35.166 27.501 47.499
s33.167 16.833 52.5 13.5c19.333 -2.66699 35.5 -11.834 48.5 -27.501s17.833 -32.834 14.5 -51.501l-170 -1379c-1.33301 -1.33301 -2 -3.33301 -2 -6v-2v-2l-2 -2v-2c0 -1.33301 -0.666992 -2.66602 -2 -3.99902c0 -2.66699 -1.33301 -5.33398 -4 -8.00098
c0 -1.33301 -0.666992 -2.66602 -2 -3.99902v-3h-2v-2l-2 -2v-2h-2v-2c-5.33301 -5.33301 -10 -8.66602 -14 -9.99902c0 -1.33301 -0.666992 -2 -2 -2l-2 -2h-2l-2 -2h-3c-4 -1.33301 -8.66699 -3.33301 -14 -6h-2h-2h-2h-2h-4h-4h-4h-2h-2h-3
c-2.66699 0 -4.66699 0.666992 -6 2h-4c-5.33301 1.33301 -10.666 4 -15.999 8c-1.33301 1.33301 -2.66602 2.33301 -3.99902 3s-2.66602 1.66699 -3.99902 3l-4 4h-2l-3 2v2c-1.33301 0 -2 0.333008 -2 1s-0.666992 1 -2 1v2c0 1.33301 -0.333008 2 -1 2s-1 1 -1 3h-2
c0 2.66699 -0.666992 4 -2 4v2l-2 4c0 1.33301 -0.333008 2.33301 -1 3s-1 1.66699 -1 3l-174 526l-174 -526c-1.33301 -1.33301 -2 -3.33301 -2 -6h-2c0 -2.66699 -0.666992 -4 -2 -4v-2l-2 -4c-1.33301 -1.33301 -2 -3 -2 -5c-1.33301 0 -2 -0.666992 -2 -2l-2 -2l-2 -2
l-2 -2l-5 -4h-2c-2.66699 -2.66699 -5.33398 -4.66699 -8.00098 -6c-4 -4 -8.66699 -6.66699 -14 -8h-4h-2c-1.33301 -1.33301 -2.66602 -2 -3.99902 -2h-2h-2h-5h-2h-2h-4h-2h-2h-2h-2h-2c-4 1.33301 -8.66699 3.33301 -14 6h-2h-2v2h-2l-3 2c-1.33301 0 -2 0.666992 -2 2
h-2c-2.66699 1.33301 -6 4 -10 8v2h-2c0 1.33301 -0.666992 2 -2 2c0 1.33301 -0.666992 2 -2 2v2l-2 2l-2 3l-6 12v4c-1.33301 0 -2 0.666992 -2 2v2v2v2c-1.33301 1.33301 -2 3.33301 -2 6z" />
    <glyph glyph-name="X" unicode="X" horiz-adv-x="976" 
d="M143 88l217.001 563l48 119l-244 631c-6.66699 19.333 -6.33398 38.166 0.999023 56.499s20.666 30.833 39.999 37.5s38.166 6.33398 56.499 -0.999023s30.833 -20.666 37.5 -39.999l184 -481l187 481c6.66699 19.333 18.834 32.666 36.501 39.999
s36.167 7.66602 55.5 0.999023s33 -19.167 41 -37.5s8.66699 -37.166 2 -56.499l-244 -631l264 -682c6.66699 -19.333 6 -38.166 -2 -56.499s-21.667 -30.833 -41 -37.5c-5.33301 -2.66699 -13.333 -4 -24 -4c-15.333 0 -29.166 3.66699 -41.499 11
s-21.166 18.666 -26.499 33.999l-207 534l-204 -534c-5.33301 -15.333 -14.333 -26.666 -27 -33.999s-26.334 -11 -41.001 -11c-10.667 0 -19 1.33301 -25 4c-19.333 6.66699 -33 19.167 -41 37.5s-8.66699 37.166 -2 56.499z" />
    <glyph glyph-name="Y" unicode="Y" horiz-adv-x="913" 
d="M127 1413c-6.66699 19.333 -6.33105 37.833 1.00195 55.5s20.666 29.834 39.999 36.501c19.333 8 38.166 8.33301 56.499 1s30.833 -20.666 37.5 -39.999l197 -499l196 499c6.66699 19.333 19.334 32.666 38.001 39.999s37.667 7 57 -1
c19.333 -6.66699 32.666 -18.834 39.999 -36.501s7.66602 -36.167 0.999023 -55.5l-261 -655v-697c0 -20.667 -6.83301 -37.667 -20.5 -51s-30.5 -20 -50.5 -20c-19.333 0 -36.166 6.83301 -50.499 20.5s-21.5 30.5 -21.5 50.5v697z" />
    <glyph glyph-name="Z" unicode="Z" horiz-adv-x="976" 
d="M136 36.5c-7.33301 17.667 -6.99902 36.165 1.00098 55.498l502 1276h-350c-19.333 0 -36.166 7.16699 -50.499 21.5s-21.5 31.166 -21.5 50.499c0 20.667 7.16699 38 21.5 52s31.166 21 50.499 21h456h5h4c0 -1.33301 0.666992 -2 2 -2h2h2h2
c1.33301 0 2.66602 -0.666992 3.99902 -2h2h2l2 -2h4c0 -1.33301 0.666992 -2 2 -2h2l2 -2l2 -2h2l2 -2c5.33301 -4 9.66602 -8 12.999 -12l2 -2l2 -2v-2c1.33301 0 2 -0.666992 2 -2l2 -2c1.33301 -2.66699 2.33301 -5.5 3 -8.5s1.66699 -5.83301 3 -8.5
c0 -1.33301 0.666992 -2.66602 2 -3.99902v-2v-2v-2v-2v-4v-2v-2v-2v-4v-4v-3v-2v-2c-1.33301 0 -2 -0.666992 -2 -2v-4c-1.33301 0 -2 -0.666992 -2 -2l-506 -1282h438c20.667 0 37.834 -7.16699 51.501 -21.5s20.5 -31.166 20.5 -50.499c0 -20.667 -6.83301 -38 -20.5 -52
s-30.834 -21 -51.501 -21h-530c-16.667 0 -29.667 4 -39 12c-19.333 6.66699 -32.666 18.834 -39.999 36.501z" />
    <glyph glyph-name="bracketleft" unicode="[" 
 />
    <glyph glyph-name="backslash" unicode="\" 
 />
    <glyph glyph-name="bracketright" unicode="]" 
 />
    <glyph glyph-name="asciicircum" unicode="^" 
 />
    <glyph glyph-name="underscore" unicode="_" 
 />
    <glyph glyph-name="grave" unicode="`" 
d="M686 1594.5c5.33301 18.333 16.999 32.832 34.999 43.499c18 9.33301 36.5 11.333 55.5 6s33.167 -16.666 42.5 -33.999l103 -187c10.667 -16.667 13 -34.5 7 -53.5s-17.333 -33.167 -34 -42.5c-19.333 -10.667 -38.166 -13 -56.499 -7s-32.166 17.333 -41.499 34
l-103 186c-10.667 18 -13.334 36.167 -8.00098 54.5z" />
    <glyph glyph-name="a" unicode="a" horiz-adv-x="866" 
d="M82 53l284.998 1415c1.33301 5.33301 2.66602 9 3.99902 11v2v2c2.66699 6.66699 6 11.334 10 14.001v4h2v2h2v2h2v2h2c2.66699 2.66699 5.33398 4.83398 8.00098 6.50098s6.33398 3.16699 11.001 4.5v2h2c2.66699 1.33301 5.66699 2 9 2s6.33301 0.666992 9 2h2h4h2
c2.66699 -1.33301 5.83398 -2 9.50098 -2s6.83398 -0.666992 9.50098 -2h2v-2c5.33301 -1.33301 9.33301 -2.83301 12 -4.5s5.33398 -3.83398 8.00098 -6.50098h2v-2h2v-2h2v-2l2 -4c1.33301 -2.66699 3.16602 -5 5.49902 -7s4.16602 -4.33301 5.49902 -7v-2v-2
c1.33301 -1.33301 2 -5 2 -11l286 -1415c4 -19.333 0.666992 -36.833 -10 -52.5s-25 -25.5 -43 -29.5h-12c-15.333 0 -29.5 5.16699 -42.5 15.5s-20.833 23.166 -23.5 38.499l-55 266h-332l-53 -266c-2.66699 -15.333 -10.5 -28.166 -23.5 -38.499
s-27.833 -15.5 -44.5 -15.5h-12c-18 4 -32 14 -42 30s-13 33.333 -9 52zM292.998 423.999h278l-141 692z" />
    <glyph glyph-name="b" unicode="b" horiz-adv-x="991" 
d="M178 63l-0.00195312 1381c0 19.333 6.83301 36.166 20.5 50.499s30.834 21.5 51.501 21.5h2h262c83.333 0 153.666 -42.333 210.999 -127c53.333 -76.667 80 -166.334 80 -269.001c0 -49.333 -6.83301 -97.166 -20.5 -143.499s-33.5 -87.833 -59.5 -124.5
c-8 -12 -17 -23 -27 -33c31.333 -22 60 -51.333 86 -88c57.333 -84.667 86 -185 86 -301c0 -56 -7.5 -109.5 -22.5 -160.5s-36.167 -97.833 -63.5 -140.5c-31.333 -44 -67.166 -78.167 -107.499 -102.5s-82.166 -36.5 -125.499 -36.5h-291
c-1.33301 0 -2.66602 0.666992 -3.99902 2c-1.33301 -1.33301 -3.33301 -2 -6 -2c-20.667 0 -37.834 7.16699 -51.501 21.5s-20.5 31.5 -20.5 51.5zM321.998 135.001l228.998 0.000976562c19.333 0 38.833 6.83301 58.5 20.5s37.834 32.167 54.501 55.5
c20.667 30 36.334 64.167 47.001 102.5s16 77.166 16 116.499c0 40.667 -5.5 80.167 -16.5 118.5s-26.5 71.833 -46.5 100.5c-34 50.667 -71.667 76 -113 76h-229v-590zM321.996 870.002l192 0.00195312c16.667 0 33.834 6.5 51.501 19.5s33.334 30.833 47.001 53.5
s24.834 49 33.501 79s13 62.667 13 98s-4.33301 68.166 -13 98.499s-19.834 56.666 -33.501 78.999s-29.334 40 -47.001 53s-34.834 19.5 -51.501 19.5h-192v-500z" />
    <glyph glyph-name="c" unicode="c" horiz-adv-x="991" 
d="M166 340l0.00488281 37.001v788c0 62.667 9.83301 117.334 29.5 164.001s45.167 85 76.5 115s66.833 52.167 106.5 66.5s79.5 21.5 119.5 21.5c24.667 0 58.5 -4.83301 101.5 -14.5s84.167 -32.167 123.5 -67.5c27.333 -23.333 53.666 -57.5 78.999 -102.5
s38 -105.833 38 -182.5c0 -20.667 -7.16699 -38 -21.5 -52s-31.833 -21 -52.5 -21s-38.167 7.16699 -52.5 21.5s-21.5 31.5 -21.5 51.5c0 50.667 -7.83301 90.667 -23.5 120s-34.334 51.166 -56.001 65.499s-43.167 23.5 -64.5 27.5s-38 6 -50 6
c-23.333 0 -45.666 -4 -66.999 -12s-39.333 -19.667 -54 -35c-42 -38 -63.333 -95.333 -64 -172v-792v-6v-21.5c0 -13 1.5 -28.833 4.5 -47.5s8.16699 -38.5 15.5 -59.5s18.666 -39.833 33.999 -56.5c30 -32.667 74.333 -49 133 -49c61.333 0 107 17 137 51
c15.333 16.667 26.666 34.5 33.999 53.5s12.666 37.333 15.999 55s5 32.834 5 45.501v18c-1.33301 20.667 4.83398 38.5 18.501 53.5s30.834 23.167 51.501 24.5c19.333 1.33301 36.833 -4.83398 52.5 -18.501s24.167 -29.834 25.5 -48.501v-31c0 -18 -3 -40.667 -9 -68
c-12 -76.667 -40.667 -138 -86 -184c-60.667 -65.333 -142.334 -98 -245.001 -98s-183.334 32.667 -242.001 98c-23.333 23.333 -41.833 51.333 -55.5 84s-23.834 68.667 -30.501 108c-4 24.667 -6 46 -6 64z" />
    <glyph glyph-name="d" unicode="d" horiz-adv-x="976" 
d="M176 61v1381c0 19.333 6.83301 36 20.5 50s30.834 21 51.501 21h112h158c40.667 0 80.834 -7.16699 120.501 -21.5s75.334 -36.5 107.001 -66.5s57.334 -68.167 77.001 -114.5s29.5 -100.833 29.5 -163.5v-789c0 -64 -9.83301 -118.833 -29.5 -164.5
s-45.334 -83.834 -77.001 -114.501s-67.334 -53.167 -107.001 -67.5s-79.834 -21.5 -120.501 -21.5h-158h-112c-20.667 0 -37.834 7.16699 -51.501 21.5s-20.5 30.833 -20.5 49.5zM319 135.001h40.999h158c50.667 0 93 15.667 127 47c42 39.333 63.333 98 64 176v789
c0 75.333 -21.333 134 -64 176c-35.333 31.333 -77.666 47 -126.999 47h-158h-41v-1235z" />
    <glyph glyph-name="e" unicode="e" horiz-adv-x="974" 
d="M158 61v1381c0 19.333 7.16699 36 21.5 50s31.5 21 51.5 21h543c20.667 0 38.167 -7.16699 52.5 -21.5s21.5 -30.833 21.5 -49.5c0 -20.667 -7.16699 -38.167 -21.5 -52.5s-31.833 -21.5 -52.5 -21.5h-471v-629h354c20.667 0 37.834 -7.16699 51.501 -21.5
s20.5 -31.5 20.5 -51.5c0 -19.333 -6.83301 -36.166 -20.5 -50.499s-30.834 -21.5 -51.501 -21.5h-354v-459h471c20.667 0 38.167 -7.16699 52.5 -21.5s21.5 -31.833 21.5 -52.5c0 -19.333 -7.16699 -36 -21.5 -50s-31.833 -21 -52.5 -21h-543
c-20.667 0 -38 7.16699 -52 21.5s-21 30.833 -21 49.5z" />
    <glyph glyph-name="f" unicode="f" horiz-adv-x="870" 
d="M180 61l-0.000976562 1381c0 19.333 7.16699 36 21.5 50s31.833 21 52.5 21h491c20.667 0 38.167 -7.16699 52.5 -21.5s21.5 -30.833 21.5 -49.5c0 -20.667 -7.16699 -38.167 -21.5 -52.5s-31.833 -21.5 -52.5 -21.5h-419v-629h303c20.667 0 37.667 -7.16699 51 -21.5
s20 -31.5 20 -51.5c0 -19.333 -6.83301 -36.166 -20.5 -50.499s-30.5 -21.5 -50.5 -21.5h-303v-533c0 -19.333 -7.16699 -36 -21.5 -50s-31.166 -21 -50.499 -21c-20.667 0 -38.167 7.16699 -52.5 21.5s-21.5 30.833 -21.5 49.5z" />
    <glyph glyph-name="g" unicode="g" horiz-adv-x="976" 
d="M142 325.5c-0.666992 17.667 -0.331055 29.832 1.00195 36.499v803c0 62.667 10 117.334 30 164.001s45.667 85 77 115s66.833 52.167 106.5 66.5s79.834 21.5 120.501 21.5c87.333 0 161.666 -27.333 222.999 -82c26 -23.333 51 -57.833 75 -103.5
s36 -106.834 36 -183.501c0 -19.333 -7.16699 -36 -21.5 -50s-31.166 -21 -50.499 -21c-20.667 0 -38 7.16699 -52 21.5s-21 30.833 -21 49.5c0 52 -8 93 -24 123s-34.167 52.5 -54.5 67.5s-41 24.667 -62 29s-37.167 6.5 -48.5 6.5c-49.333 0 -91.666 -16 -126.999 -48
c-42 -39.333 -63 -98 -63 -176v-809v-2v-21.5c0 -13 1.33301 -29 4 -48s7.66699 -39.5 15 -61.5s19.333 -41 36 -57c30 -32.667 75 -49 135 -49c64 0 111 17 141 51c15.333 16.667 27.166 35.167 35.499 55.5s14.166 39.333 17.499 57s5 32.834 5 45.501v18v2v260h-144
c-20.667 0 -38 7.16699 -52 21.5s-21 31.833 -21 52.5c0 19.333 7.16699 36.166 21.5 50.499s31.5 21.5 51.5 21.5h287v-402c1.33301 -5.33301 1.66602 -16.833 0.999023 -34.5s-3 -38.167 -7 -61.5c-15.333 -75.333 -44.666 -136.666 -87.999 -183.999
c-61.333 -66 -144 -99 -248 -99s-184.333 33 -241 99c-46.667 48 -76.334 112.667 -89.001 194c-2.66699 23.333 -4.33398 43.833 -5.00098 61.5z" />
    <glyph glyph-name="h" unicode="h" horiz-adv-x="1040" 
d="M160 61v1381c0 19.333 7.16699 36 21.5 50s30.833 21 49.5 21c20.667 0 38.167 -7.16699 52.5 -21.5s21.5 -30.833 21.5 -49.5v-703h430v703c0 19.333 7.16699 36 21.5 50s31.833 21 52.5 21c19.333 0 36.166 -7.16699 50.499 -21.5s21.5 -30.833 21.5 -49.5v-1381
c0 -19.333 -7.16699 -36 -21.5 -50s-31.166 -21 -50.499 -21c-20.667 0 -38.167 7.16699 -52.5 21.5s-21.5 30.833 -21.5 49.5v533h-430v-533c0 -19.333 -7.16699 -36 -21.5 -50s-31.833 -21 -52.5 -21c-19.333 0 -36 7.16699 -50 21.5s-21 30.833 -21 49.5z" />
    <glyph glyph-name="i" unicode="i" horiz-adv-x="583" 
d="M207 61v1381c0 19.333 6.83301 36 20.5 50s30.834 21 51.501 21c19.333 0 36 -7.16699 50 -21.5s21 -30.833 21 -49.5v-1381c0 -19.333 -7 -36 -21 -50s-30.667 -21 -50 -21c-20.667 0 -37.834 7.16699 -51.501 21.5s-20.5 30.833 -20.5 49.5z" />
    <glyph glyph-name="j" unicode="j" horiz-adv-x="1009" 
d="M167 334c0.666992 18.667 1.00293 29.665 1.00293 32.998c2.66699 16.667 6.66699 31.667 12 45c5.33301 10.667 13.166 20.5 23.499 29.5s25.166 12.167 44.499 9.5s33.333 -9.16699 42 -19.5s14.334 -21.166 17.001 -32.499c4 -13.333 5.33301 -28.333 4 -45
c-0.666992 -6 -1 -11.667 -1 -17c0 -18 1.66699 -35.333 5 -52c2.66699 -19.333 7.83398 -40 15.501 -62s19.834 -41 36.501 -57c30 -34 75 -51 135 -51s107 17 141 51c15.333 16.667 27 34.834 35 54.501s13.667 38.334 17 56.001s5 33 5 46v21.5v4v1094
c0 19.333 7.16699 36 21.5 50s31.166 21 50.499 21c20.667 0 38.167 -7.16699 52.5 -21.5s21.5 -30.833 21.5 -49.5l-2 -1092c1.33301 -5.33301 1.66602 -16.833 0.999023 -34.5s-3 -38.167 -7 -61.5c-6.66699 -36.667 -17.334 -71.167 -32.001 -103.5
s-33.334 -59.833 -56.001 -82.5c-61.333 -64.667 -144 -97 -248 -97s-184.667 32.333 -242 97c-46.667 50.667 -76 116 -88 196c-3.33301 23.333 -5 43.666 -5 60.999v9z" />
    <glyph glyph-name="k" unicode="k" horiz-adv-x="1040" 
d="M176 70v439.999v2v932c0 20.667 7.16699 38.167 21.5 52.5s31.166 21.5 50.499 21.5c20.667 0 38.167 -7.16699 52.5 -21.5s21.5 -31.833 21.5 -52.5v-678l438 713c10.667 18 25.667 29.333 45 34s37.666 1.33398 54.999 -9.99902
c16.667 -10.667 27.334 -25.5 32.001 -44.5s1.66699 -37.5 -9 -55.5l-322 -522l391 -772c9.33301 -18 11 -36.167 5 -54.5s-17.667 -32.5 -35 -42.5c-9.33301 -5.33301 -20.333 -8 -33 -8c-13.333 0 -25.833 3.5 -37.5 10.5s-21.167 16.5 -28.5 28.5l-350 694l-151 -248
v-419c0 -20.667 -7.16699 -37.834 -21.5 -51.501s-31.833 -20.5 -52.5 -20.5c-19.333 0 -36.166 6.83301 -50.499 20.5s-21.5 30.834 -21.5 51.501z" />
    <glyph glyph-name="l" unicode="l" horiz-adv-x="856" 
d="M109 61l-0.000976562 1381c0 19.333 7.16699 36 21.5 50s30.833 21 49.5 21c20.667 0 37.834 -7.16699 51.501 -21.5s20.5 -30.833 20.5 -49.5v-1307h473c19.333 0 36.166 -7.16699 50.499 -21.5s21.5 -31.833 21.5 -52.5c0 -19.333 -7.16699 -36 -21.5 -50
s-31.166 -21 -50.499 -21h-545c-19.333 0 -36 7.16699 -50 21.5s-21 30.833 -21 49.5z" />
    <glyph glyph-name="m" unicode="m" horiz-adv-x="1167" 
d="M139 61v1381v4v2v2c1.33301 0 2 0.666992 2 2v2v4c1.33301 2.66699 3.33301 8.33398 6 17.001l3 2v2l2 2v2c1.33301 0 2 0.666992 2 2c2.66699 2.66699 4.33398 4.66699 5.00098 6s2.33398 2.66602 5.00098 3.99902l2 2c0 1.33301 0.666992 2 2 2h2v2h2
c0 1.33301 0.666992 2 2 2h2v2h2h2c0 1.33301 0.666992 2 2 2s2 0.333008 2 1s0.666992 1 2 1h2l2 2h3h2h2c0 1.33301 0.666992 2 2 2h2h4h4h2h2h2h2h2h2h2h2l2 -2c5.33301 0 11 -1.33301 17 -4c1.33301 -1.33301 2.66602 -2 3.99902 -2c0 -1.33301 0.666992 -2 2 -2l2 -2
c1.33301 0 2.66602 -0.666992 3.99902 -2c4 -4 7.33301 -6.66699 10 -8c0 -1.33301 0.666992 -2 2 -2v-2l2 -2v-2c1.33301 0 2 -0.666992 2 -2l2 -2v-2l2 -2l310 -607l309 607v2l2 2v2h2v2l2 2c0 1.33301 0.666992 2 2 2v2c5.33301 5.33301 9.33301 8.66602 12 9.99902
c0 1.33301 1 2 3 2h2c0 1.33301 0.666992 2 2 2v2h2h2c0 1.33301 0.666992 2 2 2c1.33301 1.33301 3 2 5 2s4.33301 0.666992 7 2h2h2c0 1.33301 0.666992 2 2 2h2h2h2h2h4h5h4h2h2h2v-2h2h2h2h2v-2h4l2 -2h2l2 -2h4v-2h2v-2h2l2 -2c1.33301 0 2.33301 -0.666992 3 -2h2
l2 -2c2.66699 -1.33301 5.33398 -4.66602 8.00098 -9.99902c1.33301 0 2 -0.666992 2 -2l2 -2v-2l2 -2l2 -2c2.66699 -5.33301 4 -10.333 4 -15v-2h2v-4v-2v-2v-2v-2v-4v-1381c0 -19.333 -6.83301 -36 -20.5 -50s-30.834 -21 -51.501 -21c-19.333 0 -36 7.16699 -50 21.5
s-21 30.833 -21 49.5v1080l-234 -457c-6.66699 -19.333 -18.334 -33 -35.001 -41c-13.333 -5.33301 -24 -8 -32 -8c-6.66699 0 -12.5 0.666992 -17.5 2s-10.167 3.33301 -15.5 6c-18 8 -30.333 21.667 -37 41l-231 457v-1080c0 -19.333 -7.16699 -36 -21.5 -50
s-31.166 -21 -50.499 -21c-20.667 0 -38.167 7.16699 -52.5 21.5s-21.5 30.833 -21.5 49.5z" />
    <glyph glyph-name="n" unicode="n" horiz-adv-x="1038" 
d="M158 68l0.00195312 1378v4v2v2v2v2v2h2v4v2v2l2 2v5c1.33301 0 2 0.666992 2 2s0.333008 2 1 2s1 0.666992 1 2v2h2v2c0 1.33301 0.666992 2 2 2v2l2 2l2 2c0 1.33301 0.666992 2 2 2c0 1.33301 0.333008 2 1 2s1 0.666992 1 2c1.33301 0 2 0.666992 2 2h2l2 2l2 2
c1.33301 0 2 0.666992 2 2h2l3 2h2l2 2h2c2.66699 2.66699 5.33398 4.16699 8.00098 4.5s5.33398 1.16602 8.00098 2.49902h2c2.66699 1.33301 8 2 16 2h5h2c1.33301 0 2 -0.666992 2 -2h2h2h4c1.33301 -1.33301 2.66602 -2 3.99902 -2l2 -3h4l2 -2
c1.33301 0 2.66602 -0.666992 3.99902 -2h2c0 -1.33301 0.666992 -2 2 -2l2 -2h2v-2h2c0 -1.33301 1 -2 3 -2c0 -1.33301 0.666992 -2 2 -2c1.33301 -1.33301 2 -2.66602 2 -3.99902c1.33301 0 2 -0.666992 2 -2h2v-2h2v-2c0 -1.33301 0.666992 -2 2 -2v-2l2 -2
c0 -1.33301 0.333008 -2 1 -2s1 -0.666992 1 -2l2 -4l459 -1059v1032c0 19.333 6.83301 36.166 20.5 50.499s30.5 21.5 50.5 21.5c19.333 0 36.166 -7.16699 50.499 -21.5s21.5 -31.166 21.5 -50.499v-1378v-7v-2v-2v-2v-2l-2 -2v-2v-4l-2 -2v-4
c-1.33301 0 -2 -0.666992 -2 -2v-2l-2 -2v-2c-1.33301 0 -2 -0.666992 -2 -2v-2h-2v-2l-2 -2c0 -1.33301 -0.666992 -2 -2 -2c0 -1.33301 -0.333008 -2.16602 -1 -2.49902s-1 -1.16602 -1 -2.49902l-2 -2c-1.33301 0 -2 -0.666992 -2 -2h-3l-2 -2
c0 -1.33301 -0.666992 -2 -2 -2l-2 -2h-2c0 -1.33301 -0.666992 -2 -2 -2h-2v-2h-2l-2 -2c-5.33301 -2.66699 -10.666 -4 -15.999 -4c-2.66699 -1.33301 -7.66699 -2 -15 -2h-2h-2h-2h-4c-2.66699 0 -4.66699 0.666992 -6 2h-4c-2.66699 1.33301 -4.33398 2 -5.00098 2
s-2.33398 0.666992 -5.00098 2c-1.33301 1.33301 -2.66602 2 -3.99902 2s-3 0.666992 -5 2l-2 2l-2 2h-2c0 1.33301 -0.666992 2 -2 2l-2 2l-2 2l-2 2l-2 2c-1.33301 1.33301 -2 3 -2 5c-1.33301 0 -2 0.666992 -2 2l-2 2c-1.33301 1.33301 -2 3.33301 -2 6
c-1.33301 1.33301 -2 2.33301 -2 3s-0.666992 1.66699 -2 3l-459 1057v-1030c0 -19.333 -6.83301 -36.166 -20.5 -50.499s-30.834 -21.5 -51.501 -21.5c-19.333 0 -36 7.16699 -50 21.5s-21 31.166 -21 50.499z" />
    <glyph glyph-name="o" unicode="o" horiz-adv-x="927" 
d="M129 321.5c0 17.667 0.665039 29.8301 1.99805 36.4971v801c0 62.667 9.83301 117.334 29.5 164.001s45.334 85.334 77.001 116.001s67.167 53.167 106.5 67.5s79.666 21.5 120.999 21.5c24.667 0 58.167 -4.83301 100.5 -14.5s83.833 -32.167 124.5 -67.5
c13.333 -12 27 -26.333 41 -43s26.333 -36.834 37 -60.501s19.834 -50.5 27.501 -80.5s11.5 -64.333 11.5 -103v-815v-33.5c0 -17 -2 -37.167 -6 -60.5c-13.333 -75.333 -42.666 -137.666 -87.999 -186.999c-61.333 -65.333 -144 -98 -248 -98s-185.333 32.667 -244 98
c-45.333 49.333 -74 114.333 -86 195c-4 24.667 -6 45.834 -6 63.501zM273.998 327.496c0 -13.667 1.50293 -30.002 4.50293 -49.002s8.16699 -39.5 15.5 -61.5s19.333 -41 36 -57c30 -32.667 75 -49 135 -49c61.333 0 108.333 17 141 51c15.333 16.667 27 34.834 35 54.501
s13.833 38.334 17.5 56.001s5.5 32.667 5.5 45v20.5v4v817c0 52 -8.33301 92.667 -25 122s-35.834 51.5 -57.501 66.5s-43.834 24.5 -66.501 28.5s-39.334 6 -50.001 6c-50.667 0 -93 -15.667 -127 -47c-42 -39.333 -63.333 -98 -64 -176v-803v-6v-22.5z" />
    <glyph glyph-name="p" unicode="p" horiz-adv-x="976" 
d="M147 61l0.000976562 1379c0 28.667 12.333 49.667 37 63c9.33301 8 21.666 12.333 36.999 13h301c44 0 86.167 -13.333 126.5 -40s76.166 -64 107.499 -112c27.333 -44 48.5 -92.5 63.5 -145.5s22.5 -106.833 22.5 -161.5c0 -56 -7.5 -110.667 -22.5 -164
s-36.167 -101.666 -63.5 -144.999c-31.333 -48 -67.166 -85 -107.499 -111s-82.5 -39 -126.5 -39h-231v-537c0 -20.667 -6.83301 -37.667 -20.5 -51s-30.834 -20 -51.501 -20c-19.333 0 -36.166 6.83301 -50.499 20.5s-21.5 30.5 -21.5 50.5zM291.001 740.999
l231 0.00390625c18 0 36.833 7.16699 56.5 21.5s37.834 35.166 54.501 62.499c20.667 31.333 36.334 67.166 47.001 107.499s16 81.833 16 124.5c0 40.667 -5.33301 81.167 -16 121.5s-26.334 76.166 -47.001 107.499c-16.667 27.333 -34.834 48.166 -54.501 62.499
s-38.5 21.5 -56.5 21.5h-231v-629z" />
    <glyph glyph-name="q" unicode="q" horiz-adv-x="1024" 
d="M184 325.5c0 17.667 0.666992 29.8311 2 36.498v801c0 62.667 10 117.334 30 164.001s45.667 85.334 77 116.001s66.833 53.167 106.5 67.5s79.167 21.5 118.5 21.5c26 0 60.167 -4.83301 102.5 -14.5s83.833 -32.167 124.5 -67.5c13.333 -12 27 -26.333 41 -43
s26.5 -36.834 37.5 -60.501s20.167 -50.5 27.5 -80.5s11 -64.333 11 -103v-815v-33.5c0 -17 -2 -37.167 -6 -60.5c-12 -62.667 -35.333 -118 -70 -166l84 -96c13.333 -15.333 19.166 -32.833 17.499 -52.5s-10.167 -36.5 -25.5 -50.5c-13.333 -10.667 -29 -16 -47 -16
c-23.333 0 -41.666 8.33301 -54.999 25l-88 102c-45.333 -20.667 -96 -31 -152 -31c-104 0 -185.333 33 -244 99c-45.333 49.333 -74 114 -86 194c-4 24.667 -6 45.834 -6 63.501zM330 331.497c0 -13.667 1.33594 -30.001 4.00293 -49.001s7.66699 -39.333 15 -61
s19.333 -40.834 36 -57.501c30 -32.667 75 -49 135 -49c61.333 0 108.666 17 141.999 51c15.333 16.667 27 34.834 35 54.501s13.667 38.334 17 56.001s5 32.667 5 45v20.5v6v815c0 52 -8.16699 92.667 -24.5 122s-35.833 51.5 -58.5 66.5s-44.834 24.5 -66.501 28.5
s-38.834 6 -51.501 6c-49.333 0 -91 -15.667 -125 -47c-42 -39.333 -63 -98 -63 -176v-803v-6v-22.5z" />
    <glyph glyph-name="r" unicode="r" horiz-adv-x="1005" 
d="M162 61l0.000976562 1379c0 20.667 7.16699 38 21.5 52s30.833 21 49.5 21h306c44 0 86 -13.167 126 -39.5s75.667 -63.5 107 -111.5c27.333 -44 48.5 -92.5 63.5 -145.5s22.5 -106.833 22.5 -161.5c0 -56 -7.5 -110.667 -22.5 -164s-36.167 -102 -63.5 -146
c-34 -52 -70.667 -89.333 -110 -112l237 -543c8 -19.333 8.66699 -38.166 2 -56.499s-19.667 -30.833 -39 -37.5c-5.33301 -2.66699 -10.333 -4.33398 -15 -5.00098s-9 -1 -13 -1c-15.333 0 -28.833 3.33301 -40.5 10s-20.834 17.667 -27.501 33l-246 563h-213v-535
c0 -20.667 -7.16699 -37.667 -21.5 -51s-31.833 -20 -52.5 -20c-19.333 0 -36 6.83301 -50 20.5s-21 30.5 -21 50.5zM307.001 739l232.001 0.00292969c18 0 36.833 7.5 56.5 22.5s37.5 35.5 53.5 61.5c20.667 31.333 36.834 67.166 48.501 107.499s17.5 81.833 17.5 124.5
c0 40.667 -5.83301 81.167 -17.5 121.5s-27.834 76.166 -48.501 107.499c-16.667 27.333 -34.834 48.166 -54.501 62.499s-38.167 21.5 -55.5 21.5h-232v-629z" />
    <glyph glyph-name="s" unicode="s" horiz-adv-x="958" 
d="M127 344c0 20.667 7.16211 37.832 21.4951 51.499s31.833 20.5 52.5 20.5c19.333 0 35.666 -6.83301 48.999 -20.5s20 -30.834 20 -51.501c0 -45.333 6.5 -82.333 19.5 -111s29.833 -50.834 50.5 -66.501s43.5 -26.5 68.5 -32.5s49.833 -9 74.5 -9
c13.333 0 32.833 1.66699 58.5 5s50.667 12.5 75 27.5s45.833 36.833 64.5 65.5s28 69 28 121c0 50.667 -7.16699 95.167 -21.5 133.5s-34.166 72.5 -59.499 102.5s-54.333 57.5 -87 82.5s-67.667 50.5 -105 76.5l-99 74c-33.333 26 -63.666 54.667 -90.999 86
c-64 75.333 -97 162 -99 260c0 5.33301 0.5 16.333 1.5 33s3.5 35.667 7.5 57c12 69.333 39.333 127.333 82 174c61.333 64 143.666 96.333 246.999 97c105.333 0 186.666 -32.333 243.999 -97c20.667 -23.333 37.167 -50 49.5 -80s19.833 -62.667 22.5 -98
c2.66699 -24.667 3.66699 -45.5 3 -62.5s-1.66699 -26.833 -3 -29.5c-4 -18 -9 -33.667 -15 -47c-6.66699 -10.667 -14.667 -20.167 -24 -28.5s-23.666 -11.166 -42.999 -8.49902s-33 9.83398 -41 21.501s-13.333 23.5 -16 35.5c-4 15.333 -5 31.333 -3 48
c2.66699 19.333 2.66699 37.666 0 54.999c-2.66699 15.333 -6.66699 32.166 -12 50.499s-14 34.833 -26 49.5c-27.333 32.667 -72.666 49 -135.999 49c-62.667 0 -109.667 -17.667 -141 -53c-15.333 -15.333 -26.666 -32.5 -33.999 -51.5s-12.333 -35.833 -15 -50.5
c-4 -19.333 -5.33301 -38 -4 -56v-6c0 -34 5.5 -64.667 16.5 -92s26.333 -52.666 46 -75.999s43.5 -46.166 71.5 -68.499l95 -72.5c39.333 -26 77.833 -53.667 115.5 -83s72.834 -63.666 105.501 -102.999c74 -90 111 -197.333 111 -322
c0 -62.667 -10.667 -116.834 -32 -162.501s-49.333 -83.167 -84 -112.5s-74.167 -51.166 -118.5 -65.499s-89.166 -21.5 -134.499 -21.5c-95.333 0 -175.666 27 -240.999 81c-26 22 -51.667 55.167 -77 99.5s-38 104.833 -38 181.5z" />
    <glyph glyph-name="t" unicode="t" horiz-adv-x="911" 
d="M82 1440c0 20.667 7.16797 38 21.501 52s31.833 21 52.5 21h643c19.333 0 36 -7.16699 50 -21.5s21 -31.5 21 -51.5c0 -19.333 -7.16699 -36.166 -21.5 -50.499s-30.833 -21.5 -49.5 -21.5h-248v-1307c0 -20.667 -6.83301 -37.667 -20.5 -51s-30.834 -20 -51.501 -20
c-19.333 0 -36 6.83301 -50 20.5s-21 30.5 -21 50.5v1307h-252c-20.667 0 -38.167 7.16699 -52.5 21.5s-21.5 31.166 -21.5 50.499z" />
    <glyph glyph-name="u" unicode="u" horiz-adv-x="1001" 
d="M158 325.5l0.00195312 36.498v1080c0 19.333 7.16699 36 21.5 50s30.833 21 49.5 21c20.667 0 38.167 -7.16699 52.5 -21.5s21.5 -30.833 21.5 -49.5v-1082v-6c0 -1.33301 -0.333008 -8.83301 -1 -22.5s0.666016 -30 3.99902 -49s8.83301 -39.5 16.5 -61.5
s18.834 -41 33.501 -57c30 -32.667 75.333 -49 136 -49c62.667 0 110.334 17 143.001 51c15.333 16.667 27 34.834 35 54.501s13.333 39.167 16 58.5c4 20.667 5.33301 41.667 4 63v6v1092c0 20.667 7.16699 38 21.5 52s31.833 21 52.5 21
c19.333 0 36.166 -7.16699 50.499 -21.5s21.5 -31.5 21.5 -51.5v-1092c0 -5.33301 -0.333008 -16.5 -1 -33.5s-3.33398 -37.167 -8.00098 -60.5c-12 -75.333 -41.333 -137.333 -88 -186c-59.333 -66 -141.666 -99 -246.999 -99c-102.667 0 -183.334 33 -242.001 99
c-46.667 52 -75.334 116.667 -86.001 194c-4 24.667 -6 45.834 -6 63.501z" />
    <glyph glyph-name="v" unicode="v" horiz-adv-x="927" 
d="M109 1425c-4 19.333 -0.665039 37.501 10.002 54.501s25.667 27.5 45 31.5s37.5 0.333008 54.5 -11s27.5 -26.666 31.5 -45.999l211 -1038l211 1038c4 19.333 14.167 34.666 30.5 45.999s34.166 15 53.499 11c20.667 -4 36.334 -14.5 47.001 -31.5s14 -35.167 10 -54.5
l-276 -1366c-4 -16.667 -13 -30.334 -27 -41.001s-29 -16 -45 -16h-4h-6c-16.667 0 -31.834 5.5 -45.501 16.5s-21.834 24.5 -24.501 40.5z" />
    <glyph glyph-name="w" unicode="w" horiz-adv-x="1255" 
d="M133 1432c-2.66699 19.333 2.16211 36.668 14.4951 52.001s28.833 24.333 49.5 27c19.333 2.66699 36.666 -2 51.999 -14s24.333 -27.667 27 -47l111 -1061l162 574l2 2v2c0 1.33301 0.666992 2 2 2v2v2l4 4v2l2 2l2 2c0 1.33301 0.666992 2 2 2v2h2v2l2 2
c1.33301 0 2 0.666992 2 2h2v2l2 2c2.66699 2.66699 5.83398 4.5 9.50098 5.5s6.83398 2.83301 9.50098 5.5h4l2 2h2h2h2h2v2h2h2h2h2h2h2h3h2h2h2h2l2 -2h2h4c1.33301 0 2 -0.333008 2 -1s0.666992 -1 2 -1h4c2.66699 -2.66699 5.33398 -4.5 8.00098 -5.5
s5.66699 -2.83301 9 -5.5l2 -2c1.33301 0 2 -0.666992 2 -2h2v-2h2v-2c1.33301 0 2 -0.666992 2 -2h2v-2l2 -2l2 -2c0 -1.33301 0.666992 -2 2 -2v-2v-2h2v-2v-2c1.33301 0 2 -0.666992 2 -2l2 -2v-2v-2l168 -574l127 1061c2.66699 19.333 11.834 35.166 27.501 47.499
s33.167 16.833 52.5 13.5c19.333 -2.66699 35.333 -11.834 48 -27.501s17.667 -32.834 15 -51.501l-149 -1379c-1.33301 -1.33301 -2 -3.33301 -2 -6v-2v-2l-2 -2v-2c0 -1.33301 -0.666992 -2.66602 -2 -3.99902c0 -2.66699 -1.33301 -5.33398 -4 -8.00098
c0 -1.33301 -0.666992 -2.66602 -2 -3.99902v-3h-2v-2l-3 -2v-2h-2v-2c-5.33301 -5.33301 -10 -8.66602 -14 -9.99902c0 -1.33301 -0.666992 -2 -2 -2l-2 -2h-2l-2 -2h-2c-4 -1.33301 -8.66699 -3.33301 -14 -6h-3h-2h-2h-2h-4h-4h-4h-2h-2h-2
c-2.66699 0 -4.66699 0.666992 -6 2h-4c-5.33301 1.33301 -11 4 -17 8c-1.33301 1.33301 -2.66602 2.33301 -3.99902 3s-2.66602 1.66699 -3.99902 3l-4 4h-2l-2 2v2c-1.33301 0 -2 0.333008 -2 1s-0.666992 1 -2 1v2c0 1.33301 -0.333008 2 -1 2s-1 1 -1 3h-2
c0 2.66699 -0.666992 4 -2 4v2l-2 4c0 1.33301 -0.333008 2.33301 -1 3s-1 1.66699 -1 3l-216 670l-215 -670c-1.33301 -1.33301 -2 -3.33301 -2 -6h-2c0 -2.66699 -0.666992 -4 -2 -4v-2l-2 -4c-1.33301 -1.33301 -2 -3 -2 -5c-1.33301 0 -2 -0.666992 -2 -2l-2 -2l-2 -2
l-2 -2l-4 -4h-2c-2.66699 -2.66699 -5.33398 -4.66699 -8.00098 -6c-4 -4 -9 -6.66699 -15 -8h-4h-2c-1.33301 -1.33301 -2.66602 -2 -3.99902 -2h-2h-2h-4h-2h-2h-4h-2h-2h-2h-2h-3c-4 1.33301 -8.66699 3.33301 -14 6h-2h-2v2h-2l-2 2c-1.33301 0 -2 0.666992 -2 2h-2
c-2.66699 1.33301 -6 4 -10 8v2h-2c0 1.33301 -0.666992 2 -2 2c0 1.33301 -1 2 -3 2v2l-2 2l-2 3l-6 12v4c-1.33301 0 -2 0.666992 -2 2v2v2v2c-1.33301 1.33301 -2 3.33301 -2 6z" />
    <glyph glyph-name="x" unicode="x" horiz-adv-x="976" 
d="M143 88l217.001 563l48 119l-244 631c-6.66699 19.333 -6.33398 38.166 0.999023 56.499s20.666 30.833 39.999 37.5s38.166 6.33398 56.499 -0.999023s30.833 -20.666 37.5 -39.999l184 -481l187 481c6.66699 19.333 18.834 32.666 36.501 39.999
s36.167 7.66602 55.5 0.999023s33 -19.167 41 -37.5s8.66699 -37.166 2 -56.499l-244 -631l264 -682c6.66699 -19.333 6 -38.166 -2 -56.499s-21.667 -30.833 -41 -37.5c-5.33301 -2.66699 -13.333 -4 -24 -4c-15.333 0 -29.166 3.66699 -41.499 11
s-21.166 18.666 -26.499 33.999l-207 534l-204 -534c-5.33301 -15.333 -14.333 -26.666 -27 -33.999s-26.334 -11 -41.001 -11c-10.667 0 -19 1.33301 -25 4c-19.333 6.66699 -33 19.167 -41 37.5s-8.66699 37.166 -2 56.499z" />
    <glyph glyph-name="y" unicode="y" horiz-adv-x="913" 
d="M127 1413c-6.66699 19.333 -6.33105 37.833 1.00195 55.5s20.666 29.834 39.999 36.501c19.333 8 38.166 8.33301 56.499 1s30.833 -20.666 37.5 -39.999l197 -499l196 499c6.66699 19.333 19.334 32.666 38.001 39.999s37.667 7 57 -1
c19.333 -6.66699 32.666 -18.834 39.999 -36.501s7.66602 -36.167 0.999023 -55.5l-261 -655v-697c0 -20.667 -6.83301 -37.667 -20.5 -51s-30.5 -20 -50.5 -20c-19.333 0 -36.166 6.83301 -50.499 20.5s-21.5 30.5 -21.5 50.5v697z" />
    <glyph glyph-name="z" unicode="z" horiz-adv-x="976" 
d="M136 36.5c-7.33301 17.667 -6.99902 36.165 1.00098 55.498l502 1276h-350c-19.333 0 -36.166 7.16699 -50.499 21.5s-21.5 31.166 -21.5 50.499c0 20.667 7.16699 38 21.5 52s31.166 21 50.499 21h456h5h4c0 -1.33301 0.666992 -2 2 -2h2h2h2
c1.33301 0 2.66602 -0.666992 3.99902 -2h2h2l2 -2h4c0 -1.33301 0.666992 -2 2 -2h2l2 -2l2 -2h2l2 -2c5.33301 -4 9.66602 -8 12.999 -12l2 -2l2 -2v-2c1.33301 0 2 -0.666992 2 -2l2 -2c1.33301 -2.66699 2.33301 -5.5 3 -8.5s1.66699 -5.83301 3 -8.5
c0 -1.33301 0.666992 -2.66602 2 -3.99902v-2v-2v-2v-2v-4v-2v-2v-2v-4v-4v-3v-2v-2c-1.33301 0 -2 -0.666992 -2 -2v-4c-1.33301 0 -2 -0.666992 -2 -2l-506 -1282h438c20.667 0 37.834 -7.16699 51.501 -21.5s20.5 -31.166 20.5 -50.499c0 -20.667 -6.83301 -38 -20.5 -52
s-30.834 -21 -51.501 -21h-530c-16.667 0 -29.667 4 -39 12c-19.333 6.66699 -32.666 18.834 -39.999 36.501z" />
    <glyph glyph-name="braceleft" unicode="{" 
 />
    <glyph glyph-name="bar" unicode="|" 
 />
    <glyph glyph-name="braceright" unicode="}" 
 />
    <glyph glyph-name="asciitilde" unicode="~" 
 />
    <glyph glyph-name="uni00A0" unicode="&#xa0;" horiz-adv-x="1024" 
 />
    <glyph glyph-name="uni00AD" unicode="&#xad;" 
d="M559 684c0 19.333 7.16699 36.166 21.5 50.499s31.166 21.5 50.499 21.5h418c19.333 0 36 -7.16699 50 -21.5s21 -31.166 21 -50.499c0 -20.667 -7 -37.834 -21 -51.501s-30.667 -20.5 -50 -20.5h-418c-19.333 0 -36.166 6.83301 -50.499 20.5s-21.5 30.834 -21.5 51.501
z" />
    <glyph glyph-name="OE" unicode="&#x152;" horiz-adv-x="1497" 
 />
    <glyph glyph-name="circumflex" unicode="&#x2c6;" 
 />
    <glyph glyph-name="tilde" unicode="&#x2dc;" horiz-adv-x="765" 
d="M82 1211.5c1.33301 11.667 8.00195 23.5 20.002 35.5c10.667 10.667 22 17.5 34 20.5s22.667 3.16699 32 0.5c10.667 -2.66699 21.667 -7.66699 33 -15c1.33301 -2.66699 4.66602 -5.33398 9.99902 -8.00098c2.66699 -2.66699 6.66699 -5 12 -7
s11.666 -3.66699 18.999 -5c32.667 -8 68 1 106 27c48 32.667 91.5 50.334 130.5 53.001s71.167 0 96.5 -8c28.667 -8 51 -18.333 67 -31s25.333 -21 28 -25c5.33301 -8 8.66602 -16.667 9.99902 -26c1.33301 -8 1 -17.5 -1 -28.5s-8.66699 -22.167 -20 -33.5
c-10.667 -12 -21.167 -19.333 -31.5 -22s-20.166 -2.66699 -29.499 0c-10.667 2.66699 -21.667 6.66699 -33 12h2c-2.66699 1.33301 -6 3.33301 -10 6s-13 6.66699 -27 12c-31.333 6.66699 -64.666 -2 -99.999 -26c-31.333 -22 -60.666 -36.833 -87.999 -44.5
s-52.666 -11.5 -75.999 -11.5c-13.333 0 -25.5 0.833008 -36.5 2.5s-21.167 3.83398 -30.5 6.50098c-28.667 8 -51.334 18.167 -68.001 30.5s-26.334 19.833 -29.001 22.5c-8 9.33301 -14 19.666 -18 30.999c-2.66699 9.33301 -3.33398 19.833 -2.00098 31.5z" />
    <glyph glyph-name="uni2000" unicode="&#x2000;" horiz-adv-x="839" 
 />
    <glyph glyph-name="uni2001" unicode="&#x2001;" horiz-adv-x="1679" 
 />
    <glyph glyph-name="uni2002" unicode="&#x2002;" horiz-adv-x="839" 
 />
    <glyph glyph-name="uni2003" unicode="&#x2003;" horiz-adv-x="1679" 
 />
    <glyph glyph-name="uni2004" unicode="&#x2004;" horiz-adv-x="559" 
 />
    <glyph glyph-name="uni2005" unicode="&#x2005;" horiz-adv-x="419" 
 />
    <glyph glyph-name="uni2006" unicode="&#x2006;" horiz-adv-x="279" 
 />
    <glyph glyph-name="uni2007" unicode="&#x2007;" horiz-adv-x="279" 
 />
    <glyph glyph-name="uni2008" unicode="&#x2008;" horiz-adv-x="209" 
 />
    <glyph glyph-name="uni2009" unicode="&#x2009;" horiz-adv-x="335" 
 />
    <glyph glyph-name="uni200A" unicode="&#x200a;" horiz-adv-x="93" 
 />
    <glyph glyph-name="uni2010" unicode="&#x2010;" 
d="M559 684c0 19.333 7.16699 36.166 21.5 50.499s31.166 21.5 50.499 21.5h418c19.333 0 36 -7.16699 50 -21.5s21 -31.166 21 -50.499c0 -20.667 -7 -37.834 -21 -51.501s-30.667 -20.5 -50 -20.5h-418c-19.333 0 -36.166 6.83301 -50.499 20.5s-21.5 30.834 -21.5 51.501
z" />
    <glyph glyph-name="uni2011" unicode="&#x2011;" 
d="M559 684c0 19.333 7.16699 36.166 21.5 50.499s31.166 21.5 50.499 21.5h418c19.333 0 36 -7.16699 50 -21.5s21 -31.166 21 -50.499c0 -20.667 -7 -37.834 -21 -51.501s-30.667 -20.5 -50 -20.5h-418c-19.333 0 -36.166 6.83301 -50.499 20.5s-21.5 30.834 -21.5 51.501
z" />
    <glyph glyph-name="figuredash" unicode="&#x2012;" 
d="M559 684c0 19.333 7.16699 36.166 21.5 50.499s31.166 21.5 50.499 21.5h418c19.333 0 36 -7.16699 50 -21.5s21 -31.166 21 -50.499c0 -20.667 -7 -37.834 -21 -51.501s-30.667 -20.5 -50 -20.5h-418c-19.333 0 -36.166 6.83301 -50.499 20.5s-21.5 30.834 -21.5 51.501
z" />
    <glyph glyph-name="endash" unicode="&#x2013;" 
 />
    <glyph glyph-name="emdash" unicode="&#x2014;" 
 />
    <glyph glyph-name="quoteleft" unicode="&#x2018;" 
d="M673 1602.5c4.66699 19.667 15.333 35.1631 32 46.4961c16.667 10.667 34.334 13.334 53.001 8.00098s33.667 -15.666 45 -30.999l110 -180c10.667 -16.667 14.5 -34.5 11.5 -53.5s-13.5 -33.833 -31.5 -44.5c-16.667 -9.33301 -34.834 -11.666 -54.501 -6.99902
s-34.167 15 -43.5 31l-113 176c-10.667 16.667 -13.667 34.834 -9 54.501z" />
    <glyph glyph-name="quoteright" unicode="&#x2019;" horiz-adv-x="485" 
d="M150 1384c-6 19.333 -3.99805 37.333 6.00195 54l96 186c9.33301 18 23.666 30 42.999 36s37.666 4.33301 54.999 -5c18 -9.33301 29.667 -23.666 35 -42.999s3.33301 -37 -6 -53l-98 -187c-9.33301 -18 -23 -30 -41 -36s-36.667 -4.33301 -56 5
c-16.667 9.33301 -28 23.666 -34 42.999z" />
    <glyph glyph-name="quotesinglbase" unicode="&#x201a;" 
 />
    <glyph glyph-name="quotedblleft" unicode="&#x201c;" 
d="M594 1614c5.33301 18.667 17.001 32.999 35.001 42.999c18 9.33301 36.5 11 55.5 5s33.167 -18 42.5 -36l98 -188c9.33301 -16.667 11.166 -34.667 5.49902 -54s-16.834 -33.666 -33.501 -42.999c-19.333 -9.33301 -38.166 -10.833 -56.499 -4.5
s-32.5 18.166 -42.5 35.499l-98 189c-9.33301 16.667 -11.333 34.334 -6 53.001zM836.001 1614c5.33301 18.667 16.665 32.999 33.998 42.999c18 9.33301 36.5 11 55.5 5s33.5 -18 43.5 -36l98 -188c9.33301 -16.667 11 -34.667 5 -54s-17.333 -33.666 -34 -42.999
c-19.333 -9.33301 -38.166 -10.833 -56.499 -4.5s-32.166 18.166 -41.499 35.499l-98 189c-9.33301 16.667 -11.333 34.334 -6 53.001z" />
    <glyph glyph-name="quotedblright" unicode="&#x201d;" 
d="M613 1384c-6 19.333 -4.33203 37.999 5.00098 55.999l101 190c9.33301 18 23.666 30 42.999 36s37.666 4.33301 54.999 -5c19.333 -9.33301 31.666 -23.666 36.999 -42.999s3.33301 -37.666 -6 -54.999l-100 -191c-9.33301 -18 -23.666 -30 -42.999 -36
s-38.666 -4.33301 -57.999 5c-16.667 9.33301 -28 23.666 -34 42.999zM859.001 1384c-6 19.333 -4.33496 37.999 4.99805 55.999l99 190c9.33301 18 23.833 30 43.5 36s38.5 4.33301 56.5 -5s29.667 -23.666 35 -42.999s3.33301 -37.666 -6 -54.999l-101 -191
c-9.33301 -18 -23.166 -30 -41.499 -36s-37.166 -4.33301 -56.499 5c-16.667 9.33301 -28 23.666 -34 42.999z" />
    <glyph glyph-name="quotedblbase" unicode="&#x201e;" 
 />
    <glyph glyph-name="bullet" unicode="&#x2022;" 
 />
    <glyph glyph-name="ellipsis" unicode="&#x2026;" 
 />
    <glyph glyph-name="uni202F" unicode="&#x202f;" horiz-adv-x="335" 
 />
    <glyph glyph-name="guilsinglleft" unicode="&#x2039;" 
 />
    <glyph glyph-name="uni205F" unicode="&#x205f;" horiz-adv-x="419" 
 />
    <glyph glyph-name="Euro" unicode="&#x20ac;" 
 />
    <glyph glyph-name="trademark" unicode="&#x2122;" horiz-adv-x="944" 
d="M61 1360c0 22 11 33 33 33h287c22 0 33 -11 33 -33s-11 -33 -33 -33h-111v-418c0 -9.33301 -3 -17 -9 -23s-13 -9 -21 -9c-22 0 -33 10.667 -33 32v418h-113c-22 0 -33 11 -33 33zM467 907l0.000976562 450.999v2v2v2v2c1.33301 1.33301 2 4 2 8h2v2
c1.33301 0 2 0.666992 2 2l4 4c0 1.33301 0.666992 2 2 2h2v2h2h2v3h2l2 2h3h2h2h2h2h2h2h2l4 -2h2l2 -3h2v-2h2l4 -4h2v-2v-2h2v-2h2l138 -272l137 272h2v2l2 2v2c1.33301 1.33301 2.33301 2 3 2s1.66699 0.666992 3 2h2v2h2v3c2.66699 0 4.66699 0.666992 6 2h2h2h2h2h3h2
h2h2h2v-2h2h2v-3h2h2v-2h2v-2h2l4 -4v-2h2v-2c1.33301 -1.33301 2 -4 2 -8h2v-2v-2v-2v-2v-451c0 -22 -11 -33 -33 -33c-8 0 -15 3.16699 -21 9.5s-9 14.166 -9 23.499v318l-105 -205c-2.66699 -2.66699 -5 -5.66699 -7 -9s-5 -6.66602 -9 -9.99902
c-2.66699 -1.33301 -7.33398 -2 -14.001 -2s-11.667 0.666992 -15 2c-8 4 -13.333 10.333 -16 19l-105 205v-318c0 -9.33301 -3 -17.166 -9 -23.499s-13 -9.5 -21 -9.5c-22 0 -33 11 -33 33z" />
    <glyph glyph-name="uni25FC" unicode="&#x25fc;" horiz-adv-x="1495" 
d="M0 0v1495h1495v-1495h-1495z" />
    <glyph glyph-name="glyph1" horiz-adv-x="0" 
 />
    </font>
</defs>
</svg>
