<?xml version="1.0" standalone="no"?>
<!DOCTYPE svg PUBLIC "-//W3C//DTD SVG 1.1//EN" "http://www.w3.org/Graphics/SVG/1.1/DTD/svg11.dtd" >
<svg>
<metadata>
Created by FontForge 20090622 at Wed Oct 28 10:52:18 2015
 By deploy user
Copyright (c) ParaType, Inc., 1998. All rights reserved.
</metadata>
<defs>
<font id="PTScriptVentus" horiz-adv-x="540" >
  <font-face 
    font-family="PT Script (Unreg.) Ventus"
    font-weight="400"
    font-stretch="normal"
    units-per-em="1000"
    panose-1="0 0 0 0 0 0 0 0 0 0"
    ascent="800"
    descent="-200"
    x-height="218"
    cap-height="606"
    bbox="-295 -403 980 969"
    underline-thickness="20"
    underline-position="-123"
    unicode-range="U+0001-U+E003"
  />
<missing-glyph horiz-adv-x="500" 
d="M50 0h400v512h-400v-512zM58 8v496h384v-496h-384z" />
    <glyph glyph-name=".notdef" horiz-adv-x="500" 
d="M50 0h400v512h-400v-512zM58 8v496h384v-496h-384z" />
    <glyph glyph-name=".null" horiz-adv-x="0" 
 />
    <glyph glyph-name="nonmarkingreturn" horiz-adv-x="600" 
 />
    <glyph glyph-name="space" unicode=" " horiz-adv-x="600" 
 />
    <glyph glyph-name="exclam" unicode="!" horiz-adv-x="326" 
d="M364 660q-2 -19 -45 -158l-38 -123l-35 -116q-24 -63 -53 -63q-5 0 -10.5 15t-2.5 27l25 80q30 93 49 146q9 26 36 112q36 118 56 118q21 0 21 -16q-2 -14 -3 -22zM196 76q0 -23 -15 -42.5t-41 -19.5q-14 0 -24 15t-10 34q0 6 1 9q5 23 18 33.5t28 10.5q43 0 43 -40z" />
    <glyph glyph-name="quotedbl" unicode="&#x22;" horiz-adv-x="291" 
d="M283 680q-3 -52 -7 -77q-14 -77 -45 -77q-20 0 -24 18q0 12 4 31q9 43 10.5 62.5t3.5 54.5q4 16 12.5 26.5t16.5 10.5q16 0 24 -23q5 -15 5 -26zM382 680q-3 -52 -7 -77q-14 -77 -46 -77q-19 0 -23 18q-1 11 3.5 32.5t10.5 45.5q1 4 1 30t3.5 41t12 25.5t15.5 10.5
q17 0 25 -23q5 -14 5 -26z" />
    <glyph glyph-name="numbersign" unicode="#" horiz-adv-x="842" 
d="M790 398q0 -20 -24 -33q-19 -10 -36 -10q-4 0 -24 9.5t-38 9.5q-11 0 -28 -3t-32 -5l-26 -38q14 1 24 1.5t17 0.5q52 0 81 -11q38 -15 38 -47q0 -9 -12 -10.5t-34 -1.5q-15 0 -29 5q-44 16 -51 17t-27.5 -2.5t-28.5 -3.5q-28 -46 -37 -63q-17 -30 -27 -73q-7 -36 -8 -38
q-5 -18 -13 -35.5t-23.5 -30t-33.5 -12.5q-10 0 -15 9.5t-5 21.5q0 16 29 83q24 57 57 122q-112 -27 -190 -42q-4 -5 -7 -19.5t-11 -26.5q1 -2 6.5 -6.5t3.5 -9.5q-45 -82 -56 -95q-24 -27 -50 -27q-5 0 -10.5 8.5t-5.5 15.5q0 13 20 52t58 106q-40 -10 -63 -14t-49 -4
q-5 0 -10.5 5.5t-5.5 12.5q0 24 55 35q20 4 105 13q7 14 10.5 22.5t11.5 19.5q-12 0 -42 -4t-44 -4q-16 0 -19 1q-15 4 -15 21q0 24 73 33q36 4 73 9q16 35 27 57q16 32 31 57q11 18 14 22q10 12 22 12q13 0 13 -11q0 -4 -2 -10.5t-9.5 -19.5t-18.5 -38q-24 -55 -25 -57
l188 26l18 46q0 3 -5.5 8.5t-2.5 11.5q3 5 11 14l36 36q29 29 36 33q15 9 35 9q11 0 12.5 -6t1.5 -20q0 -9 -25 -37q-16 -18 -24.5 -31.5t-19.5 -34.5q-6 -12 -9 -19q25 8 66 15t58 7q26 0 33 -5t7 -29zM510 314q8 15 10 18q6 10 14 20q-59 -9 -95 -16q-76 -15 -85 -16
l-24 -40l88 14q38 7 92 20z" />
    <glyph glyph-name="dollar" unicode="$" horiz-adv-x="528" 
d="M451 589q73 17 155 17q74 0 74 -44q0 -19 -13.5 -25.5t-42.5 -6.5q-27 0 -47 5q-53 13 -65 13q-17 0 -80 -19l-53 -163t-46 -120q68 -42 88.5 -66t20.5 -48q0 -41 -55 -102q-66 -72 -157 -98q-26 -75 -41 -111q-20 -47 -30 -51q-8 -3 -15.5 2t-12.5 16l45 139
q-6 -1 -19.5 1.5l-24.5 4.5q-32 3 -66.5 30.5t-34.5 50.5q0 30 27 30q23 -22 57 -38.5t83 -16.5l73 227q-81 55 -108.5 92.5t-27.5 73.5q0 31 65 86q80 68 190 104q33 107 53 164q25 72 35 75q8 3 15.5 -2t12.5 -19q4 -10 -19.5 -86zM250 -6q30 7 79 49q57 48 57 79
q0 11 -20.5 28.5t-52.5 38.5zM371 509q-72 -26 -116 -56q-55 -37 -55 -73q0 -30 27 -58q21 -22 66 -51q13 32 36.5 104.5t41.5 133.5z" />
    <glyph glyph-name="percent" unicode="%" horiz-adv-x="830" 
d="M513 688q0 -53 -136 -164.5t-212 -111.5q-33 0 -43.5 15.5t-10.5 42.5q0 24 33 63l65.5 77.5t107.5 82.5q83 49 134 49q62 0 62 -54zM866 757q0 -16 -103 -102q-66 -55 -96 -85l-48 -46q-67 -65 -152 -161l-152 -170q-61 -67 -108 -113q-37 -37 -70 -74.5t-48 -37.5
q-6 0 -13 8t-7 19q0 12 91.5 108.5l177.5 182.5l124 124q230 248 299 313q61 57 90 57q9 0 12 -4t3 -19zM447 676q2 12 -5 15t-20 3q-22 0 -107 -64q-99 -75 -136 -143q-1 -2 1.5 -3.5t7.5 -1.5q46 0 143 64q107 71 116 130zM810 259q0 -53 -136 -164t-212 -111
q-33 0 -43.5 15t-10.5 42q0 24 33 63l65.5 77.5t107.5 82.5q83 49 134 49q62 0 62 -54zM744 247q2 12 -5 15t-20 3q-22 0 -107 -64q-99 -75 -136 -143q-1 -2 1.5 -3.5t7.5 -1.5q46 0 143 64q107 71 116 130z" />
    <glyph glyph-name="ampersand" unicode="&#x26;" horiz-adv-x="635" 
d="M626 694q0 -108 -58 -197q-45 -69 -118 -119q-51 -35 -94 -48q3 -32 3 -57q0 -20 -0.5 -37t-0.5 -32v-12q23 15 45 40q32 36 46 49q6 5 14 1t11 -11q4 -9 0 -14q-28 -35 -57 -67q-25 -27 -49 -48q5 -23 14 -28.5t26 -5.5q13 0 33 25q26 33 33 39q5 4 14 0q14 -5 14 -20
q0 -24 -29 -62q-34 -44 -65 -44q-38 0 -58 21q-18 27 -26 37q-52 -42 -78 -58q-60 -38 -104 -38q-34 0 -56 22t-22 56q0 112 88 188q34 29 164 100q0 97 19 197.5t49 168.5q14 31 50 57q44 31 92 31q47 0 76 -48q24 -40 24 -86zM572 674q0 35 -9 60q-14 38 -44 38
q-60 0 -101 -116q-50 -141 -50 -268q21 6 60 30t50 40q54 68 60 77q34 51 34 139zM306 158q0 32 -2 83t-2 71q-78 -46 -97 -61q-85 -68 -85 -141q0 -19 9.5 -32.5t26.5 -13.5q30 0 71.5 27t78.5 67z" />
    <glyph glyph-name="quotesingle" unicode="'" horiz-adv-x="279" 
d="M315 680q-3 -52 -7 -77q-14 -77 -45 -77q-20 0 -24 18q0 12 4 31q9 43 10.5 62.5t3.5 54.5q4 16 12.5 26.5t16.5 10.5q16 0 24 -23q5 -15 5 -26z" />
    <glyph glyph-name="parenleft" unicode="(" horiz-adv-x="342" 
d="M387 30q-3 -13 -12.5 -16.5t-33.5 -3.5h-34q-98 0 -156 38q-75 49 -75 155q0 48 64 141q54 78 134 168q56 62 120 125q3 3 9 3q5 0 10 -3t5 -10q0 -14 -13 -27l-91 -106q-80 -97 -121 -158q-60 -90 -60 -131q0 -67 43 -106q57 -51 187 -51q8 0 16.5 -6.5t7.5 -11.5z" />
    <glyph glyph-name="parenright" unicode=")" horiz-adv-x="399" 
d="M415 442q-11 -55 -84 -135q-63 -69 -151 -137l-90 -72q-122 -98 -135 -98q-10 0 -10 18q1 7 78 72l121 100q110 95 126 111q69 70 82 130q3 12 3.5 25.5t1.5 21.5q0 48 -22 85l-47 58q4 19 32 19q37 0 68 -49.5t31 -110.5q0 -7 -0.5 -15t-3.5 -23z" />
    <glyph glyph-name="asterisk" unicode="*" horiz-adv-x="591" 
d="M594 244q0 -22 -18.5 -32t-42.5 -10q-17 4 -30 9q-75 29 -167 109q0 -18 -2 -48t-2 -50q0 -22 -9 -45t-27 -23q-19 0 -19 11q0 8 1 13q0 5 3 37t3 63q-43 -52 -48 -57q-31 -31 -60 -31q-20 0 -27 3.5t-7 18.5q0 13 15 21q36 20 37 21q13 9 34.5 30.5t55.5 61.5
q-36 5 -67 17q-42 16 -42 33q0 13 5.5 16.5t23.5 3.5q19 0 50 -9q10 -3 28 -9l4 82q7 48 38 48q13 0 15.5 -12.5t2.5 -23.5q0 -12 -1 -39t-1 -45l83.5 71t26.5 17q4 0 9.5 -5.5t6.5 -10.5q1 -11 -36 -49q-33 -34 -68 -61l83 -65q59 -43 83 -43q7 0 16 10t13 10q15 0 26 -11
t11 -27z" />
    <glyph glyph-name="plus" unicode="+" horiz-adv-x="623" 
d="M585 277q-2 -13 -44 -29.5t-76 -16.5q-13 0 -20 12t-14 12q-3 0 -15 -1.5t-15 -1.5l-21 -59t-16 -56q-3 -13 2.5 -20.5t3.5 -15.5q-2 -14 -35 -56q-36 -46 -53 -46q-5 0 -10.5 11t-3.5 18l48 133l33 89q-2 1 -57 -4q-137 -13 -145 -13q-19 0 -25 3t-6 11t2 21t80 19
q162 12 165 12q35 74 50 99q34 55 63 55q21 0 21 -17q0 -4 -3 -18.5t-41 -58.5q-19 -22 -30 -51h79q24 0 55.5 -8t27.5 -23z" />
    <glyph glyph-name="comma" unicode="," horiz-adv-x="424" 
d="M264 59q0 -36 -73.5 -117t-92.5 -81q-10 0 -11 1t-1 13q0 4 56 73.5t56 95.5q0 22 -31.5 38.5t-31.5 35.5q0 28 31 28q28 0 60 -24q38 -29 38 -63z" />
    <glyph glyph-name="hyphenminus" unicode="-" horiz-adv-x="803" 
d="M666 246q0 -19 -12 -24.5t-41 -5.5q-51 0 -115 -1.5t-76 -1.5q-48 0 -137.5 -2t-90.5 -2q-18 0 -29 6.5t-11 13.5q0 33 26 33q39 0 64 1q126 5 178 5q92 0 118.5 1.5t64.5 4.5q26 0 43.5 -5.5t17.5 -22.5z" />
    <glyph glyph-name="period" unicode="." horiz-adv-x="359" 
d="M188 55q0 -19 -8 -28q-12 -13 -42 -13q-22 0 -30 9t-8 27t17 30t33 12q22 0 30 -10t8 -27z" />
    <glyph glyph-name="slash" unicode="/" horiz-adv-x="527" 
d="M590 546q0 -23 -102 -142l-170 -194l-99 -117q-49 -57 -84 -93.5t-43 -36.5t-8 10q2 15 2 20l172 215l116 147q80 101 122 149q59 68 72 68q10 0 16 -5.5t6 -20.5z" />
    <glyph glyph-name="zero" unicode="0" horiz-adv-x="451" 
d="M490 468q0 -114 -77 -224q-68 -97 -168 -160q-95 -60 -166 -60q-26 0 -43 21t-17 59q0 93 72 210q65 105 155.5 183.5t145.5 78.5t78 -31q20 -27 20 -77zM432 448q0 26 -16 45t-42 19q-47 0 -122 -82q-63 -68 -119.5 -163t-56.5 -128q-1 -17 -1 -28q0 -19 3.5 -30
t14.5 -11q40 0 119 51q88 57 147 135q73 97 73 192z" />
    <glyph glyph-name="one" unicode="1" horiz-adv-x="423" 
d="M514 573l-65 -75q-52 -61 -113 -178q-40 -75 -41 -77q-33 -58 -77 -115l-66 -85t-52 -43q-19 0 -19 18q0 7 41 56q28 33 61 82l50 80l58 100q5 8 16 33q21 46 29 61q-30 -18 -49 -27q-60 -28 -107 -28q-9 -1 -13 -1q-11 0 -17.5 4t-6.5 18q0 21 83 37q57 11 100 40
q57 39 110 87q40 36 46 36q12 0 22 -8t10 -15z" />
    <glyph glyph-name="two" unicode="2" horiz-adv-x="436" 
d="M448 79q0 -25 -29 -41t-62 -16q-71 0 -125 22q-60 31 -93 46q-86 -84 -106 -84q-14 0 -19 11t-5 23q0 21 46.5 61.5t83.5 54.5l86 92q49 55 73 95q31 53 31 99q0 28 -7.5 41t-30.5 13q-36 0 -75 -33q-18 -16 -53 -57q-6 -10 -9 -13q-9 -11 -31 -11q-24 0 -24 32
q0 20 75 76q81 60 126 60q43 0 65 -24t22 -65q0 -93 -79 -199q-11 -14 -113 -126l64 -40q43 -24 72 -24q34 0 57 8l46 20q7 0 10.5 -7t3.5 -14z" />
    <glyph glyph-name="three" unicode="3" horiz-adv-x="491" 
d="M545 512q0 -26 -89 -77q-10 -6 -119 -63q44 -12 60 -24q36 -26 36 -80q0 -53 -40 -116t-98 -106q-29 -21 -60 -31.5t-62 -10.5q-56 0 -114 58q-53 53 -53 84q0 11 17 17q5 1 17 4q12 0 67.5 -59.5t81.5 -59.5q17 0 41.5 11.5t48.5 34.5q40 36 71 84.5t31 77.5
q0 15 -10 31.5t-30 29t-49.5 18t-64.5 5.5q-8 0 -18 15q-1 2 -4 7q0 17 31 30q6 3 59 22q22 8 53 26l51 30q-23 0 -47 -4.5l-57.5 -10.5t-63.5 -12q-79 -17 -93 -17q-12 -1 -17 -1q-16 0 -16 29q0 8 50 21.5t148 32.5q25 5 121 18q32 4 91 12q15 0 22.5 -8.5t7.5 -17.5z" />
    <glyph glyph-name="four" unicode="4" horiz-adv-x="524" 
d="M658 305q0 -17 -47 -49q-162 -108 -218 -108q-32 0 -47 9q-16 13 -27 21q-14 -20 -57 -75q-34 -43 -34 -48t4 -12q9 -15 9 -23q0 -15 -20 -30t-48 -15q-20 0 -25 6.5t-5 20.5q0 20 60 99l78 101q-11 14 -31.5 22t-38.5 8q-32 0 -86.5 -33.5l-109.5 -68.5q-19 0 -19 16
q0 22 33 57q63 65 114 137q14 21 46 57l66 73l110 121q62 65 80 65q6 -1 10 -3q10 -6 10 -15q0 -15 -57.5 -75l-116.5 -121q-30 -32 -84.5 -98.5t-71.5 -85.5q22 8 56.5 17t47.5 9q21 0 43 -9t35 -27l86 118q68 88 88 86q6 -1 10.5 -7t3.5 -11q-1 -9 -29 -48l-125 -172
l21.5 -13.5t26.5 -4.5q55 0 118 43l78 55l24 16t24 8q4 0 9.5 -4.5t5.5 -8.5z" />
    <glyph glyph-name="five" unicode="5" horiz-adv-x="520" 
d="M783 604q0 -12 -25.5 -17t-88.5 -5q-42 0 -63 -1.5t-77 -6.5q-25 -2 -70.5 -10t-73.5 -16q-54 -68 -70 -90q-47 -63 -80 -118q2 1 24 9q29 11 52 11q39 0 70.5 -30.5t31.5 -81.5q0 -69 -108 -155q-104 -83 -174 -83q-50 0 -83 42q-26 33 -26 58q0 11 8.5 22t24.5 10
q19 0 27.5 -11t8.5 -27q0 -23 21 -36q17 -10 41 -10q31 0 116 67q94 74 94 121q0 23 -17 42q-20 22 -53 22q-16 0 -56 -27t-58 -27q-14 0 -18 6t-4 19v11q0 12 23 49q19 30 19 31q19 40 48.5 82l61.5 86q3 5 5.5 24.5t13.5 29t120 23.5q128 17 235 17q45 0 72.5 -5.5
t27.5 -24.5z" />
    <glyph glyph-name="six" unicode="6" horiz-adv-x="424" 
d="M423 282q0 -58 -129 -158q-137 -106 -239 -106q-19 0 -33.5 17.5t-14.5 40.5q0 42 48 133l55.5 100.5l90.5 165.5q53 87 100 87q20 0 20 -21q0 -6 -4 -9q-35 -31 -87 -109l-71 -115q40 30 72 44q40 18 78 18q114 0 114 -88zM369 286q0 16 -14.5 25t-51.5 9q-43 0 -89 -20
q-39 -17 -81 -50q-33 -61 -39 -73q-21 -44 -21 -69q0 -18 10.5 -24t39.5 -6q40 0 140 77q106 82 106 131z" />
    <glyph glyph-name="seven" unicode="7" horiz-adv-x="446" 
d="M618 538q0 -4 -79 -51q-65 -39 -145 -113l-182 -220q5 -4 5.5 -13.5t0.5 -18.5q0 -25 -82 -97.5t-101 -72.5q-6 0 -11 2q-12 5 -12 17q0 28 42 79l114 129q91 104 163 202q-3 1 -26 -1t-37 -2q-35 0 -64.5 22t-29.5 56l-50 -68q-24 -29 -42 -26q-11 1 -14.5 9t-3.5 21
q3 27 68 104q70 82 102 82q20 0 20 -18q0 -11 -14 -30t-14 -44q0 -21 20.5 -37.5t45.5 -16.5q80 0 179 65t127 65q7 0 13.5 -7.5t6.5 -16.5z" />
    <glyph glyph-name="eight" unicode="8" horiz-adv-x="476" 
d="M655 494q0 -33 -155 -79l-135 -37q3 -12 4 -24t1 -23q-1 -16 -1 -19q0 -120 -107 -222q-94 -90 -167 -90q-31 0 -48.5 24.5t-17.5 61.5q0 78 75 160q84 92 193 142q-21 17 -32.5 38t-11.5 38q0 42 77 103q87 69 179 69q35 0 51.5 -18.5t16.5 -47.5q0 -28 -28 -63
q-24 -29 -52 -49q46 10 87.5 29t50.5 19q5 0 13 -6q2 -2 7 -6zM521 566q-1 10 -15.5 17t-21.5 7q-21 0 -97 -41.5t-76 -63.5q0 -17 10.5 -37t27.5 -34q71 18 127 76q49 51 45 76zM315 284q0 19 -2.5 33l-5.5 31q-84 -41 -147 -106q-72 -74 -72 -140q0 -17 3 -28t20 -14
q28 -4 109 65q95 81 95 159z" />
    <glyph glyph-name="nine" unicode="9" horiz-adv-x="389" 
d="M497 592q0 -40 -16 -63q-11 -16 -52 -47l44 -4q9 0 10.5 -9t1.5 -21q0 -13 -54 -68l-126 -128l-51 -53q-41 -43 -57 -61q8 -3 8 -13q0 -3 -3 -19.5t-74.5 -78.5t-96.5 -62q-9 0 -13.5 4.5t-4.5 19.5q0 13 69 93q41 48 143 158t116 126q-20 -6 -29 -8q-27 -6 -51 -6
q-48 0 -83 24q-41 28 -41 78q0 38 35 84t91 80q36 22 76 35t82 13q32 0 54 -22t22 -52zM441 580q0 17 -15.5 24.5t-36.5 7.5q-14 0 -40.5 -8.5t-55.5 -23.5q-37 -21 -64.5 -51t-31.5 -57q-3 -22 8.5 -37.5t31.5 -20.5q11 -3 28 1q3 0 8 3q4 39 44 49t77 39q47 36 47 74z" />
    <glyph glyph-name="colon" unicode=":" horiz-adv-x="370" 
d="M315 320q0 -20 -14.5 -33.5t-33.5 -9.5q-15 3 -24 15t-9 28t13 27t30 11q16 0 27 -11t11 -27zM211 66q0 -19 -14 -31t-34 -12q-15 0 -24 13t-9 30q0 16 13 27t30 11q16 0 27 -11t11 -27z" />
    <glyph glyph-name="semicolon" unicode=";" horiz-adv-x="384" 
d="M283 286q0 -20 -14.5 -33.5t-33.5 -9.5q-15 3 -24 15t-9 28t13 27t30 11q16 0 27 -11t11 -27zM266 31q0 -35 -73.5 -116.5t-92.5 -81.5q-10 0 -11 1t-1 13q0 4 56 74t56 95q0 22 -31.5 38.5t-31.5 35.5q0 28 31 28q28 0 60 -24q38 -29 38 -63z" />
    <glyph glyph-name="less" unicode="&#x3c;" horiz-adv-x="664" 
d="M688 588h12q16 0 16 -12q0 -25 -32 -40l-134 -69q-63 -32 -108 -57l-150 -85l-72 -41q50 -32 158 -89l154 -80q71 -36 72 -41q3 -14 -5.5 -20.5t-23.5 -6.5q-19 0 -132 51q-120 54 -206 102q-107 59 -107 78q0 16 88 68q64 38 192 104l190.5 97t87.5 41z" />
    <glyph glyph-name="equal" unicode="=" horiz-adv-x="734" 
d="M742 331q0 -12 -11.5 -21.5t-32.5 -9.5q-18 0 -83 -7q-28 -3 -126.5 -15t-200.5 -26q-42 -6 -112 -17q-44 0 -44 17q0 32 74 39q181 16 209 21t143 23t138 18q11 0 28.5 -7t17.5 -15zM612 180q0 -16 -10 -22t-34 -10q-119 -18 -209.5 -27t-136.5 -9q-35 0 -57.5 4
t-22.5 21q0 22 14.5 27.5t51.5 5.5h44q22 0 44.5 0.5t55.5 5.5l228 30q6 0 19 -8.5t13 -17.5z" />
    <glyph glyph-name="greater" unicode="&#x3e;" horiz-adv-x="664" 
d="M154 2h-12q-16 0 -16 12q0 25 32 40l134 69q63 32 108 57l150 85l72 41q-50 32 -158 89l-154 80q-71 36 -72 41q-3 14 5.5 20.5t23.5 6.5q19 0 135.5 -52.5t202.5 -100.5q107 -59 107 -78q0 -16 -88 -68q-64 -38 -192 -104l-190.5 -97t-87.5 -41z" />
    <glyph glyph-name="question" unicode="?" horiz-adv-x="408" 
d="M519 675q-9 -43 -67 -136q-5 -8 -66 -100q-78 -120 -89 -135q-51 -73 -66 -73q-8 0 -12 9t-1 18q3 19 73 123l47 68l85 131q18 35 27 79q2 11 5 22q0 16 -23 16q-53 0 -105.5 -23t-63.5 -44q-6 -13 -18.5 -19t-24.5 -6q-17 0 -17 15q0 4 2 14q8 34 103.5 75t146.5 41
q31 0 48.5 -16.5t17.5 -42.5q0 -6 -2 -16zM223 49q-6 -17 -15 -26t-25 -9q-19 0 -29.5 17.5t-7.5 38.5q2 16 15 29t29 13q4 0 10 -2q26 -7 26 -42q0 -10 -3 -19z" />
    <glyph glyph-name="at" unicode="@" horiz-adv-x="735" 
d="M626 388l-2 2q-24 -79 -74 -95.5t-93 5.5q-6 5 -8 11q-6 0 -4 6q-9 9 -2 38q14 36 47 64q33 23 41 41q3 18 -11 18q-11 0 -27 -11q-23 -17 -26 -18q8 18 10.5 26.5t2.5 20.5q0 17 -4 22q-8 12 -37 12q-58 1 -121 -40q-32 -21 -59 -48q-73 -83 -56 -147q-3 -14 9 -25
t20 -13h1l3 -1q5 -1 11 -1q26 -2 53 5q43 13 89 41q3 -15 21.5 -27.5t42.5 -17.5q47 -10 78 -4q54 15 84 48q43 36 54 110q17 141 -69 224t-217 78q-142 -2 -233 -91.5t-91 -220.5q0 -133 93 -228t228 -89q127 -2 260 81q10 20 -2.5 28.5t-31.5 -5.5q-57 -53 -227 -74
q-109 11 -184 71t-95 203q0 133 73 209t221 81q133 -11 191.5 -90t40.5 -199zM412 474q13 0 13 -12q0 -5 -5 -21.5t-8 -29.5l2 -5q-4 -6 -8.5 -15.5t-9 -20t-9.5 -18.5t-10 -11l-27 -21q-34 -17 -37 -19q-17 -6 -47 -6q-7 0 -15.5 2.5t-4.5 49.5q25 61 76 95t90 32z" />
    <glyph glyph-name="A" unicode="A" horiz-adv-x="550" 
d="M592 298q0 -11 -14.5 -17.5t-51.5 -14.5l-67.5 -180t-52.5 -87q-7 0 -14.5 10t-7.5 21q0 31 25.5 98l52.5 136q-69 -12 -124 -22.5t-142 -31.5q-5 -8 -79 -143q-50 -90 -73 -90q-7 0 -12 8.5t-4 16.5q0 16 51 107q34 62 43 81q-16 2 -22 5t-6 16q0 2 2 13.5t33.5 24.5
t38.5 17l74 106q47 66 82 106q43 49 60 46q15 -3 20 -24q62 54 97.5 79t50.5 25q20 0 28 -15.5t8 -37.5q0 -19 -15.5 -106t-24.5 -115q19 -2 31.5 -8.5t12.5 -23.5zM518 488q1 9 1 14q0 12 -5 12q-23 0 -123 -86q-104 -90 -143 -148l232 42q14 35 23 70q3 11 15 96z" />
    <glyph glyph-name="B" unicode="B" horiz-adv-x="510" 
d="M560 518q0 -60 -74 -139q-68 -73 -152 -117q82 0 140 -48t58 -124q0 -61 -73 -89q-55 -20 -145 -20q-43 0 -94.5 23.5t-51.5 37.5q0 30 26 30q42 -18 79 -32t65 -14q73 0 100.5 20t27.5 56q0 34 -40.5 69t-81.5 39.5t-69.5 5.5t-38.5 2q-30 0 -30 24q0 8 53 36
q37 19 65 38q71 45 117 94q56 60 56 108q0 30 -7.5 39t-23.5 9q-45 0 -98 -57q-58 -62 -150 -217q-67 -114 -114.5 -207.5t-67.5 -93.5q-5 0 -13.5 7t-8.5 12l30 66l58 122l104 202q-82 -52 -124.5 -66t-88.5 -14q-6 0 -14 6.5t-8 13.5q0 25 31 32q10 2 32 2q41 0 123 44
q71 38 111 72l91 76q77 62 117 62q48 0 68 -34q16 -27 16 -76z" />
    <glyph glyph-name="C" unicode="C" horiz-adv-x="558" 
d="M575 105l-21 -11q-32 -17 -125 -55q-15 -7 -76 -20q-77 -17 -120 -17q-107 0 -159 43t-52 121q0 107 101 234q117 147 260 147q37 0 66.5 -21.5t29.5 -42.5q0 -26 -12.5 -40t-27.5 -14q-20 0 -24 20q-9 46 -74 46q-74 0 -169 -115t-95 -207q0 -53 48 -85q44 -29 106 -29
q88 0 200 35q56 18 114 43q19 7 29 7q13 0 16 -8q4 -6 0.5 -15.5t-15.5 -15.5z" />
    <glyph glyph-name="D" unicode="D" horiz-adv-x="407" 
d="M455 332q0 -52 -67 -114q-25 -23 -138 -106q-46 -34 -106 -67q-42 -23 -87 -42q-19 -47 -23 -52q-12 -16 -30 -16q-17 0 -17 18q0 8 4 19t7 21q-3 -1 -18.5 -4t-25.5 -3q-24 0 -38.5 7.5t-14.5 28.5q0 12 4 17.5t19 8.5q4 1 15.5 -7t19.5 -9t15 -1q10 0 21.5 3.5
t18.5 4.5l137 390q3 11 10 29t10 30h-14q-25 0 -42 5t-12 21q4 16 29 19.5t50 6.5q6 11 25 60q30 76 49 76q25 0 25 -25q0 -5 -1.5 -15.5t-16.5 -45.5q-18 -42 -22 -56q37 -6 60.5 -11.5t53.5 -20.5q53 -26 76.5 -67t23.5 -103zM401 326q0 52 -48 102q-54 56 -126 56
q-11 -32 -39 -105l-47 -124q-30 -80 -48 -135l-22 -66q92 43 209 137q121 98 121 135z" />
    <glyph glyph-name="E" unicode="E" horiz-adv-x="485" 
d="M531 50q-1 -13 -19 -23q-13 -7 -27 -9t-38 -2h-29q-1 0 -140 -24.5t-161 -24.5q-60 0 -82.5 9.5t-22.5 35.5q0 11 3 28l44 150q23 75 31 97l54 148q25 69 48 112q30 58 50 58q14 0 20 -18l4 -21q109 30 150 37q70 12 176 12q37 0 30 -27q-3 -14 -18 -25q-20 -15 -48 -15
q-8 0 -33 4t-53 4q-71 0 -123 -15l-89 -35q-20 0 -26 7q-19 -44 -44 -110q-28 -73 -40 -112q9 1 151 23q104 16 124 16q34 0 51.5 -6t17.5 -18t-17.5 -23t-36.5 -11q-12 0 -28 1t-24 1q-17 0 -38.5 -3t-93.5 -18t-122 -21l-22 -64q-13 -36 -22 -68q-6 -17 -8 -25
q-5 -16 -5 -26q0 -15 10.5 -23t37.5 -8q23 0 105 13.5l163 27t97 13.5q18 0 31 -6t12 -16z" />
    <glyph glyph-name="F" unicode="F" horiz-adv-x="478" 
d="M611 542q-2 -10 -7 -18q-15 -21 -54 -21l-65 2q-35 0 -126 -13q-31 -4 -87 -14q-18 -44 -41 -114q-7 -20 -14 -46q-10 -38 -14 -50l136.5 40.5t64.5 15.5q27 0 46 -15.5t15 -40.5q-1 -15 -13 -23.5t-23 -8.5q-8 0 -16 12t-17 12l-214 -59l-31 -95l32 21q13 11 21 5
q4 -3 4 -7q-1 -7 -1 -10q0 -22 -53.5 -83t-66.5 -61q-10 0 -13 8.5t-2 15.5q3 27 26 97q2 5 34 100q-9 0 -19 7t-10 16q0 12 6.5 18.5t40.5 19.5q6 26 21 70l27 83l26 93q21 58 45 58q8 0 15 -10.5t12 -10.5q85 10 128 14q131 14 142 14q22 0 34 -5t11 -17z" />
    <glyph glyph-name="G" unicode="G" horiz-adv-x="538" 
d="M468 52q-8 -24 -16 -59q-3 -12 -7 -34l32 21q13 11 21 5q4 -3 4 -7q-1 -7 -1 -10q0 -22 -53.5 -83.5t-66.5 -61.5q-10 0 -13 8.5t-2 15.5q4 37 21.5 103.5t32.5 105.5q-82 -87 -113 -105q-59 -34 -129 -34q-94 0 -137 61q-35 49 -35 136q0 188 144 326q150 144 368 144
q33 0 76.5 -22.5t43.5 -40.5q0 -26 -14 -40t-30 -14q-19 0 -22 21q-7 46 -78 46q-183 0 -310 -137q-120 -129 -120 -293q0 -57 25 -91q33 -44 111 -44q64 0 138 72q29 29 70 79q37 63 59 94.5t37 31.5q8 0 13 -5.5t5 -21.5q0 -17 -8 -42l-10 -31q-14 -32 -20 -47.5
t-16 -46.5z" />
    <glyph glyph-name="H" unicode="H" 
d="M92 232q-35 0 -35 21q0 19 11.5 27t47.5 15q11 32 22.5 60t52.5 119q24 51 40 77q20 32 32 32q10 0 15.5 -5.5t5.5 -22.5q0 -6 -22 -45q-17 -30 -27 -53q-16 -35 -38 -92l-25 -68q4 -1 15 -1q13 0 42 2.5t37 2.5q41 0 90 4q111 9 142 9q21 56 37.5 105t16.5 63t-9.5 28.5
t-9.5 28.5q0 17 18.5 31.5t33.5 14.5q14 0 23 -14.5t9 -48.5q0 -28 -39 -132q-33 -87 -74 -179l-32 -73q-12 -30 -12 -49q0 -71 -66 -71q-6 0 -13 9t-4 21q2 12 16 40q21 42 25 52l59 124q-31 -3 -243 -16q-31 -1 -83 -5l-39 -101q9 5 13 7q10 6 22 16t21 4q4 -3 4 -8
q-1 -6 -1 -10q0 -22 -56.5 -86.5t-69.5 -64.5q-8 0 -13 7.5t-3 16.5q3 24 19 73z" />
    <glyph glyph-name="I" unicode="I" horiz-adv-x="280" 
d="M288 582q0 -11 -56 -180q-31 -94 -48 -157l-32.5 -124t-20 -90t-6.5 -49q-6 -17 -35 -17q-10 0 -14.5 7.5t-4.5 20.5q1 17 1 27q0 35 37 155l73 237q22 78 43 127q28 67 47 67q16 0 16 -24z" />
    <glyph glyph-name="J" unicode="J" horiz-adv-x="403" 
d="M522 572q0 -23 -56 -42q-18 -6 -56 -14v-86q0 -107 -123 -272q-127 -170 -220 -170q-15 0 -30 19.5t-15 40.5q0 33 22.5 59.5t53.5 26.5q21 0 39.5 -8t34.5 -28q61 62 107 133q63 98 77 183q4 27 4 51.5v44.5q-32 0 -94 -8q-155 -20 -174 -20q-49 0 -64.5 5.5t-15.5 24.5
q0 11 9.5 22.5t22.5 11.5q12 0 32 -4t38 -4q59 0 119 8l116 16q92 12 128 26q13 5 22 5q10 0 16.5 -4.5t6.5 -16.5zM122 68q2 6 -8.5 16t-16.5 10q-8 0 -16 -10t-7 -20q2 -16 13 -16q8 0 20 6.5t15 13.5z" />
    <glyph glyph-name="K" unicode="K" horiz-adv-x="539" 
d="M561 563q-7 -32 -54.5 -66.5t-78.5 -34.5q-20 0 -95 -48l-50 -33l-85 -59q-36 -27 -60 -51l-61 -156l17 -7.5t8 -11.5q0 -27 -35 -73.5t-57 -46.5q-13 0 -15 6.5t-2 22.5q0 12 22 80q18 55 56 156l66 180.5l51 146.5q6 16 20.5 27t25.5 9q11 -1 11 -19q0 -9 -3 -18
q-14 -44 -33.5 -99l-36.5 -103l127 86q90 59 144 88q75 40 107 40q13 0 11 -16zM567 80l-125 -56q-60 -24 -82 -24q-19 0 -48 45q-25 40 -44 87l-36 94q-18 50 -18 66q0 18 13.5 30.5t27.5 12.5q18 0 38 -90q13 -59 25 -91q16 -44 32.5 -73t27.5 -29q14 0 67 22l122 54
q9 3 16 3q19 0 19 -16q0 -22 -35 -35z" />
    <glyph glyph-name="L" unicode="L" horiz-adv-x="414" 
d="M448 124q0 -24 -18.5 -34t-53.5 -10q-30 0 -61 9t-45 9q-31 0 -99 -33q-78 -38 -120 -80q-9 -9 -19 -12.5t-20 -3.5q-12 1 -15.5 6.5t-3.5 17.5q1 7 50 91l57 100q61 111 105 213q49 112 49 149q0 23 14.5 41t36.5 18q20 0 20 -20q0 -9 -3 -21.5t-4 -18.5
q-7 -35 -58.5 -152.5t-107.5 -226.5l-40 -72q27 24 76 38t98 14q14 0 31 -4q52 -12 69 -12q8 0 24 3t23 3q15 0 15 -12z" />
    <glyph glyph-name="M" unicode="M" horiz-adv-x="592" 
d="M660 598q0 -26 -30 -106l-31 -82q-18 -51 -47 -121q-57 -139 -57 -143q-1 -10 14.5 -14t15.5 -10q0 -19 -47 -76t-68 -57q-9 0 -13.5 9.5t-4.5 23.5q1 8 1 10q2 9 35 91q107 265 110 272l15 45q-69 -76 -130 -151q-80 -98 -84.5 -121t-17.5 -32q-9 -6 -30 -6
q-31 0 -40.5 73t-9.5 183q0 27 -0.5 55t-1.5 57q-1 -3 -40 -94l-70 -160q-24 -54 -47.5 -112.5t-34.5 -95.5q-5 -19 -18 -28.5t-27 -9.5q-16 0 -16 24q0 9 1 13q6 31 22 73q3 8 46 104l64 146l81 189q28 61 43.5 82t32.5 21q15 0 19.5 -16t4.5 -50v-49q0 -128 2 -195t9 -110
l257 315l34 50q18 21 29 21q10 0 19.5 -4t9.5 -14z" />
    <glyph glyph-name="N" unicode="N" horiz-adv-x="594" 
d="M642 582q0 -9 -47.5 -119l-103.5 -235l-83 -184q-3 -6 -20 -13q-2 -1 -8 -3q-24 0 -34 16q-6 10 -10.5 39.5t-9.5 82.5t-7.5 69t-3 53t-0.5 63v116q-15 -27 -24 -46l-57 -115l-71 -145q-46 -90 -68 -125q-33 -51 -51 -51t-20 5v10q0 11 29 70l68 132l77 150
q106 212 146 274q36 54 65 54q6 0 9 -8t2 -12q-11 -30 -22 -84t-17.5 -116t-6.5 -125q0 -64 5.5 -118t16.5 -79l104.5 245l71.5 161l21.5 46t25.5 22q9 0 16 -9t7 -21z" />
    <glyph glyph-name="O" unicode="O" 
d="M615 417q0 -86 -106 -190q-89 -88 -218 -160q-120 -67 -174 -67q-48 0 -77 50q-23 40 -23 83q0 59 64 175q70 127 160 213q108 103 204 103q71 0 117 -48q53 -55 53 -159zM565 421q0 38 -13 73.5t-43.5 57t-65.5 21.5q-33 0 -75 -25l-45 -30q-56 -40 -75 -62
q-35 -39 -35 -89q0 -23 16.5 -47t16.5 -35q0 -20 -20 -20q-7 1 -11 1q-20 2 -33.5 20t-22.5 59q-39 -67 -64 -130t-25 -83q0 -26 14.5 -53t33.5 -27q67 0 178 71q104 66 184 153q85 92 85 145z" />
    <glyph glyph-name="P" unicode="P" horiz-adv-x="418" 
d="M560 518q0 -77 -134 -193q-128 -111 -193 -111q-14 0 -20.5 7.5t-6.5 20.5q0 8 53 36q37 19 65 38q71 45 117 94q56 60 56 108q0 30 -7.5 39t-23.5 9q-45 0 -98 -57q-58 -62 -150 -217q-67 -114 -114.5 -207.5t-67.5 -93.5q-5 0 -13.5 7t-8.5 12l30 66l58 122l104 202
q-82 -52 -124.5 -66t-88.5 -14q-6 0 -14 6.5t-8 13.5q0 25 31 32q10 2 32 2q41 0 123 44q71 38 111 72l91 76q77 62 117 62q48 0 68 -34q16 -27 16 -76z" />
    <glyph glyph-name="Q" unicode="Q" horiz-adv-x="593" 
d="M327 145q101 68 175 150q80 88 80 139q0 37 -14 75t-42 59q-35 23 -69 23q-28 0 -63 -18q-14 -7 -61 -39q-56 -40 -77 -64q-36 -41 -36 -92q0 -23 17 -47t17 -37q0 -21 -21 -21q-7 1 -11 1q-20 2 -34.5 21.5t-23.5 60.5q-40 -69 -66 -134.5t-26 -85.5q0 -26 15.5 -54
t34.5 -28q28 0 62 13.5t81 39.5q-33 25 -58 38q-31 16 -71 25q-11 2 -16.5 11t-5.5 21q0 13 10.5 21.5t23.5 8.5q33 -3 84.5 -27.5t94.5 -59.5zM121 0q-49 0 -79 52q-24 42 -24 85q0 61 66 181q72 131 164 219q111 106 211 106q73 0 120 -49q55 -57 55 -164q0 -76 -84 -170
q-71 -80 -186 -154l36 -71q17 -28 28 -28q10 0 30 7q51 18 64 18q11 0 17 -5t6 -17q0 -23 -52.5 -45t-80.5 -22q-36 0 -68 65q-22 45 -39 62q-55 -30 -107 -50t-77 -20z" />
    <glyph glyph-name="R" unicode="R" horiz-adv-x="546" 
d="M567 78q-38 -18 -50 -22q-38 -14 -72 -14t-61 14q-3 2 -77 60l-80 64q-47 32 -94 32q-31 -80 -51 -126q-39 -86 -69 -86q-25 0 -20 20q2 9 51 133l94 230l50 123q-34 -27 -80 -52q-64 -35 -103 -35q-17 0 -17 15q0 16 34 33l55 23q32 15 55.5 35.5t52.5 54.5l30 42
q16 22 26 22q14 0 19 -5q1 -1 9 -17q21 20 54 37q41 21 74 21q39 0 63 -30t24 -85q0 -68 -113 -184q-92 -94 -154 -129q33 -19 56 -34q44 -28 76 -62q29 -30 56.5 -48t47.5 -18t57 18q19 9 45 24q11 6 22.5 -3t11.5 -23q0 -18 -22 -28zM425 556q0 32 -8 47q-11 21 -38 21
q-44 0 -86 -51q-34 -42 -68 -121l-42.5 -99.5t-27.5 -70.5q23 3 49.5 19t50.5 39q74 67 118 121q52 64 52 95z" />
    <glyph glyph-name="S" unicode="S" horiz-adv-x="484" 
d="M688 620q0 -17 -13.5 -24.5t-40.5 -7.5q-9 0 -55 10q-28 6 -57 6q-14 0 -73.5 -18.5t-117 -44t-88.5 -49.5q-39 -30 -39 -60q0 -31 33 -62q17 -16 43 -34l109 -72q57 -43 57 -80q0 -54 -69 -122q-87 -85 -209 -85q-51 0 -102.5 39.5t-51.5 67.5q0 19 6 24.5t20 5.5
q6 0 24 -15q13 -11 34 -31q14 -13 40 -24.5t46 -11.5q73 0 142 53q64 49 64 89q0 14 -31 40l-127 92q-48 35 -67 58q-26 32 -26 70q0 24 32 59q42 46 113 82t146 57q93 26 180 26q33 0 55.5 -11t22.5 -27z" />
    <glyph glyph-name="T" unicode="T" horiz-adv-x="499" 
d="M772 679q0 -37 -27.5 -62t-69.5 -32q-14 1 -20 2q-20 5 -20 15q0 11 21 21t21 19q0 18 -22 18q-17 0 -91.5 -20l-211.5 -59q-156 -46 -271 -77q-130 -35 -152 -35q-12 0 -22 9t-10 17q0 24 63 36q76 15 132.5 27.5t126.5 31.5q116 32 129 35l248.5 64.5t129.5 31.5
q22 0 34 -10t12 -32zM225 89l32 26q14 10 21 5q4 -3 4 -7q-1 -7 -1 -10q0 -21 -54 -82.5t-67 -61.5q-7 0 -10 4q-6 7 -4 20q4 30 37 129l29 86l74 228q21 64 34 98q6 14 12.5 22.5t17.5 8.5q7 -1 10.5 -11t3.5 -22q0 -7 -18 -62q-13 -41 -42 -126l-48 -146z" />
    <glyph glyph-name="U" unicode="U" horiz-adv-x="530" 
d="M578 533q0 -25 -82 -134l-86 -112l-55 -97q-27 -51 -27 -66q0 -25 6 -42.5t20 -17.5q28 0 85 26l69 34q6 2 17 5t17 3q10 0 15 -4.5t5 -12.5q0 -16 -20 -25q-63 -30 -98 -45q-64 -27 -108 -27q-29 0 -42 19t-13 50q0 12 1.5 26t21.5 67l-119 -94q-100 -78 -131 -78
q-27 0 -43.5 12.5t-16.5 36.5q0 48 52 161q47 101 108 193l79.5 119.5t64.5 59.5q22 0 22 -20q0 -32 -84 -133q-53 -64 -78 -107q-35 -59 -69 -130q-44 -92 -47 -116q-4 -27 17 -27q17 0 72 40q24 17 73 57l126 100q49 86 115 183q87 128 109 126q19 0 23 -11q1 -3 1 -19z
" />
    <glyph glyph-name="V" unicode="V" horiz-adv-x="424" 
d="M543 428q0 -12 -12.5 -19t-28.5 -7q-14 0 -29.5 16.5t-21.5 35.5q-15 -24 -90 -136l-75 -112q-50 -74 -104 -137q-59 -69 -76 -69q-15 0 -21.5 8t-6.5 29q0 11 24 154t24 165q0 14 -9.5 24.5t-9.5 29.5q0 15 3 29t23 39q24 30 43 30q17 0 17 -9q-3 -14 -3 -23
q0 -6 -25 -174t-25 -181q0 -9 10 -9q15 0 78 90q20 28 61 90q27 40 88 139q54 87 83 126q41 55 62 55q7 0 12 -7t4 -15q0 -4 -23 -40q-12 -19 -12 -38q0 -36 20 -55t20 -29z" />
    <glyph glyph-name="W" unicode="W" horiz-adv-x="704" 
d="M881 598q0 -23 -59 -126q-64 -112 -127 -188l-98 -116q-58 -65 -97 -96q-50 -40 -85 -40q-27 0 -45 20t-18 38t6 43t15 53q-90 -81 -162 -131q-79 -55 -120 -55q-23 0 -37.5 18.5t-14.5 43.5q0 21 35 112q11 30 35 88l-67 -58q-40 -34 -50 -34q-18 0 -17 12q0 13 14 25
q33 30 52 49q30 30 113 127q62 72 73 72q7 0 13 -4t7 -9q1 -6 -40 -83q-30 -56 -42 -85q-35 -82 -52 -127q-22 -58 -22 -73q0 -8 6.5 -15.5t14.5 -6.5q33 0 133 83l96 81q37 30 65 75q43 69 56 69q26 0 30 -24q0 -4 -38.5 -102.5t-38.5 -117.5q0 -9 6.5 -17.5t14.5 -8.5
q19 0 41 14q37 24 84 82l88 109q62 79 79 111q-8 1 -15 2.5l-18 4t-20 14.5t-9 30q0 46 55 115q61 76 121 76q18 0 30 -18q9 -13 9 -32zM814 564q1 8 1 11q0 8 -9 8q-19 0 -54.5 -48t-35.5 -80q0 -10 7.5 -21t17.5 -12q28 43 45 73q28 50 28 69z" />
    <glyph glyph-name="X" unicode="X" horiz-adv-x="567" 
d="M554 46q-3 -15 -14 -23.5t-21 -8.5q-24 0 -116 127l-74 107l-49 -43q-74 -63 -96 -83l-89.5 -81t-54.5 -39q-3 0 -7 5q-10 13 -8 25q2 10 104.5 107.5t168.5 154.5l-71 103q-48 74 -44 95q1 5 11 15t17 11q17 0 81 -103l48 -77l156.5 142t109.5 72q14 0 22 -3.5t8 -10.5
q0 -8 -20 -23q-11 -8 -28 -23l-110 -97l-109 -101q18 -24 120 -150q68 -83 65 -98z" />
    <glyph glyph-name="Y" unicode="Y" horiz-adv-x="373" 
d="M58 -19q0 19 55 112q60 99 68 113l-15 122q-16 131 -16 142q-6 -16 -9 -21q-9 -15 -22 -18q-6 -1 -9.5 4t-1.5 10q15 69 26 100q21 61 43 61q14 0 19.5 -41t5.5 -107q0 -55 5 -112.5t10 -75.5q11 18 36 63l47 87q45 84 70 120q38 56 60 56q7 0 12 -3.5t7 -15.5l-294 -496
q8 5 12 7q15 9 20 13q13 11 21 5q4 -3 4 -7q-1 -7 -1 -10q0 -22 -57.5 -78t-75.5 -56q-12 0 -16 7.5t-4 18.5z" />
    <glyph glyph-name="Z" unicode="Z" horiz-adv-x="552" 
d="M671 490q0 -10 -44 -43q-28 -21 -109 -76.5t-136 -97.5l-124 -95l-142 -114q54 15 134.5 29.5t132 20t104.5 5.5q18 0 32.5 -10.5t12.5 -24.5q-4 -26 -50 -26q-12 0 -42 1t-49 1q-33 0 -55.5 -1t-55.5 -7q-18 -3 -161 -40l-136 -35q-16 0 -19.5 5t-3.5 21q0 18 62 56
q40 24 62 41l217 164q12 10 163 128q67 53 84 69l-354 -35q-32 0 -52 8t-20 28q0 19 11.5 29.5t40.5 10.5q16 0 49 -10q16 -5 28 -5q101 0 227 12q43 4 109 13q19 1 31 1q23 0 38 -4.5t15 -18.5z" />
    <glyph glyph-name="bracketleft" unicode="[" horiz-adv-x="422" 
d="M558 741q0 -13 -11.5 -17t-33.5 -4l-127 -8q-25 -59 -63 -176l-56 -176l-36 -117q-45 -146 -63 -219h136q64 0 64 -12q0 -14 -12.5 -24.5t-31.5 -10.5q-22 0 -97.5 -2t-78.5 -2q-42 0 -42 28q0 3 2 11q20 74 52 180l50 163l49.5 152.5l51.5 157.5q26 77 34.5 84.5
t42 11.5t113.5 4h18q16 0 27.5 -5.5t11.5 -18.5z" />
    <glyph glyph-name="backslash" unicode="\" horiz-adv-x="398" 
d="M365 -19q0 -7 -6.5 -11t-14.5 -5q-11 0 -17 5q-19 48 -56.5 134.5l-83.5 187.5l-65 138.5l-63 135.5q-28 62 -28 71t7.5 15.5t17.5 6.5t18 -17q2 -5 6 -17q24 -44 69 -138l79.5 -172l61.5 -140q38 -88 53 -126q22 -55 22 -68z" />
    <glyph glyph-name="bracketright" unicode="]" horiz-adv-x="356" 
d="M-42 -20q0 13 11.5 16.5t32.5 3.5l127 8q25 59 63 176l56 176l36 117q45 146 63 219h-136q-64 0 -64 12q0 15 12.5 25.5t31.5 10.5q22 0 97.5 2t78.5 2q42 0 42 -29q0 -3 -2 -11q-20 -74 -52 -180l-50 -163l-49.5 -152.5l-51.5 -157.5q-26 -76 -33 -82q-13 -12 -66 -14.5
t-108 -2.5q-16 0 -27.5 5.5t-11.5 18.5z" />
    <glyph glyph-name="asciicircum" unicode="^" horiz-adv-x="562" 
d="M646 802q-2 -21 -10 -28.5t-40 -7.5q-27 0 -47 17q-15 13 -30.5 39.5l-30.5 51.5l-72 -46l-138 -86q-77 -46 -88 -46q-24 0 -24 18q0 22 49.5 51l98.5 57l107 74q60 40 79 40q16 0 29 -18q6 -8 23 -42q11 -24 21 -40t19 -16q26 0 40 -3.5t14 -14.5z" />
    <glyph glyph-name="underscore" unicode="_" horiz-adv-x="697" 
d="M598 -50q0 -14 -11.5 -21.5t-29.5 -9.5l-262.5 -22.5t-171.5 -11.5q-34 0 -55 4t-21 20q0 20 13.5 25.5t49.5 5.5h42q21 0 42 0.5t46.5 4.5t159 16t157.5 12q14 0 27.5 -7t13.5 -16z" />
    <glyph glyph-name="grave" unicode="`" horiz-adv-x="451" 
d="M450 774q3 -17 -8 -24q-7 -4 -30 -8q-13 -2 -114.5 45t-101.5 61q0 9 11.5 11.5t32.5 2.5q69 -21 103 -33q104 -37 107 -55z" />
    <glyph glyph-name="a" unicode="a" horiz-adv-x="710" 
d="M360 0q-31 0 -56 17t-29 38q-62 -35 -115 -51q-43 -12 -78 -12q-26 0 -43 17.5t-17 36.5q0 12 30 47l26 31q-15 -9 -33.5 -16t-36.5 -13q-6 -2 -12 -2q-17 0 -21 14q-3 12 2 17t18 10q61 24 75 30t48 26l115 64q95 52 123 52q40 0 51 -16q5 -7 5 -30q0 -17 -3.5 -28.5
t-14.5 -35.5q5 2 36 25q21 15 36 15q20 0 20 -24q0 -25 -50 -63l-80 -61q-5 -5 -5 -12q0 -4 2 -7q6 -9 18 -9q34 0 77 7t76 17q66 20 102 30l104 26q12 3 20 3q16 0 22 -11q6 -10 -4 -18t-28 -14l-131 -42q-80 -25 -146 -41.5t-103 -16.5zM320 230q-29 0 -110.5 -59.5
t-117.5 -108.5q-1 -7 2.5 -11.5t13.5 -4.5q40 0 63 9q5 2 51 25l37 29q55 30 61 35q4 18 10.5 40.5t6.5 29.5q0 16 -17 16z" />
    <glyph glyph-name="b" unicode="b" horiz-adv-x="654" 
d="M666 102q-62 -27 -96 -40q-63 -24 -120 -24q-40 0 -85 29l-55 41q1 -4 2.5 -18.5t1.5 -21.5q0 -29 -53 -71q-62 -50 -127 -50q-48 0 -71 35q-19 28 -19 74q0 17 4.5 28l9.5 24q-9 -3 -25 -6.5t-28.5 -8.5t-18.5 -5q-9 0 -13 12q-4 9 2 18.5t26.5 18t34.5 19l28 20.5
q21 63 39 104q31 70 67 118q82 109 126 139.5t96 30.5q19 0 24.5 -8.5t5.5 -31.5q0 -49 -57 -125q-44 -59 -124 -135q-56 -54 -119 -106q-15 -38 -18.5 -55t-3.5 -55q0 -23 10.5 -37.5t30.5 -14.5q40 0 75 21t44 55q3 10 -12.5 37t-13.5 35q4 13 13.5 22.5t28.5 9.5
q4 0 22.5 -12.5t31.5 -19.5q5 -2 60 -40q32 -22 68 -22q26 0 65 10q50 13 115 40q18 7 30 7t15.5 -6.5t3.5 -11.5q0 -8 -5.5 -13.5t-15.5 -9.5zM356 506l-62 -49q-51 -57 -109 -135t-58 -91q0 -2 2 -2t9 5q58 45 138 141q85 103 80 131z" />
    <glyph glyph-name="c" unicode="c" horiz-adv-x="598" 
d="M616 96l-117 -46q-97 -37 -173 -59q-99 -30 -146 -30q-66 0 -95 25q-22 18 -35 64q-3 12 3 30q3 9 13 30q-17 -4 -30.5 -9.5t-24 -8.5t-20.5 -3t-14.5 6t-4.5 12q0 16 17.5 22t94.5 41t122 52q8 3 83 35q35 15 43 15q26 0 36 -6t10 -30q0 -20 -24 -62q-28 -48 -51 -48
t-23 26q0 15 8 29q-7 5 -8 7.5t-10 2.5q-22 0 -87 -46q-72 -51 -72 -81q0 -31 14 -43.5t79 -12.5q26 0 78 15q13 4 178 61l114 42q12 5 19 7q14 5 22 5q4 0 7 -1q3 -3 4 -3q6 -5 6 -15q0 -17 -16 -23z" />
    <glyph glyph-name="d" unicode="d" horiz-adv-x="740" 
d="M752 94q-63 -33 -131 -61q-82 -33 -121 -33q-37 0 -56.5 19.5t-19.5 60.5q-75 -40 -122 -55q-76 -25 -162 -25q-48 0 -68 37q-14 26 -14 69q-15 -5 -23 -7q-27 -8 -35.5 -12.5t-17.5 -4.5q-18 0 -23 20q-2 11 19 22l21 10l85 42l140 66.5t116 33.5q54 0 91 -19t37 -53
q10 24 46 86q29 50 32 56q32 63 90 135q68 85 98 85q20 0 26 -11t6 -27q0 -34 -85 -137l-131 -157q-25 -32 -43.5 -71t-18.5 -69q0 -16 5.5 -26t20.5 -10q26 0 70 16q18 7 142 62q23 10 37 10t17 -10q4 -9 -2.5 -20.5t-25.5 -21.5zM412 172q0 20 -21.5 32t-48.5 12
q-55 0 -143.5 -42t-88.5 -78q0 -28 7 -37t33 -9q42 0 96 17q37 12 98 37q39 17 51 27q17 15 17 41z" />
    <glyph glyph-name="e" unicode="e" horiz-adv-x="478" 
d="M492 94q-108 -47 -178 -64.5t-167 -17.5q-52 0 -98 32.5t-46 63.5q0 67 62 146q69 88 151 88q36 0 46 -17q5 -9 5 -40q0 -42 -61 -88l-135 -78q0 -14 26 -33.5t59 -19.5q72 0 125 11t177 53q17 5 26 5q14 0 19.5 -8.5t5.5 -13.5q0 -11 -17 -19zM210 279q0 7 -15 7h-8
t-4 -1q-50 -34 -63 -47q-25 -25 -52 -66q56 25 96 54q46 33 46 53z" />
    <glyph glyph-name="f" unicode="f" horiz-adv-x="560" 
d="M576 94q-70 -28 -118 -35q-21 -3 -95 -3q-58 0 -100.5 6.5t-68.5 21.5q8 -45 8 -125q0 -25 -2 -48.5t-12 -54.5q-31 -91 -114.5 -175t-141.5 -84q-18 0 -27 19.5t-9 43.5q0 60 24 124q16 43 60 122q62 112 72 132l27 51q17 30 20 37l-85 -32q-29 -10 -33 -10q-6 0 -12 10
q-4 10 -4 15q0 12 16 19l139 50q23 51 61 120q58 106 109 176q66 90 102 90q17 0 26.5 -3t9.5 -25q0 -20 -54 -88l-108 -136q-69 -89 -94 -142q14 -20 25 -28t37 -16.5t61 -15t74 -6.5q11 1 21 1h15h22q29 0 55 5t70 23q11 5 20 5q7 0 18 -8q5 -4 5 -12q0 -16 -19 -24z
M156 -39q0 25 -5 86q-1 20 -5 57q-69 -110 -143 -264q-59 -125 -59 -163q0 -20 7 -20q26 0 72 42q53 47 93 116.5t40 145.5z" />
    <glyph glyph-name="g" unicode="g" horiz-adv-x="670" 
d="M676 94q-54 -24 -81 -32q-13 -4 -70.5 -15.5t-92.5 -17t-68 -5.5q-2 -6 -7 -16q-1 -3 -17 -29q-56 -99 -69 -120q-64 -104 -123 -168q-78 -85 -137 -85q-28 0 -39.5 17t-11.5 39q0 61 58 147q54 80 136 150q74 65 134 87q-8 9 -10 12q-5 6 -24 6q-23 -10 -48.5 -20
t-53.5 -10q-39 0 -62.5 20.5t-23.5 51.5l-42.5 -13.5t-35.5 -7.5q-16 0 -21 15q-4 11 2 20t20 14l77 26q35 48 96 80q38 20 69.5 27.5t78.5 7.5q35 0 62 -14.5t27 -43.5q0 -21 -22.5 -51t-58.5 -56q17 -2 28.5 -11t23.5 -25q32 0 65 4.5t73 13.5l73 17t73 23q8 3 14 3
q7 0 13 -3t8.5 -7t2.5 -10q0 -13 -16 -21zM327 202q0 9 -10.5 14.5t-23.5 5.5q-38 4 -97 -21q-68 -29 -68 -65q-1 -13 -1 -20q0 -14 5.5 -21t23.5 -7q69 0 125 50q46 41 46 64zM292 4l-46 -33q-48 -36 -58 -46q-61 -58 -107 -117q-63 -81 -63 -125q0 -6 6.5 -10.5t10.5 -4.5
q34 0 89 70q40 50 95 144q72 120 73 122z" />
    <glyph glyph-name="h" unicode="h" horiz-adv-x="686" 
d="M664 134q13 5 25 5q16 0 19 -11q3 -9 -3.5 -17.5t-16.5 -12.5q-113 -47 -131 -53q-68 -23 -127 -23q-51 0 -70 56.5t-25 56.5q-30 0 -102 -55t-91 -55q-22 0 -40 13.5t-21.5 33t-3.5 26.5q0 11 5 26q-12 -5 -32 -16q-15 -8 -31.5 -15t-23.5 -7q-14 0 -20 16q-3 12 -3 13
q0 13 15 19q22 9 33 13q37 14 84 45q15 22 49 83q38 67 63 107q44 71 95 139q25 38 56 71q64 69 111 69q16 0 30 -17q18 -21 18 -55q0 -79 -76 -174q-59 -74 -159 -151q-68 -53 -135 -92q-6 -13 -9.5 -26l-6.5 -24q0 -11 0.5 -21.5t7.5 -10.5q22 0 89.5 53.5t115.5 53.5
q35 0 47 -62.5t40 -62.5q59 0 137 28q4 1 87 34zM483 581q0 5 -6.5 10t-7.5 7q-61 -30 -127 -112q-50 -62 -98 -144l-50 -92q72 38 180.5 164.5t108.5 166.5z" />
    <glyph glyph-name="i" unicode="i" horiz-adv-x="448" 
d="M422 442q0 -10 -7.5 -14.5t-23.5 -9t-29 -7.5q-17 -7 -19 -29t-33 -22q-15 0 -23.5 15t-8.5 31q0 26 38.5 44t73.5 18q11 0 21.5 -7.5t10.5 -18.5zM472 100l-199 -75q-133 -48 -177 -48q-27 0 -51.5 14t-24.5 35q5 12 8 20q20 44 42 72q-27 -10 -41.5 -17t-28.5 -13
q-17 -6 -29 14q-4 7 1 16t13 12l87 38q37 16 75 52l57 58q4 4 11 4q8 0 14.5 -5.5t6.5 -14.5q0 -10 -78 -105q-46 -56 -72 -105q-3 -6 -3 -12q0 -18 17 -18q34 0 160 47l168 63q27 8 41 8q16 0 19 -10q2 -5 0.5 -14.5t-16.5 -15.5z" />
    <glyph glyph-name="j" unicode="j" horiz-adv-x="456" 
d="M368 392q0 -12 -9.5 -19.5t-25.5 -9.5t-24.5 -9t-10 -14.5t-11 -15t-17.5 -8.5q-18 0 -26 5q-14 9 -14 33q0 18 20 37q26 25 66 25q24 0 38 -6.5t14 -17.5zM450 136q24 8 37 8q10 0 13 -6t3 -11q0 -14 -34 -27t-58 -21q-16 -5 -87 -25l-194 -54q-23 -25 -54 -75.5
l-40 -65.5l-59 -104q-43 -68 -84 -104q-55 -48 -114 -48q-42 0 -58 14t-16 52q0 63 40 126q30 48 98 114q52 50 134 89q35 16 115 44q20 24 49 63l29 41l-160 -52q-11 -4 -21 -4q-13 0 -18 12q-3 6 3 16t11 12q52 20 127 45q104 35 118 35q11 0 16 -6q1 -2 2 -6
q0 -7 -29 -58.5t-49 -79.5q37 6 47 8q28 6 97 26t88 26q25 9 48 16zM60 -9q-42 -20 -65 -33q-73 -40 -110 -77q-60 -59 -87 -99q-37 -55 -37 -105q0 -13 6.5 -16.5t21.5 -3.5q45 0 104 77q13 17 100 153l39 64t28 40z" />
    <glyph glyph-name="k" unicode="k" horiz-adv-x="605" 
d="M354 8q-41 0 -60 6q-19 9 -32 14l-62 25q-33 17 -33 44q1 6 1 9q3 18 39 36q16 8 45.5 19l63.5 23q38 15 38 30q0 13 -7 17.5t-17 4.5q-12 0 -36.5 -13t-58 -34.5l-65.5 -42.5q-18 -21 -79 -100q-47 -61 -55 -61q-16 0 -20 8t-4 23q0 17 22 44.5l44 55.5q-15 -5 -34 -13
q-28 -12 -44 -17q-7 -2 -11 -2q-17 0 -19 6.5t-2 13.5q0 9 3.5 16.5t13.5 11.5l72 31q18 8 59 31l67 140q61 116 115 182q75 90 140 90q26 0 48 -15q32 -22 32 -67q0 -46 -90 -126l-218 -178q42 29 77 48q39 22 61 22q23 0 41 -14q23 -18 23 -50q0 -59 -102 -97
q-63 -21 -84 -27q27 -20 60 -32q18 -7 32.5 -10.5t33.5 -3.5q31 0 110 31l116 47q16 6 20 7q14 4 22 4q9 0 12 -5.5t3 -10.5q0 -9 -8.5 -16.5t-18.5 -12.5q-93 -42 -137 -59q-84 -33 -117 -33zM436 556q-23 0 -59 -34q-26 -25 -61 -68q-28 -34 -59 -82.5t-49 -85.5l84 63
q74 57 116 97q58 55 58 80q0 17 -7.5 23.5t-22.5 6.5z" />
    <glyph glyph-name="l" unicode="l" horiz-adv-x="528" 
d="M532 89q-123 -50 -125 -51q-97 -32 -201 -32q-67 0 -102 38q-14 15 -36 66q-12 -5 -35.5 -13.5l-31.5 -11.5t-17 -3q-13 0 -17 14q-5 23 12 30l87 32l39.5 74.5t74 114t93.5 124.5q55 66 105 104q57 43 104 43q20 0 27 -10t9 -28q0 -60 -41 -127q-63 -103 -217 -213
l-57 -39q-28 -18 -77 -47l2 -30q0 -36 28.5 -53t75.5 -17q78 0 160 30l116 48q19 7 32 7q12 0 16.5 -7.5t4.5 -14.5q0 -16 -29 -28zM464 550q0 22 -12 22q-39 0 -192 -200l-50 -67q-28 -39 -52 -77q117 63 214 169q92 100 92 153z" />
    <glyph glyph-name="m" unicode="m" horiz-adv-x="946" 
d="M961 100l-116 -50q-75 -32 -124 -48q-66 -21 -99 -21q-44 0 -44 33q0 25 20 67l21 43q0 13 -6 13l-157 -93q-78 -44 -118 -44q-23 0 -23 28q0 20 11 55l10 29l-188.5 -106t-94.5 -40q-20 0 -23 3.5t-3 25.5q0 26 45 78q59 68 64 77q-33 -18 -52 -27l-66 -29
q-16 -8 -27 -8q-16 0 -20 16q-3 9 0.5 16.5t19.5 13.5q29 12 56 25.5t61 32.5q25 14 58 35q62 40 65 40q13 0 19.5 -8.5t6.5 -20.5q0 -41 -85 -129l-20 -33q10 0 79 39.5l135 77.5q72 41 82 41q12 0 12 -22q0 -12 -31.5 -61t-31.5 -61q0 -8 9 -8q20 0 79.5 35.5l119.5 71.5
t80 36q29 0 29 -28q0 -8 -38.5 -74.5t-38.5 -77.5q0 -13 17 -13q23 0 136 44l150 59q10 5 22 5t15 -7t3 -10q0 -13 -19 -21z" />
    <glyph glyph-name="n" unicode="n" horiz-adv-x="666" 
d="M678 90q-61 -28 -137 -56q-92 -34 -123 -34q-52 0 -66 6.5t-14 21.5q0 14 10 37l28 57q-27 -27 -129 -85q-119 -67 -167 -67q-15 0 -19.5 7t-4.5 18q0 13 51 95l40 63q-27 -10 -56 -24q-69 -34 -80 -37t-17 -3q-16 0 -20.5 8t-4.5 13q0 17 23 26l114 50q84 36 102 36
q17 0 23 -5t6 -18q0 -19 -34 -62l-69 -86q-1 -7 11 -7q38 0 154 79t135 79q17 0 17 -21t-15.5 -45.5t-22.5 -34.5t-12.5 -23.5t-5.5 -23.5q0 -11 14 -11q32 0 124 36l128 52q15 5 27 5q9 0 13 -4q6 -6 -1.5 -21t-21.5 -21z" />
    <glyph glyph-name="o" unicode="o" horiz-adv-x="545" 
d="M559 90l-108.5 -48t-100.5 -24h-16q-28 0 -37 1l-39 7q-75 -51 -79 -54q-63 -37 -119 -37q-29 0 -40.5 8.5t-11.5 32.5q0 20 19 66t36 67l-54 -20q-13 -4 -21 0.5t-11 13.5q-7 21 18 31l133 48q31 17 92.5 37t84.5 20q24 0 44.5 -18t20.5 -47q0 -21 -19 -54
q-5 -8 -35 -52q19 -6 48 -6q25 0 118 42q55 25 62.5 27.5t11.5 2.5h6q12 0 16 -7t-1.5 -19t-17.5 -18zM317 153q0 17 -5 23t-28 6q-40 0 -64 -23q-19 -18 -19 -38q0 -13 21 -24q7 -4 40 -17q21 21 35 39q20 24 20 34zM203 45q-26 7 -45 25.5t-22 41.5q-29 -33 -44 -57
q-20 -31 -20 -47q0 -11 12 -11q16 0 52.5 13.5t66.5 34.5z" />
    <glyph glyph-name="p" unicode="p" horiz-adv-x="674" 
d="M692 94q-38 -13 -127 -47q-123 -47 -168 -47q-41 0 -57 12t-16 40q0 11 5.5 32.5t12.5 46.5q0 14 -4.5 22.5t-16.5 8.5q-13 0 -48 -27l-71 -55q-26 -19 -103 -93t-104 -108l-69 -88q-38 -49 -77 -82q-6 -3 -13 -3q-11 0 -15 7q-3 4 -0.5 12.5t4.5 11.5q22 31 97 127
l129 167q75 98 105 145l-63 -46q-29 -19 -77 -36q-9 -4 -20 -4q-16 0 -21 10q-3 8 1.5 17.5t11.5 12.5l41 17.5t49 24.5q38 21 61 36q27 18 59 44q42 35 130 126q56 58 74 58q12 0 16 -11.5t4 -18.5q0 -14 -59 -78l-65 -70l-76 -79q-37 -39 -52 -63q17 10 76 52
q81 57 108 57q26 0 33 -19t7 -56q0 -17 -9.5 -46.5t-10.5 -35.5q0 -13 5.5 -19t22.5 -6q39 0 125 34l129 53q17 6 33 6q18 0 21 -8q3 -7 -4.5 -19.5t-13.5 -14.5z" />
    <glyph glyph-name="q" unicode="q" horiz-adv-x="576" 
d="M596 98q-32 -15 -60 -25l-68 -25l-54 -19l-62 -21q0 -71 -39 -127q-13 -18 -77 -84l-91.5 -93.5t-77.5 -68.5q-38 -26 -70 -26q-13 0 -30.5 10t-17.5 23q0 37 7 62t26.5 55.5t63.5 79.5q35 39 78 82q87 86 118 124t40 63q-15 -5 -54 -21q-56 -23 -92 -23q-42 0 -61.5 12
t-22.5 32q-58 -25 -73 -25q-12 0 -15 10.5t-3 13.5q0 8 6 15t14 10q24 9 79 41q31 18 76 47l128 86q30 18 50 18q23 0 29.5 -6.5t6.5 -35.5q0 -38 -17 -67q-4 -7 -35 -47q12 4 20 10t14 6q18 -1 18 -25v-15q0 -47 -88 -143l-102 -104l-76 -77.5t-58 -70.5q-13 -20 -20 -44.5
t-7 -37.5q0 -10 11 -12q9 -2 65 49t121 117q60 61 81 100.5t21 92.5q0 9 10 14l26 10l37 14.5t47 17.5q44 15 78 29q58 24 67.5 27.5t20.5 7t19 3.5q6 0 9 -3t3 -9q0 -7 -5 -15t-14 -12zM284 238q0 13 -14 12q-12 0 -94 -58q-50 -35 -72 -48q0 -20 10.5 -26t31.5 -6
q32 0 85 52t53 74z" />
    <glyph glyph-name="r" unicode="r" horiz-adv-x="674" 
d="M708 106q-56 -25 -95.5 -36.5t-60.5 -11.5q-29 0 -49 27q-13 18 -26.5 55.5t-18.5 48.5q-13 29 -32 29q-26 0 -40 -15q-20 -25 -40 -47q-32 -36 -90 -116q-35 -47 -52 -47q-21 0 -18 17q1 10 57 98q36 57 47 76q-12 12 -17 16q-18 14 -37 14q-15 0 -50 -24l-57.5 -42
t-62.5 -35q-9 -4 -44 -16q-11 -3 -20 -3q-19 0 -24 11q-3 7 4 16.5t18 14.5q41 14 49 18q27 12 57 31q48 38 67 52q32 25 62 25q32 0 56 -10q14 -6 45 -27q36 30 44 36q12 9 42 9q31 0 47 -10.5t29 -45.5q28 -72 30 -76q18 -36 40 -36q16 0 49 13t55 20t31 7t17 -8
q5 -7 5 -12q0 -9 -17 -16z" />
    <glyph glyph-name="s" unicode="s" horiz-adv-x="501" 
d="M496 282q0 -44 -49.5 -107.5t-138.5 -130.5q-70 -52 -101 -67t-56 -15q-9 0 -20 15t-11 23q0 34 34 70t74 36q17 0 31 -6l29 -16q29 17 87 76q65 66 65 92q0 14 -1.5 19t-10.5 5q-49 0 -244 -106q-46 -25 -100 -48q-30 -13 -70 -28q-4 -2 -9 -3t-9 -1q-14 0 -21 10
q-3 7 0.5 17t15.5 15l60 22q48 18 103 46l172 87q85 39 134 39q22 0 29 -9.5t7 -34.5zM247 48l-35 4q-11 0 -17.5 -8.5t-6.5 -15.5q0 -9 12 -9q8 1 23 11q18 14 24 18z" />
    <glyph glyph-name="t" unicode="t" horiz-adv-x="468" 
d="M546 310q-58 0 -124.5 -11t-77.5 -19q-25 -17 -83 -95q-61 -82 -61 -105q0 -19 6.5 -24.5t24.5 -5.5h13q31 0 94 29l124 57q18 8 28 8q11 0 13.5 -9t2.5 -14q0 -16 -24 -25q-85 -45 -153 -71t-115 -26q-70 0 -70 57q0 51 26 93l56 81l-20 -18q-49 -41 -96 -72
q-25 -16 -56 -30q-24 -11 -46 -18q-8 -3 -18 1t-11 12t5.5 18t14.5 13l35.5 15t44.5 24q19 11 57 37.5l76 52.5q-9 10 -9 25q0 12 63 25q31 6 62 13l120 140q50 59 70 76q4 4 11 4q8 0 14.5 -4.5t8.5 -23.5q0 -10 -57 -84q-53 -69 -75 -92q19 0 91 9q40 5 65 5q39 0 53 1
q71 5 115 5q7 0 15.5 -8.5t8.5 -17.5t-9 -13.5t-33 -4.5q-31 0 -86 -5t-94 -5z" />
    <glyph glyph-name="u" unicode="u" horiz-adv-x="760" 
d="M532 12q-58 0 -82 17q-16 11 -32 49q-4 8 -5 15t-1 14q0 5 1 13t1 10q-10 -5 -112 -59q-134 -71 -186 -71q-13 0 -28 13q-20 17 -20 44q0 12 21 46q12 20 19 29l-31 -13q-47 -20 -62.5 -26t-25.5 -6q-12 0 -18 12q-4 9 0 18.5t16 13.5l104 39.5t75 33.5t57 46
q59 59 67 58q9 0 19.5 -8.5t10.5 -13.5q0 -19 -93 -109t-93 -109q0 -14 14 -14q7 0 80 30q83 34 134 60.5t175 113.5q49 34 55 34q18 0 18 -19q0 -18 -101 -110q-46 -42 -39 -63q6 -18 19 -27q19 -13 53 -13t100 27l101 42q16 4 26 4q17 0 21 -8q5 -9 -1 -17.5t-19 -14.5
q-94 -40 -122 -51q-78 -30 -116 -30z" />
    <glyph glyph-name="v" unicode="v" horiz-adv-x="570" 
d="M586 97q-16 -7 -36.5 -10.5t-62.5 -3.5t-73 24q-23 18 -31 39q-18 -23 -48 -56.5t-53 -55.5q-43 -40 -81 -63q-47 -29 -84 -29q-22 0 -30.5 12.5t-8.5 37.5q0 13 18 54l20 44q6 13 15 35q13 31 13 39q0 12 -16 12q-6 0 -16 -10q-18 -18 -29 -27q-15 -14 -36 -27
q-27 -18 -47 -24q-7 -2 -10 -2q-9 0 -13.5 6.5t-4.5 15.5q0 19 11 22q36 14 69 40q37 34 53 47q27 22 49 22q26 0 35.5 -6t9.5 -30q0 -20 -5.5 -43t-24.5 -65l-27 -58q-6 -14 -6 -19q-1 -9 -1 -12q0 -6 7 -6q25 0 52.5 16.5t56.5 47.5q24 24 58 70l31 43l40 57q18 24 26 24
q20 0 22 -15q0 -9 -4.5 -29t-4.5 -29q0 -13 26.5 -35.5t50.5 -22.5q19 0 34.5 3t29 7t20.5 4q17 0 22 -12q9 -21 -16 -32z" />
    <glyph glyph-name="w" unicode="w" horiz-adv-x="783" 
d="M797 98q-22 -10 -40 -14.5t-57 -4.5q-32 0 -57.5 15t-32.5 37q-50 -58 -95 -96q-75 -61 -130 -61q-43 0 -43 41q0 20 10 52.5t11 38.5q-88 -64 -155.5 -96.5t-106.5 -32.5q-32 0 -42.5 11.5t-10.5 38.5q0 26 17 54q13 22 44 56q-27 -16 -48 -26q-15 -7 -40 -16
q-9 -3 -21 -3q-18 0 -20.5 5t-2.5 13q0 15 13 21l38 16t40 20q78 46 106.5 61.5t37.5 15.5q7 0 13 -6t6 -13q0 -12 -64.5 -90.5t-64.5 -94.5q0 -6 5.5 -10t13.5 -4q21 0 104 44q35 18 144 82q76 44 81 44q12 0 16.5 -10t4.5 -21q0 -2 -30 -39q-22 -26 -41 -68l-3 -18
q0 -13 4 -13q34 0 88 48q25 22 71 73q0 28 15.5 45.5t34.5 17.5q13 0 22 -13l14 -29q12 -25 16 -29q16 -19 44 -19q22 0 36 5t27 9t21 4q16 0 22 -9q3 -5 3 -10q0 -15 -18 -22z" />
    <glyph glyph-name="x" unicode="x" horiz-adv-x="646" 
d="M654 94l-126 -45q-83 -27 -130 -27q-65 0 -103 21.5t-47 51.5q-61 -41 -112 -72q-66 -39 -81 -39q-14 0 -22 3.5t-8 12.5q0 21 125 98l93 56q8 30 23 52v15q-2 3 -10 3q-14 0 -35 -10q-16 -7 -78 -46l-72 -43t-56 -29q-14 -6 -21 -6q-8 0 -11.5 6.5t-3.5 13.5q0 17 18 24
t81 47l50 31q34 22 60 37q53 30 87 30q17 0 32 -13t17 -31q12 14 44 33.5t45 18.5q19 0 19 -27q0 -12 -6 -18t-20 -9t-50 -33q-43 -36 -43 -62q0 -36 36 -53q27 -13 57 -13q35 0 131 31q47 15 91 31q11 3 18 3q16 0 22 -11q3 -5 3 -11q0 -15 -17 -21z" />
    <glyph glyph-name="y" unicode="y" horiz-adv-x="605" 
d="M628 100l-169 -67l-159 -60q-56 -66 -97 -119l-111 -150q-35 -50 -58 -70q-32 -29 -69 -29q-13 0 -28 9q-20 12 -20 31q0 7 -1 26t-1 23q0 38 8 65q12 39 42 70q54 57 150 112q79 46 157 73q35 33 52 56q24 32 24 56q0 10 -10 10q-64 -26 -119.5 -46t-98.5 -20
q-26 0 -44 20q-6 6 -14 21q-12 -5 -26 -8.5t-25 -8.5q-3 -2 -10 -2q-17 0 -21 14q-2 8 2 16t10 11q33 12 53 24q5 3 34 23q3 2 26 25q13 13 29 13q8 0 14.5 -7t5.5 -15q0 -11 -15 -29t-15 -27q0 -4 2.5 -10.5t11.5 -6.5q21 0 118.5 34.5t113.5 34.5q19 0 29 -11.5t10 -41.5
q0 -28 -30 -67q-13 -16 -31 -36q54 24 130.5 52t113.5 38q11 2 21.5 5.5t13.5 3.5q8 0 10.5 -5t2.5 -12q0 -13 -12 -18zM216 -55l-84 -49q-92 -56 -126 -89q-23 -24 -31.5 -52.5t-8.5 -60.5v-25q0 -9 21 -9q13 0 64 65q29 36 95 128q56 77 70 92z" />
    <glyph glyph-name="z" unicode="z" horiz-adv-x="658" 
d="M663 84q-57 -26 -138 -50q-114 -34 -189 -34q-28 0 -52 5.5t-62 17.5q-26 -8 -55 -23q-60 -29 -66 -29q-21 0 -21 17q0 29 56 57q85 42 101.5 55t60.5 40q19 11 33 23q10 8 21.5 22l23.5 29q-28 6 -44.5 9t-40.5 3q-19 0 -51 -8q-73 -18 -82 -18q-10 0 -18.5 5t-11.5 7
l-10 -22t-15 -24q-19 -23 -46 -45t-48 -29q-4 -2 -12 -2q-10 0 -18 9q-3 5 -3 11q0 15 10 20q17 9 37 25.5t39 38.5q8 9 23 44q11 26 23 26q7 0 23.5 -6t28.5 -4q41 10 67 15q49 11 83 11q59 0 91 -10q47 -15 47 -52q0 -23 -31 -51q-11 -10 -40 -31q-53 -39 -101 -69l23 -8
q35 -11 51 -11q39 0 137 25.5t159 51.5q6 3 13 3q18 0 23 -15q4 -11 -2.5 -18t-16.5 -11z" />
    <glyph glyph-name="braceleft" unicode="{" horiz-adv-x="342" 
d="M446 649q3 -26 -29 -26h-35q-25 0 -41 -6t-29.5 -25.5t-29.5 -69.5q-39 -122 -56 -153q-10 -19 -39.5 -23.5t-45.5 -5.5q21 -8 32 -18t11 -24q0 -31 -5.5 -65t-17.5 -80q-20 -70 -26 -99t-6 -46q0 -11 16 -14.5t46 -3.5h33h38q16 -2 16 -13q0 -20 -18 -26t-52 -6
q-10 0 -19 0.5t-18 0.5q-49 0 -64 7q-24 11 -24 51q0 27 12 80l18.5 80t9.5 38q12 44 12 64q2 15 -9 25t-24 14t-21.5 15t-8.5 26q2 14 12 26t28 12q24 0 49 6.5t33 18.5q20 29 36 83q33 111 50 131q25 29 54.5 35.5t80.5 6.5q29 0 31 -16z" />
    <glyph glyph-name="bar" unicode="|" horiz-adv-x="409" 
d="M473 658q0 -20 -31.5 -84.5t-76.5 -146.5l-90 -163l-80 -147q-47 -87 -72 -139q-33 -69 -38.5 -98.5t-15.5 -36.5q-4 -3 -21 -5q-8 3 -11 5q-11 7 -8 19q5 39 81 185l143 272l163 310q2 4 18 42q12 29 32 29q10 0 10 -12q-3 -18 -3 -30z" />
    <glyph glyph-name="braceright" unicode="}" horiz-adv-x="366" 
d="M17 -37q-4 25 29 25h27q31 0 47.5 5t31 26t40.5 112t46 129q8 17 31 22q6 1 54 7q-21 8 -32 18t-11 24q0 28 7.5 67.5t21 88t17.5 64.5q8 31 8 51q0 12 -15.5 15.5t-46.5 3.5h-32h-21q-13 0 -23.5 1.5t-10.5 11.5q0 19 18 25.5t48 6.5q10 0 20.5 -0.5t20.5 -0.5
q43 0 52 -2q36 -8 36 -56q0 -21 -6 -51t-19 -80q-1 -4 -17 -59q-10 -34 -10 -54q-1 -16 9 -25t29 -15q11 -3 18 -16t7 -24q0 -14 -11 -26t-29 -12q-24 0 -48.5 -6.5t-33.5 -18.5q-17 -25 -52 -155q-15 -56 -34 -77q-25 -29 -62 -37q-22 -5 -72 -5q-30 0 -32 17z" />
    <glyph glyph-name="asciitilde" unicode="~" horiz-adv-x="560" 
d="M689 898q0 -17 -51 -50.5t-91 -33.5q-33 0 -61 25q-7 6 -26.5 28t-31.5 31q-19 14 -42 16q-23 0 -79 -44.5t-61 -44.5q-10 -1 -15 -1q-13 0 -13 18q0 17 64 70q69 57 109 57q18 0 40 -15q8 -6 37.5 -32.5l47.5 -41.5q24 -20 34 -20q18 0 54 23l35 23q9 6 15.5 7.5
t15.5 1.5q19 0 19 -17z" />
    <glyph glyph-name="quotesinglbase" unicode="&#x201a;" horiz-adv-x="461" 
d="M326 59q0 -36 -73.5 -117t-92.5 -81q-10 0 -11 1t-1 13q0 4 56 73.5t56 95.5q0 22 -31.5 38.5t-31.5 35.5q0 28 31 28q28 0 60 -24q38 -29 38 -63z" />
    <glyph glyph-name="quotedblbase" unicode="&#x201e;" horiz-adv-x="660" 
d="M326 59q0 -36 -73.5 -117t-92.5 -81q-10 0 -11 1t-1 13q0 4 56 73.5t56 95.5q0 22 -31.5 38.5t-31.5 35.5q0 28 31 28q28 0 60 -24q38 -29 38 -63zM494 55q0 -36 -73.5 -117t-92.5 -81q-10 0 -11 1t-1 13q0 4 56 73.5t56 95.5q0 22 -31.5 38.5t-31.5 35.5q0 28 31 28
q28 0 60 -24q38 -29 38 -63z" />
    <glyph glyph-name="ellipsis" unicode="&#x2026;" horiz-adv-x="718" 
d="M110 85q21 0 37.5 -14t16.5 -31q0 -18 -15 -28t-36 -10q-18 0 -26.5 6.5t-8.5 15.5q0 19 9 40t23 21zM347 86q18 0 33.5 -15.5t15.5 -27.5q0 -18 -15.5 -31t-37.5 -13q-13 0 -22.5 8.5t-9.5 28.5q0 16 10 33t26 17zM588 82q16 0 35 -17t17 -29q-2 -17 -19 -29.5
t-39 -12.5q-18 0 -26 7.5t-8 18.5q0 19 12 40.5t28 21.5z" />
    <glyph glyph-name="circumflex" unicode="&#x2c6;" horiz-adv-x="562" 
d="M646 802q-2 -21 -10 -28.5t-40 -7.5q-27 0 -47 17q-15 13 -30.5 39.5l-30.5 51.5l-72 -46l-138 -86q-77 -46 -88 -46q-24 0 -24 18q0 22 49.5 51l98.5 57l107 74q60 40 79 40q16 0 29 -18q6 -8 23 -42q11 -24 21 -40t19 -16q26 0 40 -3.5t14 -14.5z" />
    <glyph glyph-name="guilsinglleft" unicode="&#x2039;" horiz-adv-x="486" 
d="M389 282q0 -8 -48 -39.5l-98 -63.5l-65 -44l-56 -43l62 -18q55 -15 79 -24q35 -13 35 -20q0 -27 -27 -27q-10 0 -43 7q-11 2 -65 16t-79 24q-33 13 -33 23q0 14 4.5 23.5t17.5 19.5l137 102q54 39 95 64q46 28 62 28q23 0 23 -16q-1 -7 -1 -12z" />
    <glyph glyph-name="quoteleft" unicode="&#x2018;" horiz-adv-x="350" 
d="M148 583q0 36 73.5 117.5t92.5 81.5q10 0 11 -1t1 -13q0 -4 -56 -74t-56 -96q0 -22 31.5 -38.5t31.5 -35.5q0 -28 -31 -28q-28 0 -60 24q-38 29 -38 63z" />
    <glyph glyph-name="quoteright" unicode="&#x2019;" horiz-adv-x="350" 
d="M362 669q0 -36 -73.5 -117.5t-92.5 -81.5q-10 0 -11 1t-1 13q0 4 56 74t56 96q0 22 -31.5 38.5t-31.5 35.5q0 28 31 28q28 0 60 -24q38 -29 38 -63z" />
    <glyph glyph-name="quotedblleft" unicode="&#x201c;" horiz-adv-x="412" 
d="M320 569q0 36 73.5 117.5t92.5 81.5q10 0 11 -1t1 -13q0 -4 -56 -74t-56 -96q0 -22 31.5 -38.5t31.5 -35.5q0 -28 -31 -28q-28 0 -60 24q-38 29 -38 63zM152 573q0 36 73.5 117.5t92.5 81.5q10 0 11 -1t1 -13q0 -4 -56 -74t-56 -96q0 -22 31.5 -38.5t31.5 -35.5
q0 -28 -31 -28q-28 0 -60 24q-38 29 -38 63z" />
    <glyph glyph-name="quotedblright" unicode="&#x201d;" horiz-adv-x="412" 
d="M305 659q0 -36 -73.5 -117.5t-92.5 -81.5q-10 0 -11 1t-1 13q0 4 56 74t56 96q0 22 -31.5 38.5t-31.5 35.5q0 28 31 28q28 0 60 -24q38 -29 38 -63zM473 655q0 -36 -73.5 -117.5t-92.5 -81.5q-10 0 -11 1t-1 13q0 4 56 74t56 96q0 22 -31.5 38.5t-31.5 35.5q0 28 31 28
q28 0 60 -24q38 -29 38 -63z" />
    <glyph glyph-name="bullet" unicode="&#x2022;" horiz-adv-x="474" 
d="M186 258q0 28 21 47t51 19q28 0 47 -21t19 -51q0 -28 -21 -47t-51 -19q-28 0 -47 21t-19 51z" />
    <glyph glyph-name="endash" unicode="&#x2013;" horiz-adv-x="730" 
d="M601 224q0 -34 -44 -34q-27 0 -79 -1t-94 -1q-44 0 -95.5 -1.5t-112.5 -2.5q-16 0 -24 4t-8 10q0 17 5.5 29.5t16.5 12.5q24 0 108 2t108 2l168 1q20 0 35.5 -4t15.5 -17z" />
    <glyph glyph-name="emdash" unicode="&#x2014;" horiz-adv-x="814" 
d="M786 224q0 -28 -42 -28l-356 -10q-45 0 -145 -7t-133 -7q-16 0 -24 4t-8 10q0 20 3 29t13 9q14 0 118 8t172 8q85 0 205 5t155 5q18 0 30 -6t12 -20z" />
    <glyph glyph-name="tilde" unicode="&#x2dc;" horiz-adv-x="560" 
d="M689 898q0 -17 -51 -50.5t-91 -33.5q-33 0 -61 25q-7 6 -26.5 28t-31.5 31q-19 14 -42 16q-23 0 -79 -44.5t-61 -44.5q-10 -1 -15 -1q-13 0 -13 18q0 17 64 70q69 57 109 57q18 0 40 -15q8 -6 37.5 -32.5l47.5 -41.5q24 -20 34 -20q18 0 54 23l35 23q9 6 15.5 7.5
t15.5 1.5q19 0 19 -17z" />
    <glyph glyph-name="guilsinglright" unicode="&#x203a;" horiz-adv-x="486" 
d="M423 232q0 -16 -3.5 -24.5t-18.5 -18.5l-137 -102q-54 -39 -97.5 -65t-59.5 -26q-23 0 -23 15q1 7 1 12q0 8 48 39l98 64q41 26 65 44l57 44l-62 17q-55 15 -79 24q-35 13 -35 20q0 19 8 23t19 4q10 0 58 -11q19 -4 55 -13q50 -14 73 -23q33 -13 33 -23z" />
    <glyph glyph-name="Ydieresis" unicode="&#x178;" horiz-adv-x="373" 
d="M58 -19q0 19 55 112q60 99 68 113l-15 122q-16 131 -16 142q-6 -16 -9 -21q-9 -15 -22 -18q-6 -1 -9.5 4t-1.5 10q15 69 26 100q21 61 43 61q14 0 19.5 -41t5.5 -107q0 -55 5 -112.5t10 -75.5q11 18 36 63l47 87q45 84 70 120q38 56 60 56q7 0 12 -3.5t7 -15.5l-294 -496
q8 5 12 7q15 9 20 13q13 11 21 5q4 -3 4 -7q-1 -7 -1 -10q0 -22 -57.5 -78t-75.5 -56q-12 0 -16 7.5t-4 18.5zM391 720q0 -24 -26 -36q-8 -3 -17 -3q-19 0 -34.5 12.5t-13.5 29.5q4 25 31 33q8 2 14 2q19 0 32.5 -10.5t13.5 -27.5zM235 718q0 -24 -26 -36q-8 -3 -17 -3
q-19 0 -34.5 12.5t-13.5 29.5q4 25 31 33q8 2 14 2q19 0 32.5 -10.5t13.5 -27.5z" />
    <glyph glyph-name="nonbreakingspace" unicode="&#xa0;" horiz-adv-x="600" 
 />
    <glyph glyph-name="sterling" unicode="&#xa3;" horiz-adv-x="554" 
d="M739 679q0 -20 -23 -38l-31 -19q-81 -52 -167.5 -98.5l-174.5 -93.5q-15 -36 -40 -76q14 0 27.5 1t22.5 1q46 0 119 8t89 8q27 0 39.5 -7.5t12.5 -20.5q0 -11 -40.5 -18.5t-81.5 -7.5q-59 0 -113.5 -5.5t-94.5 -12.5l-48 -83q-35 -60 -60 -93q39 -17 75.5 -25t75.5 -8
q46 0 70 9l41 20q6 0 12.5 -0.5t11 -5t4.5 -16.5q0 -15 -45.5 -39.5t-83.5 -24.5q-76 0 -127 9.5t-68 22.5l-28 -44q-19 -29 -50 -29q-22 0 -22 23q0 39 20 67q17 24 54 45l56 78q32 46 58 90q-44 0 -69 9q-39 14 -39 45q0 70 44 112q33 32 63 32q8 0 14 -10t11 -26
q18 8 28 12q18 8 36 18l52 113q47 90 100 139q74 68 166 68q31 0 48 -23t17 -57q0 -13 -3 -28q10 -2 26 -4t16 -17zM649 698q0 32 -14 45t-40 13q-74 0 -156 -138q-3 -5 -54 -102l79 35q58 26 89 47q6 21 39 52q13 13 57 48zM285 410q-6 2 -19 2t-19 -2q-18 -8 -35 -21.5
t-19 -24.5q-2 -15 21 -15h16.5t18.5 1q5 10 16 28z" />
    <glyph glyph-name="brokenbar" unicode="&#xa6;" horiz-adv-x="491" 
d="M554 658q0 -27 -88 -191q-54 -97 -70 -128q-6 -9 -17.5 -16t-18.5 -6t-13 11t-6 20q0 8 2 11l83 161l56 114q18 38 21 42q17 28 40 28q12 0 12 -17q-1 -18 -1 -29zM306 192q0 -12 -33.5 -80.5l-66.5 -134.5q-38 -80 -43.5 -107t-15.5 -33q-1 0 -22 -3q-9 3 -13 5
q-14 9 -11 24q6 37 82 196t90 159q33 0 33 -26z" />
    <glyph glyph-name="dieresis" unicode="&#xa8;" horiz-adv-x="494" 
d="M392 759q0 -24 -26 -36q-8 -3 -17 -3q-19 0 -34.5 12.5t-13.5 29.5q4 25 31 33q8 2 14 2q19 0 32.5 -10.5t13.5 -27.5zM236 757q0 -24 -26 -36q-8 -3 -17 -3q-19 0 -34.5 12.5t-13.5 29.5q4 25 31 33q8 2 14 2q19 0 32.5 -10.5t13.5 -27.5z" />
    <glyph glyph-name="copyright" unicode="&#xa9;" horiz-adv-x="795" 
d="M722 394q0 -131 -96 -224t-228 -93q-131 0 -224 95t-93 228q0 131 96 224t228 93q131 0 224 -95t93 -228zM663 391q0 109 -75 188t-182 79q-109 0 -188 -75t-79 -184t76 -187t185 -78q111 0 187 74t76 183zM574 356q0 -22 -63 -72q-71 -57 -128 -57q-63 0 -96.5 44
t-33.5 107q0 75 49.5 133.5t111.5 58.5q28 0 44.5 -10t14.5 -25q0 -18 -11 -22.5t-53 -4.5q-33 0 -65 -41t-32 -84q0 -53 21 -77t56 -24q34 0 76 31l87 72q12 0 17.5 -1.5t5.5 -11.5q-1 -9 -1 -16z" />
    <glyph glyph-name="guillemotleft" unicode="&#xab;" horiz-adv-x="739" 
d="M620 38q0 -28 -38 -28l-63 46q-37 27 -77 40q-95 32 -117.5 42.5t-22.5 19.5q0 16 43 39q35 19 67 41q30 23 56 40q54 36 68 36q9 0 17.5 -5t8.5 -15q0 -11 -32.5 -37t-71.5 -51q-14 -9 -44 -33q-10 -8 -16 -11q22 -5 34.5 -7.5t47.5 -14.5q27 -8 83.5 -49t56.5 -53z
M404 324q0 -13 -47 -52q-41 -34 -95 -70q-17 -12 -57 -37q-28 -18 -32 -21q6 -5 43.5 -26t61.5 -36l22 -12q13 -9 10 -24q-4 -23 -14 -23q-10 2 -24.5 4t-107.5 48.5t-94 56.5q-1 7 54 45l94 63q82 57 99 68q53 35 65 34q22 0 22 -18z" />
    <glyph glyph-name="logicalnot" unicode="&#xac;" horiz-adv-x="803" 
d="M666 246q0 -10 1.5 -36t1.5 -29q0 -26 -1 -32q-5 -28 -21 -28q-31 0 -37 46q-2 17 -2 50q-21 0 -101.5 -2t-84.5 -2q-48 0 -137.5 -2t-90.5 -2q-18 0 -29 6.5t-11 13.5q0 33 26 33q39 0 64 1q126 5 178 5q92 0 118.5 1.5t64.5 4.5q26 0 43.5 -5.5t17.5 -22.5z" />
    <glyph glyph-name="hyphen" unicode="&#xad;" horiz-adv-x="608" 
d="M515 185q0 -24 -75 -29q-31 -2 -78 -2q-23 0 -71 -1t-73 -1q-28 0 -40 4q-20 7 -20 24q0 12 8.5 17.5t21.5 5.5q10 0 14 -1q76 5 115 7q119 7 141 7q17 0 37 -10.5t20 -20.5z" />
    <glyph glyph-name="registered" unicode="&#xae;" horiz-adv-x="735" 
d="M700 394q0 -131 -96 -224t-228 -93q-131 0 -224 95t-93 228q0 131 96 224t228 93q131 0 224 -95t93 -228zM641 391q0 107 -76 183t-184 76q-110 0 -187 -71t-77 -180t76 -187t185 -78q111 0 187 74t76 183zM541 312q0 -34 -50 -34q-35 0 -71 21q-45 27 -92 85
q0 -23 3 -39t3 -25q3 -20 3 -31q0 -22 -7.5 -29.5t-25.5 -7.5q-28 0 -34 48q-2 16 -2 44v16v13q0 16 -0.5 33t-0.5 34v11q0 53 33 87t76 34q34 3 65.5 -16t31.5 -52q0 -41 -26 -62q-17 -14 -62 -28q47 -77 112 -77q12 1 18 1q13 0 19.5 -5t6.5 -21zM409 502q0 15 -22 15h-11
q-37 0 -48 -41q-4 -11 -2 -26q44 5 58 11q25 11 25 41z" />
    <glyph glyph-name="degree" unicode="&#xb0;" horiz-adv-x="415" 
d="M481 693q0 -57 -119.5 -140t-200.5 -83q-19 0 -27.5 16.5t-8.5 33.5q0 32 46 100q54 80 110 80q31 19 58 30q36 14 68 14q30 0 52 -12t22 -39zM427 674q0 9 -12.5 11.5t-29.5 2.5q-28 0 -60 -17q-11 -6 -48 -31q-22 -46 -34 -63q-21 -29 -58 -47l24 3q26 4 38 9
q64 28 119 65q61 42 61 67z" />
    <glyph glyph-name="plusminus" unicode="&#xb1;" horiz-adv-x="697" 
d="M624 333q-3 -13 -38 -23.5t-75 -10.5q-14 0 -29 5.5t-21 5.5q-2 0 -12 -2t-20 -2q-14 -39 -23 -67t-15 -54q-1 -4 -1 -10q0 -7 4 -13.5t3 -13.5q-3 -14 -38 -59q-38 -49 -55 -49q-5 0 -11 11t-4 19l51 141l34 93q-1 1 -59 -4q-149 -14 -153 -14q-21 0 -26.5 3.5
t-5.5 13.5v12q3 23 86 29q171 12 174 12q36 78 52 104q36 58 66 58q22 0 22 -18q0 -4 -1.5 -11.5t-3.5 -15.5t-40 -54q-21 -25 -32 -54h82q26 0 59 -8.5t30 -23.5zM545 -3q0 -28 -37 -28l-237 -20.5t-153 -10.5q-33 0 -44 2q-25 5 -25 20q0 19 11.5 23.5t45.5 4.5h21t24 -1
q20 0 38 1t36.5 4t141.5 13.5t141 10.5q13 0 25 -6t12 -13z" />
    <glyph glyph-name="acute" unicode="&#xb4;" horiz-adv-x="451" 
d="M452 848q0 -13 -102 -60.5t-114 -45.5q-22 4 -23 4q-18 6 -15 28q2 17 106 54q34 12 104 34q26 0 35 -1.5t9 -12.5z" />
    <glyph glyph-name="paragraph" unicode="&#xb6;" horiz-adv-x="508" 
d="M520 654q-15 -56 -43 -149l-97 -327q-22 -72 -52 -188l-46 -177q-4 -13 -23 -13q-11 0 -19 5t-6 14q16 72 39 159q28 104 57 200l51.5 168.5l50.5 166.5l46 145q9 27 17 42q12 23 27 23q12 0 12 -16q0 -13 -3.5 -24.5t-10.5 -28.5zM411 692l-151 -484q-12 -39 -37 -135
l-36 -139q-12 -49 -29 -107q-6 -18 -28 -18q-21 0 -16 18q40 168 56 230q20 77 46 161q16 52 29 107q5 20 21 94q1 3 1 10q0 17 -10.5 32t-28.5 31q-29 27 -32 30q-14 17 -9 33q20 55 52 82q3 3 75 47q17 10 49 25q10 4 28 12q12 0 18 -9.5t2 -19.5zM352 654
q-58 -33 -84 -57q-21 -19 -23 -28.5t-2 -13v-4.5q0 -10 6 -18q3 -4 14 -13.5t19 -17.5t18 -20z" />
    <glyph glyph-name="periodcentered" unicode="&#xb7;" horiz-adv-x="474" 
d="M193 258q0 25 19 42t46 17q25 0 42 -19t17 -46q0 -25 -19 -42t-46 -17q-25 0 -42 19t-17 46z" />
    <glyph glyph-name="periodcentered" unicode="&#x2219;" horiz-adv-x="474" 
d="M193 258q0 25 19 42t46 17q25 0 42 -19t17 -46q0 -25 -19 -42t-46 -17q-25 0 -42 19t-17 46z" />
    <glyph glyph-name="cedilla" unicode="&#xb8;" horiz-adv-x="422" 
d="M245 3q1 -9 1 -18t-1 -15q-6 -52 -50 -104q-48 -56 -96 -56q-9 0 -18.5 14t-9.5 24q0 12 11 20t31 8q15 0 42 29q32 34 32 67q0 8 1.5 15t1.5 13q-2 22 -2 33q0 13 5 20t19 7q21 0 27 -12t6 -33v-12z" />
    <glyph glyph-name="guillemotright" unicode="&#xbb;" horiz-adv-x="739" 
d="M684 132q-1 -10 -95 -56.5t-108.5 -49t-22.5 -3.5q-5 0 -8.5 4.5t-5.5 18.5q-3 17 13.5 26t18.5 10q21 13 75 44q26 15 30 18l-44 28q-10 6 -45 30q-49 33 -94 69q-48 39 -48 49q0 13 5.5 17.5t16.5 4.5q14 2 88 -49l76 -53q64 -41 94 -62q55 -38 54 -46zM452 158
q0 -8 -27 -20.5t-113 -41.5q-40 -13 -74 -38l-66 -48q-22 0 -30 5.5t-8 22.5q0 11 57 52.5t85 50.5t47.5 13.5l32.5 7.5q-5 2 -24 17.5t-36 26.5q-59 38 -81.5 58.5t-22.5 29.5t8.5 14.5t17.5 5.5q16 0 68 -35q13 -9 56 -41q16 -11 82 -49q28 -16 28 -31z" />
    <glyph glyph-name="Agrave" unicode="&#xc0;" horiz-adv-x="550" 
d="M592 298q0 -11 -14.5 -17.5t-51.5 -14.5l-67.5 -180t-52.5 -87q-7 0 -14.5 10t-7.5 21q0 31 25.5 98l52.5 136q-69 -12 -124 -22.5t-142 -31.5q-5 -8 -79 -143q-50 -90 -73 -90q-7 0 -12 8.5t-4 16.5q0 16 51 107q34 62 43 81q-16 2 -22 5t-6 16q0 2 2 13.5t33.5 24.5
t38.5 17l74 106q47 66 82 106q43 49 60 46q15 -3 20 -24q62 54 97.5 79t50.5 25q20 0 28 -15.5t8 -37.5q0 -19 -15.5 -106t-24.5 -115q19 -2 31.5 -8.5t12.5 -23.5zM518 488q1 9 1 14q0 12 -5 12q-23 0 -123 -86q-104 -90 -143 -148l232 42q14 35 23 70q3 11 15 96zM660 705
q3 -17 -8 -24q-7 -4 -30 -8q-13 -2 -114.5 45t-101.5 61q0 9 11.5 11.5t32.5 2.5q69 -21 103 -33q104 -37 107 -55z" />
    <glyph glyph-name="Aacute" unicode="&#xc1;" horiz-adv-x="550" 
d="M592 298q0 -11 -14.5 -17.5t-51.5 -14.5l-67.5 -180t-52.5 -87q-7 0 -14.5 10t-7.5 21q0 31 25.5 98l52.5 136q-69 -12 -124 -22.5t-142 -31.5q-5 -8 -79 -143q-50 -90 -73 -90q-7 0 -12 8.5t-4 16.5q0 16 51 107q34 62 43 81q-16 2 -22 5t-6 16q0 2 2 13.5t33.5 24.5
t38.5 17l74 106q47 66 82 106q43 49 60 46q15 -3 20 -24q62 54 97.5 79t50.5 25q20 0 28 -15.5t8 -37.5q0 -19 -15.5 -106t-24.5 -115q19 -2 31.5 -8.5t12.5 -23.5zM518 488q1 9 1 14q0 12 -5 12q-23 0 -123 -86q-104 -90 -143 -148l232 42q14 35 23 70q3 11 15 96zM722 764
q0 -13 -102 -60.5t-114 -45.5q-22 4 -23 4q-18 6 -15 28q2 17 106 54q34 12 104 34q26 0 35 -1.5t9 -12.5z" />
    <glyph glyph-name="Acircumflex" unicode="&#xc2;" horiz-adv-x="550" 
d="M592 298q0 -11 -14.5 -17.5t-51.5 -14.5l-67.5 -180t-52.5 -87q-7 0 -14.5 10t-7.5 21q0 31 25.5 98l52.5 136q-69 -12 -124 -22.5t-142 -31.5q-5 -8 -79 -143q-50 -90 -73 -90q-7 0 -12 8.5t-4 16.5q0 16 51 107q34 62 43 81q-16 2 -22 5t-6 16q0 2 2 13.5t33.5 24.5
t38.5 17l74 106q47 66 82 106q43 49 60 46q15 -3 20 -24q62 54 97.5 79t50.5 25q20 0 28 -15.5t8 -37.5q0 -19 -15.5 -106t-24.5 -115q19 -2 31.5 -8.5t12.5 -23.5zM518 488q1 9 1 14q0 12 -5 12q-23 0 -123 -86q-104 -90 -143 -148l232 42q14 35 23 70q3 11 15 96zM736 673
q-2 -21 -10 -28.5t-40 -7.5q-27 0 -47 17q-15 13 -30.5 39.5l-30.5 51.5l-72 -46l-138 -86q-77 -46 -88 -46q-24 0 -24 18q0 22 49.5 51l98.5 57l107 74q60 40 79 40q16 0 29 -18q6 -8 23 -42q11 -24 21 -40t19 -16q26 0 40 -3.5t14 -14.5z" />
    <glyph glyph-name="Atilde" unicode="&#xc3;" horiz-adv-x="550" 
d="M592 298q0 -11 -14.5 -17.5t-51.5 -14.5l-67.5 -180t-52.5 -87q-7 0 -14.5 10t-7.5 21q0 31 25.5 98l52.5 136q-69 -12 -124 -22.5t-142 -31.5q-5 -8 -79 -143q-50 -90 -73 -90q-7 0 -12 8.5t-4 16.5q0 16 51 107q34 62 43 81q-16 2 -22 5t-6 16q0 2 2 13.5t33.5 24.5
t38.5 17l74 106q47 66 82 106q43 49 60 46q15 -3 20 -24q62 54 97.5 79t50.5 25q20 0 28 -15.5t8 -37.5q0 -19 -15.5 -106t-24.5 -115q19 -2 31.5 -8.5t12.5 -23.5zM518 488q1 9 1 14q0 12 -5 12q-23 0 -123 -86q-104 -90 -143 -148l232 42q14 35 23 70q3 11 15 96zM764 744
q0 -17 -51 -50.5t-91 -33.5q-33 0 -61 25q-7 6 -26.5 28t-31.5 31q-19 14 -42 16q-23 0 -79 -44.5t-61 -44.5q-10 -1 -15 -1q-13 0 -13 18q0 17 64 70q69 57 109 57q18 0 40 -15q8 -6 37.5 -32.5l47.5 -41.5q24 -20 34 -20q18 0 54 23l35 23q9 6 15.5 7.5t15.5 1.5
q19 0 19 -17z" />
    <glyph glyph-name="Adieresis" unicode="&#xc4;" horiz-adv-x="550" 
d="M592 298q0 -11 -14.5 -17.5t-51.5 -14.5l-67.5 -180t-52.5 -87q-7 0 -14.5 10t-7.5 21q0 31 25.5 98l52.5 136q-69 -12 -124 -22.5t-142 -31.5q-5 -8 -79 -143q-50 -90 -73 -90q-7 0 -12 8.5t-4 16.5q0 16 51 107q34 62 43 81q-16 2 -22 5t-6 16q0 2 2 13.5t33.5 24.5
t38.5 17l74 106q47 66 82 106q43 49 60 46q15 -3 20 -24q62 54 97.5 79t50.5 25q20 0 28 -15.5t8 -37.5q0 -19 -15.5 -106t-24.5 -115q19 -2 31.5 -8.5t12.5 -23.5zM518 488q1 9 1 14q0 12 -5 12q-23 0 -123 -86q-104 -90 -143 -148l232 42q14 35 23 70q3 11 15 96zM682 700
q0 -24 -26 -36q-8 -3 -17 -3q-19 0 -34.5 12.5t-13.5 29.5q4 25 31 33q8 2 14 2q19 0 32.5 -10.5t13.5 -27.5zM526 698q0 -24 -26 -36q-8 -3 -17 -3q-19 0 -34.5 12.5t-13.5 29.5q4 25 31 33q8 2 14 2q19 0 32.5 -10.5t13.5 -27.5z" />
    <glyph glyph-name="Ccedilla" unicode="&#xc7;" horiz-adv-x="558" 
d="M205 3q-91 0 -137 44.5t-46 118.5q0 107 101 234q117 147 260 147q37 0 66.5 -21.5t29.5 -42.5q0 -26 -12.5 -40t-27.5 -14q-20 0 -24 20q-9 46 -74 46q-73 0 -169.5 -117t-96.5 -208q0 -54 46.5 -87t108.5 -33q88 0 200 39q28 10 115 48q19 7 29 7q13 0 16 -8
q4 -6 0.5 -15.5t-14.5 -15l-22 -11.5q-32 -17 -125 -55q-9 -5 -66 -18t-103 -18q2 -11 2 -22v-9q-2 -9 -2 -13q-6 -52 -51.5 -105.5t-94.5 -53.5q-9 0 -18.5 14t-9.5 24q0 12 11 20t31 8q15 0 44 30q34 35 34 68z" />
    <glyph glyph-name="Egrave" unicode="&#xc8;" horiz-adv-x="485" 
d="M531 50q-1 -13 -19 -23q-13 -7 -27 -9t-38 -2h-29q-1 0 -140 -24.5t-161 -24.5q-60 0 -82.5 9.5t-22.5 35.5q0 11 3 28l44 150q23 75 31 97l54 148q25 69 48 112q30 58 50 58q14 0 20 -18l4 -21q109 30 150 37q70 12 176 12q37 0 30 -27q-3 -14 -18 -25q-20 -15 -48 -15
q-8 0 -33 4t-53 4q-71 0 -123 -15l-89 -35q-20 0 -26 7q-19 -44 -44 -110q-28 -73 -40 -112q9 1 151 23q104 16 124 16q34 0 51.5 -6t17.5 -18t-17.5 -23t-36.5 -11q-12 0 -28 1t-24 1q-17 0 -38.5 -3t-93.5 -18t-122 -21l-22 -64q-13 -36 -22 -68q-6 -17 -8 -25
q-5 -16 -5 -26q0 -15 10.5 -23t37.5 -8q23 0 105 13.5l163 27t97 13.5q18 0 31 -6t12 -16zM449 730q3 -17 -8 -24q-7 -4 -30 -8q-13 -2 -114.5 45t-101.5 61q0 9 11.5 11.5t32.5 2.5q69 -21 103 -33q104 -37 107 -55z" />
    <glyph glyph-name="Eacute" unicode="&#xc9;" horiz-adv-x="485" 
d="M531 50q-1 -13 -19 -23q-13 -7 -27 -9t-38 -2h-29q-1 0 -140 -24.5t-161 -24.5q-60 0 -82.5 9.5t-22.5 35.5q0 11 3 28l44 150q23 75 31 97l54 148q25 69 48 112q30 58 50 58q14 0 20 -18l4 -21q109 30 150 37q70 12 176 12q37 0 30 -27q-3 -14 -18 -25q-20 -15 -48 -15
q-8 0 -33 4t-53 4q-71 0 -123 -15l-89 -35q-20 0 -26 7q-19 -44 -44 -110q-28 -73 -40 -112q9 1 151 23q104 16 124 16q34 0 51.5 -6t17.5 -18t-17.5 -23t-36.5 -11q-12 0 -28 1t-24 1q-17 0 -38.5 -3t-93.5 -18t-122 -21l-22 -64q-13 -36 -22 -68q-6 -17 -8 -25
q-5 -16 -5 -26q0 -15 10.5 -23t37.5 -8q23 0 105 13.5l163 27t97 13.5q18 0 31 -6t12 -16zM632 764q0 -13 -102 -60.5t-114 -45.5q-22 4 -23 4q-18 6 -15 28q2 17 106 54q34 12 104 34q26 0 35 -1.5t9 -12.5z" />
    <glyph glyph-name="Ecircumflex" unicode="&#xca;" horiz-adv-x="485" 
d="M531 50q-1 -13 -19 -23q-13 -7 -27 -9t-38 -2h-29q-1 0 -140 -24.5t-161 -24.5q-60 0 -82.5 9.5t-22.5 35.5q0 11 3 28l44 150q23 75 31 97l54 148q25 69 48 112q30 58 50 58q14 0 20 -18l4 -21q109 30 150 37q70 12 176 12q37 0 30 -27q-3 -14 -18 -25q-20 -15 -48 -15
q-8 0 -33 4t-53 4q-71 0 -123 -15l-89 -35q-20 0 -26 7q-19 -44 -44 -110q-28 -73 -40 -112q9 1 151 23q104 16 124 16q34 0 51.5 -6t17.5 -18t-17.5 -23t-36.5 -11q-12 0 -28 1t-24 1q-17 0 -38.5 -3t-93.5 -18t-122 -21l-22 -64q-13 -36 -22 -68q-6 -17 -8 -25
q-5 -16 -5 -26q0 -15 10.5 -23t37.5 -8q23 0 105 13.5l163 27t97 13.5q18 0 31 -6t12 -16zM645 738q-2 -21 -10 -28.5t-40 -7.5q-27 0 -47 17q-15 13 -30.5 39.5l-30.5 51.5l-72 -46l-138 -86q-77 -46 -88 -46q-24 0 -24 18q0 22 49.5 51l98.5 57l107 74q60 40 79 40
q16 0 29 -18q6 -8 23 -42q11 -24 21 -40t19 -16q26 0 40 -3.5t14 -14.5z" />
    <glyph glyph-name="Edieresis" unicode="&#xcb;" horiz-adv-x="485" 
d="M531 50q-1 -13 -19 -23q-13 -7 -27 -9t-38 -2h-29q-1 0 -140 -24.5t-161 -24.5q-60 0 -82.5 9.5t-22.5 35.5q0 11 3 28l44 150q23 75 31 97l54 148q25 69 48 112q30 58 50 58q14 0 20 -18l4 -21q109 30 150 37q70 12 176 12q37 0 30 -27q-3 -14 -18 -25q-20 -15 -48 -15
q-8 0 -33 4t-53 4q-71 0 -123 -15l-89 -35q-20 0 -26 7q-19 -44 -44 -110q-28 -73 -40 -112q9 1 151 23q104 16 124 16q34 0 51.5 -6t17.5 -18t-17.5 -23t-36.5 -11q-12 0 -28 1t-24 1q-17 0 -38.5 -3t-93.5 -18t-122 -21l-22 -64q-13 -36 -22 -68q-6 -17 -8 -25
q-5 -16 -5 -26q0 -15 10.5 -23t37.5 -8q23 0 105 13.5l163 27t97 13.5q18 0 31 -6t12 -16zM557 735q0 -24 -26 -36q-8 -3 -17 -3q-19 0 -34.5 12.5t-13.5 29.5q4 25 31 33q8 2 14 2q19 0 32.5 -10.5t13.5 -27.5zM401 733q0 -24 -26 -36q-8 -3 -17 -3q-19 0 -34.5 12.5
t-13.5 29.5q4 25 31 33q8 2 14 2q19 0 32.5 -10.5t13.5 -27.5z" />
    <glyph glyph-name="Igrave" unicode="&#xcc;" horiz-adv-x="280" 
d="M288 582q0 -11 -56 -180q-31 -94 -48 -157l-32.5 -124t-20 -90t-6.5 -49q-6 -17 -35 -17q-10 0 -14.5 7.5t-4.5 20.5q1 17 1 27q0 35 37 155l73 237q22 78 43 127q28 67 47 67q16 0 16 -24zM449 715q3 -17 -8 -24q-7 -4 -30 -8q-13 -2 -114.5 45t-101.5 61q0 9 11.5 11.5
t32.5 2.5q69 -21 103 -33q104 -37 107 -55z" />
    <glyph glyph-name="Iacute" unicode="&#xcd;" horiz-adv-x="280" 
d="M288 582q0 -11 -56 -180q-31 -94 -48 -157l-32.5 -124t-20 -90t-6.5 -49q-6 -17 -35 -17q-10 0 -14.5 7.5t-4.5 20.5q1 17 1 27q0 35 37 155l73 237q22 78 43 127q28 67 47 67q16 0 16 -24zM451 779q0 -13 -102 -60.5t-114 -45.5q-22 4 -23 4q-18 6 -15 28q2 17 106 54
q34 12 104 34q26 0 35 -1.5t9 -12.5z" />
    <glyph glyph-name="Icircumflex" unicode="&#xce;" horiz-adv-x="280" 
d="M288 582q0 -11 -56 -180q-31 -94 -48 -157l-32.5 -124t-20 -90t-6.5 -49q-6 -17 -35 -17q-10 0 -14.5 7.5t-4.5 20.5q1 17 1 27q0 35 37 155l73 237q22 78 43 127q28 67 47 67q16 0 16 -24zM497 713q-2 -21 -10 -28.5t-40 -7.5q-27 0 -47 17q-15 13 -30.5 39.5
l-30.5 51.5l-72 -46l-138 -86q-77 -46 -88 -46q-24 0 -24 18q0 22 49.5 51l98.5 57l107 74q60 40 79 40q16 0 29 -18q6 -8 23 -42q11 -24 21 -40t19 -16q26 0 40 -3.5t14 -14.5z" />
    <glyph glyph-name="Idieresis" unicode="&#xcf;" horiz-adv-x="280" 
d="M288 582q0 -11 -56 -180q-31 -94 -48 -157l-32.5 -124t-20 -90t-6.5 -49q-6 -17 -35 -17q-10 0 -14.5 7.5t-4.5 20.5q1 17 1 27q0 35 37 155l73 237q22 78 43 127q28 67 47 67q16 0 16 -24zM391 700q0 -24 -26 -36q-8 -3 -17 -3q-19 0 -34.5 12.5t-13.5 29.5q4 25 31 33
q8 2 14 2q19 0 32.5 -10.5t13.5 -27.5zM235 698q0 -24 -26 -36q-8 -3 -17 -3q-19 0 -34.5 12.5t-13.5 29.5q4 25 31 33q8 2 14 2q19 0 32.5 -10.5t13.5 -27.5z" />
    <glyph glyph-name="Ntilde" unicode="&#xd1;" horiz-adv-x="594" 
d="M642 582q0 -9 -47.5 -119l-103.5 -235l-83 -184q-3 -6 -20 -13q-2 -1 -8 -3q-24 0 -34 16q-6 10 -10.5 39.5t-9.5 82.5t-7.5 69t-3 53t-0.5 63v116q-15 -27 -24 -46l-57 -115l-71 -145q-46 -90 -68 -125q-33 -51 -51 -51t-20 5v10q0 11 29 70l68 132l77 150
q106 212 146 274q36 54 65 54q6 0 9 -8t2 -12q-11 -30 -22 -84t-17.5 -116t-6.5 -125q0 -64 5.5 -118t16.5 -79l104.5 245l71.5 161l21.5 46t25.5 22q9 0 16 -9t7 -21zM688 824q0 -17 -51 -50.5t-91 -33.5q-33 0 -61 25q-7 6 -26.5 28t-31.5 31q-19 14 -42 16
q-23 0 -79 -44.5t-61 -44.5q-10 -1 -15 -1q-13 0 -13 18q0 17 64 70q69 57 109 57q18 0 40 -15q8 -6 37.5 -32.5l47.5 -41.5q24 -20 34 -20q18 0 54 23l35 23q9 6 15.5 7.5t15.5 1.5q19 0 19 -17z" />
    <glyph glyph-name="Ograve" unicode="&#xd2;" 
d="M615 417q0 -86 -106 -190q-89 -88 -218 -160q-120 -67 -174 -67q-48 0 -77 50q-23 40 -23 83q0 59 64 175q70 127 160 213q108 103 204 103q71 0 117 -48q53 -55 53 -159zM565 421q0 38 -13 73.5t-43.5 57t-65.5 21.5q-33 0 -75 -25l-45 -30q-56 -40 -75 -62
q-35 -39 -35 -89q0 -23 16.5 -47t16.5 -35q0 -20 -20 -20q-7 1 -11 1q-20 2 -33.5 20t-22.5 59q-39 -67 -64 -130t-25 -83q0 -26 14.5 -53t33.5 -27q67 0 178 71q104 66 184 153q85 92 85 145zM449 735q3 -17 -8 -24q-7 -4 -30 -8q-13 -2 -114.5 45t-101.5 61q0 9 11.5 11.5
t32.5 2.5q69 -21 103 -33q104 -37 107 -55z" />
    <glyph glyph-name="Oacute" unicode="&#xd3;" 
d="M615 417q0 -86 -106 -190q-89 -88 -218 -160q-120 -67 -174 -67q-48 0 -77 50q-23 40 -23 83q0 59 64 175q70 127 160 213q108 103 204 103q71 0 117 -48q53 -55 53 -159zM565 421q0 38 -13 73.5t-43.5 57t-65.5 21.5q-33 0 -75 -25l-45 -30q-56 -40 -75 -62
q-35 -39 -35 -89q0 -23 16.5 -47t16.5 -35q0 -20 -20 -20q-7 1 -11 1q-20 2 -33.5 20t-22.5 59q-39 -67 -64 -130t-25 -83q0 -26 14.5 -53t33.5 -27q67 0 178 71q104 66 184 153q85 92 85 145zM692 799q0 -13 -102 -60.5t-114 -45.5q-22 4 -23 4q-18 6 -15 28q2 17 106 54
q34 12 104 34q26 0 35 -1.5t9 -12.5z" />
    <glyph glyph-name="Ocircumflex" unicode="&#xd4;" 
d="M615 417q0 -86 -106 -190q-89 -88 -218 -160q-120 -67 -174 -67q-48 0 -77 50q-23 40 -23 83q0 59 64 175q70 127 160 213q108 103 204 103q71 0 117 -48q53 -55 53 -159zM565 421q0 38 -13 73.5t-43.5 57t-65.5 21.5q-33 0 -75 -25l-45 -30q-56 -40 -75 -62
q-35 -39 -35 -89q0 -23 16.5 -47t16.5 -35q0 -20 -20 -20q-7 1 -11 1q-20 2 -33.5 20t-22.5 59q-39 -67 -64 -130t-25 -83q0 -26 14.5 -53t33.5 -27q67 0 178 71q104 66 184 153q85 92 85 145zM645 733q-2 -21 -10 -28.5t-40 -7.5q-27 0 -47 17q-15 13 -30.5 39.5
l-30.5 51.5l-72 -46l-138 -86q-77 -46 -88 -46q-24 0 -24 18q0 22 49.5 51l98.5 57l107 74q60 40 79 40q16 0 29 -18q6 -8 23 -42q11 -24 21 -40t19 -16q26 0 40 -3.5t14 -14.5z" />
    <glyph glyph-name="Otilde" unicode="&#xd5;" 
d="M615 417q0 -86 -106 -190q-89 -88 -218 -160q-120 -67 -174 -67q-48 0 -77 50q-23 40 -23 83q0 59 64 175q70 127 160 213q108 103 204 103q71 0 117 -48q53 -55 53 -159zM565 421q0 38 -13 73.5t-43.5 57t-65.5 21.5q-33 0 -75 -25l-45 -30q-56 -40 -75 -62
q-35 -39 -35 -89q0 -23 16.5 -47t16.5 -35q0 -20 -20 -20q-7 1 -11 1q-20 2 -33.5 20t-22.5 59q-39 -67 -64 -130t-25 -83q0 -26 14.5 -53t33.5 -27q67 0 178 71q104 66 184 153q85 92 85 145zM729 739q0 -17 -51 -50.5t-91 -33.5q-33 0 -61 25q-7 6 -26.5 28t-31.5 31
q-19 14 -42 16q-23 0 -79 -44.5t-61 -44.5q-10 -1 -15 -1q-13 0 -13 18q0 17 64 70q69 57 109 57q18 0 40 -15q8 -6 37.5 -32.5l47.5 -41.5q24 -20 34 -20q18 0 54 23l35 23q9 6 15.5 7.5t15.5 1.5q19 0 19 -17z" />
    <glyph glyph-name="Odieresis" unicode="&#xd6;" 
d="M615 417q0 -86 -106 -190q-89 -88 -218 -160q-120 -67 -174 -67q-48 0 -77 50q-23 40 -23 83q0 59 64 175q70 127 160 213q108 103 204 103q71 0 117 -48q53 -55 53 -159zM565 421q0 38 -13 73.5t-43.5 57t-65.5 21.5q-33 0 -75 -25l-45 -30q-56 -40 -75 -62
q-35 -39 -35 -89q0 -23 16.5 -47t16.5 -35q0 -20 -20 -20q-7 1 -11 1q-20 2 -33.5 20t-22.5 59q-39 -67 -64 -130t-25 -83q0 -26 14.5 -53t33.5 -27q67 0 178 71q104 66 184 153q85 92 85 145zM592 750q0 -24 -26 -36q-8 -3 -17 -3q-19 0 -34.5 12.5t-13.5 29.5q4 25 31 33
q8 2 14 2q19 0 32.5 -10.5t13.5 -27.5zM436 748q0 -24 -26 -36q-8 -3 -17 -3q-19 0 -34.5 12.5t-13.5 29.5q4 25 31 33q8 2 14 2q19 0 32.5 -10.5t13.5 -27.5z" />
    <glyph glyph-name="multiply" unicode="&#xd7;" horiz-adv-x="664" 
d="M483 312q0 -12 -44 -42l-72 -48q8 -9 74 -66q42 -37 42 -51q0 -15 -11 -25t-25 -10q-17 0 -80 63q-43 43 -55 52q-55 -54 -94 -84q-32 -25 -44 -25q-26 0 -26 28q0 15 72 72l56 43q-26 28 -38 42q-22 26 -34 49q-7 12 -13 24t-6 25q0 16 13.5 25.5t31.5 9.5q12 0 21 -25
q5 -15 11 -23q14 -23 23 -36q18 -27 43 -50l60 49q59 48 71 48q13 0 18.5 -13.5t5.5 -31.5z" />
    <glyph glyph-name="Oslash" unicode="&#xd8;" horiz-adv-x="610" 
d="M780 606q0 -9 -8.5 -21t-21.5 -17q-7 -3 -20.5 2.5t-23.5 5.5q-18 0 -64 -39q-41 -35 -70 -71q14 -29 20 -43q12 -27 12 -51q0 -51 -38 -108q-43 -65 -144 -150q-66 -56 -138 -99q-85 -50 -128 -50q-58 0 -66 30l-4 25l-55 -43q-6 -5 -16 -5q-7 0 -18.5 6t-11.5 25
q0 20 14 31l99 74q21 54 38.5 93t49.5 93q16 27 78 104q30 37 36 48q22 44 35 60q42 52 101 52q21 0 50 -12.5t66 -37.5l78 82q53 52 90 52q11 0 35.5 -12t24.5 -24zM498 460q-10 11 -22.5 20t-29.5 16q4 -7 -1.5 -13.5t-14.5 -12.5q-16 -11 -37.5 -22t-32.5 -18
q4 -10 9 -20q10 -21 10 -33q0 -8 -20 -20.5t-25 -12.5q-6 0 -15 12t-14 12q-29 0 -133 -218q63 54 147 133l119 117zM548 370q-4 12 -6 19q-7 21 -14 35l-120 -113l-156 -148q-77 -74 -108 -107q1 -9 9.5 -19.5t12.5 -10.5q41 0 109 36t127 90q64 58 101 109q45 62 45 109z
" />
    <glyph glyph-name="Ugrave" unicode="&#xd9;" horiz-adv-x="530" 
d="M578 533q0 -25 -82 -134l-86 -112l-55 -97q-27 -51 -27 -66q0 -25 6 -42.5t20 -17.5q28 0 85 26l69 34q6 2 17 5t17 3q10 0 15 -4.5t5 -12.5q0 -16 -20 -25q-63 -30 -98 -45q-64 -27 -108 -27q-29 0 -42 19t-13 50q0 12 1.5 26t21.5 67l-119 -94q-100 -78 -131 -78
q-27 0 -43.5 12.5t-16.5 36.5q0 48 52 161q47 101 108 193l79.5 119.5t64.5 59.5q22 0 22 -20q0 -32 -84 -133q-53 -64 -78 -107q-35 -59 -69 -130q-44 -92 -47 -116q-4 -27 17 -27q17 0 72 40q24 17 73 57l126 100q49 86 115 183q87 128 109 126q19 0 23 -11q1 -3 1 -19z
M449 715q3 -17 -8 -24q-7 -4 -30 -8q-13 -2 -114.5 45t-101.5 61q0 9 11.5 11.5t32.5 2.5q69 -21 103 -33q104 -37 107 -55z" />
    <glyph glyph-name="Uacute" unicode="&#xda;" horiz-adv-x="530" 
d="M578 533q0 -25 -82 -134l-86 -112l-55 -97q-27 -51 -27 -66q0 -25 6 -42.5t20 -17.5q28 0 85 26l69 34q6 2 17 5t17 3q10 0 15 -4.5t5 -12.5q0 -16 -20 -25q-63 -30 -98 -45q-64 -27 -108 -27q-29 0 -42 19t-13 50q0 12 1.5 26t21.5 67l-119 -94q-100 -78 -131 -78
q-27 0 -43.5 12.5t-16.5 36.5q0 48 52 161q47 101 108 193l79.5 119.5t64.5 59.5q22 0 22 -20q0 -32 -84 -133q-53 -64 -78 -107q-35 -59 -69 -130q-44 -92 -47 -116q-4 -27 17 -27q17 0 72 40q24 17 73 57l126 100q49 86 115 183q87 128 109 126q19 0 23 -11q1 -3 1 -19z
M647 724q0 -13 -102 -60.5t-114 -45.5q-22 4 -23 4q-18 6 -15 28q2 17 106 54q34 12 104 34q26 0 35 -1.5t9 -12.5z" />
    <glyph glyph-name="Ucircumflex" unicode="&#xdb;" horiz-adv-x="530" 
d="M578 533q0 -25 -82 -134l-86 -112l-55 -97q-27 -51 -27 -66q0 -25 6 -42.5t20 -17.5q28 0 85 26l69 34q6 2 17 5t17 3q10 0 15 -4.5t5 -12.5q0 -16 -20 -25q-63 -30 -98 -45q-64 -27 -108 -27q-29 0 -42 19t-13 50q0 12 1.5 26t21.5 67l-119 -94q-100 -78 -131 -78
q-27 0 -43.5 12.5t-16.5 36.5q0 48 52 161q47 101 108 193l79.5 119.5t64.5 59.5q22 0 22 -20q0 -32 -84 -133q-53 -64 -78 -107q-35 -59 -69 -130q-44 -92 -47 -116q-4 -27 17 -27q17 0 72 40q24 17 73 57l126 100q49 86 115 183q87 128 109 126q19 0 23 -11q1 -3 1 -19z
M645 728q-2 -21 -10 -28.5t-40 -7.5q-27 0 -47 17q-15 13 -30.5 39.5l-30.5 51.5l-72 -46l-138 -86q-77 -46 -88 -46q-24 0 -24 18q0 22 49.5 51l98.5 57l107 74q60 40 79 40q16 0 29 -18q6 -8 23 -42q11 -24 21 -40t19 -16q26 0 40 -3.5t14 -14.5z" />
    <glyph glyph-name="Udieresis" unicode="&#xdc;" horiz-adv-x="530" 
d="M578 533q0 -25 -82 -134l-86 -112l-55 -97q-27 -51 -27 -66q0 -25 6 -42.5t20 -17.5q28 0 85 26l69 34q6 2 17 5t17 3q10 0 15 -4.5t5 -12.5q0 -16 -20 -25q-63 -30 -98 -45q-64 -27 -108 -27q-29 0 -42 19t-13 50q0 12 1.5 26t21.5 67l-119 -94q-100 -78 -131 -78
q-27 0 -43.5 12.5t-16.5 36.5q0 48 52 161q47 101 108 193l79.5 119.5t64.5 59.5q22 0 22 -20q0 -32 -84 -133q-53 -64 -78 -107q-35 -59 -69 -130q-44 -92 -47 -116q-4 -27 17 -27q17 0 72 40q24 17 73 57l126 100q49 86 115 183q87 128 109 126q19 0 23 -11q1 -3 1 -19z
M572 715q0 -24 -26 -36q-8 -3 -17 -3q-19 0 -34.5 12.5t-13.5 29.5q4 25 31 33q8 2 14 2q19 0 32.5 -10.5t13.5 -27.5zM416 713q0 -24 -26 -36q-8 -3 -17 -3q-19 0 -34.5 12.5t-13.5 29.5q4 25 31 33q8 2 14 2q19 0 32.5 -10.5t13.5 -27.5z" />
    <glyph glyph-name="Yacute" unicode="&#xdd;" horiz-adv-x="373" 
d="M58 -19q0 19 55 112q60 99 68 113l-15 122q-16 131 -16 142q-6 -16 -9 -21q-9 -15 -22 -18q-6 -1 -9.5 4t-1.5 10q15 69 26 100q21 61 43 61q14 0 19.5 -41t5.5 -107q0 -55 5 -112.5t10 -75.5q11 18 36 63l47 87q45 84 70 120q38 56 60 56q7 0 12 -3.5t7 -15.5l-294 -496
q8 5 12 7q15 9 20 13q13 11 21 5q4 -3 4 -7q-1 -7 -1 -10q0 -22 -57.5 -78t-75.5 -56q-12 0 -16 7.5t-4 18.5zM451 774q0 -13 -102 -60.5t-114 -45.5q-22 4 -23 4q-18 6 -15 28q2 17 106 54q34 12 104 34q26 0 35 -1.5t9 -12.5z" />
    <glyph glyph-name="germandbls" unicode="&#xdf;" horiz-adv-x="518" 
d="M560 518q0 -55 -78 -138q-68 -72 -155 -125q35 0 88 -45q62 -52 62 -108q0 -65 -67 -102q-58 -31 -136 -31q-38 0 -72 19t-34 42q0 18 7.5 29t26.5 11q11 0 30 -29t59 -29q56 0 95 21q44 24 44 67q0 48 -63 88q-54 34 -94 34q-8 0 -22 -1t-19 -1q-13 0 -19.5 4.5
t-6.5 17.5q0 17 36 33q60 27 82 41q71 45 117 94q56 60 56 108q0 30 -7.5 39t-23.5 9q-45 0 -98 -57q-58 -62 -150 -217q-57 -96 -130 -241l-87 -170q-34 -64 -51 -64q-5 0 -13.5 7.5t-8.5 12.5l27 58l65.5 135.5t72.5 143.5l51 93l75 132q-58 -37 -106 -55
q-62 -24 -120 -24q-6 0 -14 6.5t-8 13.5q0 25 31 32q10 2 32 2q41 0 123 44q71 38 111 72l91 76q77 62 117 62q48 0 68 -34q16 -27 16 -76z" />
    <glyph glyph-name="agrave" unicode="&#xe0;" horiz-adv-x="710" 
d="M360 0q-31 0 -56 17t-29 38q-62 -35 -115 -51q-43 -12 -78 -12q-26 0 -43 17.5t-17 36.5q0 12 30 47l26 31q-15 -9 -33.5 -16t-36.5 -13q-6 -2 -12 -2q-17 0 -21 14q-3 12 2 17t18 10q61 24 75 30t48 26l115 64q95 52 123 52q40 0 51 -16q5 -7 5 -30q0 -17 -3.5 -28.5
t-14.5 -35.5q5 2 36 25q21 15 36 15q20 0 20 -24q0 -25 -50 -63l-80 -61q-5 -5 -5 -12q0 -4 2 -7q6 -9 18 -9q34 0 77 7t76 17q66 20 102 30l104 26q12 3 20 3q16 0 22 -11q6 -10 -4 -18t-28 -14l-131 -42q-80 -25 -146 -41.5t-103 -16.5zM320 230q-29 0 -110.5 -59.5
t-117.5 -108.5q-1 -7 2.5 -11.5t13.5 -4.5q40 0 63 9q5 2 51 25l37 29q55 30 61 35q4 18 10.5 40.5t6.5 29.5q0 16 -17 16zM450 410q3 -17 -8 -24q-7 -4 -30 -8q-13 -2 -114.5 45t-101.5 61q0 9 11.5 11.5t32.5 2.5q69 -21 103 -33q104 -37 107 -55z" />
    <glyph glyph-name="aacute" unicode="&#xe1;" horiz-adv-x="710" 
d="M360 0q-31 0 -56 17t-29 38q-62 -35 -115 -51q-43 -12 -78 -12q-26 0 -43 17.5t-17 36.5q0 12 30 47l26 31q-15 -9 -33.5 -16t-36.5 -13q-6 -2 -12 -2q-17 0 -21 14q-3 12 2 17t18 10q61 24 75 30t48 26l115 64q95 52 123 52q40 0 51 -16q5 -7 5 -30q0 -17 -3.5 -28.5
t-14.5 -35.5q5 2 36 25q21 15 36 15q20 0 20 -24q0 -25 -50 -63l-80 -61q-5 -5 -5 -12q0 -4 2 -7q6 -9 18 -9q34 0 77 7t76 17q66 20 102 30l104 26q12 3 20 3q16 0 22 -11q6 -10 -4 -18t-28 -14l-131 -42q-80 -25 -146 -41.5t-103 -16.5zM320 230q-29 0 -110.5 -59.5
t-117.5 -108.5q-1 -7 2.5 -11.5t13.5 -4.5q40 0 63 9q5 2 51 25l37 29q55 30 61 35q4 18 10.5 40.5t6.5 29.5q0 16 -17 16zM642 479q0 -13 -102 -60.5t-114 -45.5q-22 4 -23 4q-18 6 -15 28q2 17 106 54q34 12 104 34q26 0 35 -1.5t9 -12.5z" />
    <glyph glyph-name="acircumflex" unicode="&#xe2;" horiz-adv-x="710" 
d="M360 0q-31 0 -56 17t-29 38q-62 -35 -115 -51q-43 -12 -78 -12q-26 0 -43 17.5t-17 36.5q0 12 30 47l26 31q-15 -9 -33.5 -16t-36.5 -13q-6 -2 -12 -2q-17 0 -21 14q-3 12 2 17t18 10q61 24 75 30t48 26l115 64q95 52 123 52q40 0 51 -16q5 -7 5 -30q0 -17 -3.5 -28.5
t-14.5 -35.5q5 2 36 25q21 15 36 15q20 0 20 -24q0 -25 -50 -63l-80 -61q-5 -5 -5 -12q0 -4 2 -7q6 -9 18 -9q34 0 77 7t76 17q66 20 102 30l104 26q12 3 20 3q16 0 22 -11q6 -10 -4 -18t-28 -14l-131 -42q-80 -25 -146 -41.5t-103 -16.5zM320 230q-29 0 -110.5 -59.5
t-117.5 -108.5q-1 -7 2.5 -11.5t13.5 -4.5q40 0 63 9q5 2 51 25l37 29q55 30 61 35q4 18 10.5 40.5t6.5 29.5q0 16 -17 16zM607 418q-2 -21 -10 -28.5t-40 -7.5q-27 0 -47 17q-15 13 -30.5 39.5l-30.5 51.5l-72 -46l-138 -86q-77 -46 -88 -46q-24 0 -24 18q0 22 49.5 51
l98.5 57l107 74q60 40 79 40q16 0 29 -18q6 -8 23 -42q11 -24 21 -40t19 -16q26 0 40 -3.5t14 -14.5z" />
    <glyph glyph-name="atilde" unicode="&#xe3;" horiz-adv-x="710" 
d="M360 0q-31 0 -56 17t-29 38q-62 -35 -115 -51q-43 -12 -78 -12q-26 0 -43 17.5t-17 36.5q0 12 30 47l26 31q-15 -9 -33.5 -16t-36.5 -13q-6 -2 -12 -2q-17 0 -21 14q-3 12 2 17t18 10q61 24 75 30t48 26l115 64q95 52 123 52q40 0 51 -16q5 -7 5 -30q0 -17 -3.5 -28.5
t-14.5 -35.5q5 2 36 25q21 15 36 15q20 0 20 -24q0 -25 -50 -63l-80 -61q-5 -5 -5 -12q0 -4 2 -7q6 -9 18 -9q34 0 77 7t76 17q66 20 102 30l104 26q12 3 20 3q16 0 22 -11q6 -10 -4 -18t-28 -14l-131 -42q-80 -25 -146 -41.5t-103 -16.5zM320 230q-29 0 -110.5 -59.5
t-117.5 -108.5q-1 -7 2.5 -11.5t13.5 -4.5q40 0 63 9q5 2 51 25l37 29q55 30 61 35q4 18 10.5 40.5t6.5 29.5q0 16 -17 16zM650 429q0 -17 -51 -50.5t-91 -33.5q-33 0 -61 25q-7 6 -26.5 28t-31.5 31q-19 14 -42 16q-23 0 -79 -44.5t-61 -44.5q-10 -1 -15 -1q-13 0 -13 18
q0 17 64 70q69 57 109 57q18 0 40 -15q8 -6 37.5 -32.5l47.5 -41.5q24 -20 34 -20q18 0 54 23l35 23q9 6 15.5 7.5t15.5 1.5q19 0 19 -17z" />
    <glyph glyph-name="adieresis" unicode="&#xe4;" horiz-adv-x="710" 
d="M360 0q-31 0 -56 17t-29 38q-62 -35 -115 -51q-43 -12 -78 -12q-26 0 -43 17.5t-17 36.5q0 12 30 47l26 31q-15 -9 -33.5 -16t-36.5 -13q-6 -2 -12 -2q-17 0 -21 14q-3 12 2 17t18 10q61 24 75 30t48 26l115 64q95 52 123 52q40 0 51 -16q5 -7 5 -30q0 -17 -3.5 -28.5
t-14.5 -35.5q5 2 36 25q21 15 36 15q20 0 20 -24q0 -25 -50 -63l-80 -61q-5 -5 -5 -12q0 -4 2 -7q6 -9 18 -9q34 0 77 7t76 17q66 20 102 30l104 26q12 3 20 3q16 0 22 -11q6 -10 -4 -18t-28 -14l-131 -42q-80 -25 -146 -41.5t-103 -16.5zM320 230q-29 0 -110.5 -59.5
t-117.5 -108.5q-1 -7 2.5 -11.5t13.5 -4.5q40 0 63 9q5 2 51 25l37 29q55 30 61 35q4 18 10.5 40.5t6.5 29.5q0 16 -17 16zM492 410q0 -24 -26 -36q-8 -3 -17 -3q-19 0 -34.5 12.5t-13.5 29.5q4 25 31 33q8 2 14 2q19 0 32.5 -10.5t13.5 -27.5zM336 408q0 -24 -26 -36
q-8 -3 -17 -3q-19 0 -34.5 12.5t-13.5 29.5q4 25 31 33q8 2 14 2q19 0 32.5 -10.5t13.5 -27.5z" />
    <glyph glyph-name="ccedilla" unicode="&#xe7;" horiz-adv-x="598" 
d="M147 -37q-46 5 -69 30q-16 17 -28 57q-3 12 3 30q3 9 13 30q-17 -4 -30.5 -9.5t-24 -8.5t-20.5 -3t-14.5 6t-4.5 12q0 16 17.5 22t94.5 41t122 52q8 3 83 35q35 15 43 15q26 0 36 -6t10 -30q0 -20 -24 -62q-28 -48 -51 -48t-23 26q0 15 8 29q-7 5 -8 7.5t-10 2.5
q-22 0 -87 -46q-72 -51 -72 -81q0 -31 14 -43.5t79 -12.5q26 0 78 15q13 4 178 61l114 42q12 5 19 7q14 5 22 5q4 0 7 -1q3 -3 4 -3q6 -5 6 -15q0 -17 -16 -23l-110 -45q-83 -33 -164 -58q-98 -31 -145 -31q2 -7 2 -16.5v-20.5q0 -59 -41.5 -100.5t-89.5 -41.5
q-19 0 -26.5 3t-7.5 16q0 24 28.5 28t58 35t29.5 61v13q0 8 -3 24z" />
    <glyph glyph-name="egrave" unicode="&#xe8;" horiz-adv-x="478" 
d="M492 94q-108 -47 -178 -64.5t-167 -17.5q-52 0 -98 32.5t-46 63.5q0 67 62 146q69 88 151 88q36 0 46 -17q5 -9 5 -40q0 -42 -61 -88l-135 -78q0 -14 26 -33.5t59 -19.5q72 0 125 11t177 53q17 5 26 5q14 0 19.5 -8.5t5.5 -13.5q0 -11 -17 -19zM210 279q0 7 -15 7h-8
t-4 -1q-50 -34 -63 -47q-25 -25 -52 -66q56 25 96 54q46 33 46 53zM256 445q3 -17 -8 -24q-7 -4 -30 -8q-13 -2 -114.5 45t-101.5 61q0 9 11.5 11.5t32.5 2.5q69 -21 103 -33q104 -37 107 -55z" />
    <glyph glyph-name="eacute" unicode="&#xe9;" horiz-adv-x="478" 
d="M492 94q-108 -47 -178 -64.5t-167 -17.5q-52 0 -98 32.5t-46 63.5q0 67 62 146q69 88 151 88q36 0 46 -17q5 -9 5 -40q0 -42 -61 -88l-135 -78q0 -14 26 -33.5t59 -19.5q72 0 125 11t177 53q17 5 26 5q14 0 19.5 -8.5t5.5 -13.5q0 -11 -17 -19zM210 279q0 7 -15 7h-8
t-4 -1q-50 -34 -63 -47q-25 -25 -52 -66q56 25 96 54q46 33 46 53zM438 539q0 -13 -102 -60.5t-114 -45.5q-22 4 -23 4q-18 6 -15 28q2 17 106 54q34 12 104 34q26 0 35 -1.5t9 -12.5z" />
    <glyph glyph-name="ecircumflex" unicode="&#xea;" horiz-adv-x="478" 
d="M492 94q-108 -47 -178 -64.5t-167 -17.5q-52 0 -98 32.5t-46 63.5q0 67 62 146q69 88 151 88q36 0 46 -17q5 -9 5 -40q0 -42 -61 -88l-135 -78q0 -14 26 -33.5t59 -19.5q72 0 125 11t177 53q17 5 26 5q14 0 19.5 -8.5t5.5 -13.5q0 -11 -17 -19zM210 279q0 7 -15 7h-8
t-4 -1q-50 -34 -63 -47q-25 -25 -52 -66q56 25 96 54q46 33 46 53zM442 438q-2 -21 -10 -28.5t-40 -7.5q-27 0 -47 17q-15 13 -30.5 39.5l-30.5 51.5l-72 -46l-138 -86q-77 -46 -88 -46q-24 0 -24 18q0 22 49.5 51l98.5 57l107 74q60 40 79 40q16 0 29 -18q6 -8 23 -42
q11 -24 21 -40t19 -16q26 0 40 -3.5t14 -14.5z" />
    <glyph glyph-name="edieresis" unicode="&#xeb;" horiz-adv-x="478" 
d="M492 94q-108 -47 -178 -64.5t-167 -17.5q-52 0 -98 32.5t-46 63.5q0 67 62 146q69 88 151 88q36 0 46 -17q5 -9 5 -40q0 -42 -61 -88l-135 -78q0 -14 26 -33.5t59 -19.5q72 0 125 11t177 53q17 5 26 5q14 0 19.5 -8.5t5.5 -13.5q0 -11 -17 -19zM210 279q0 7 -15 7h-8
t-4 -1q-50 -34 -63 -47q-25 -25 -52 -66q56 25 96 54q46 33 46 53zM333 460q0 -24 -26 -36q-8 -3 -17 -3q-19 0 -34.5 12.5t-13.5 29.5q4 25 31 33q8 2 14 2q19 0 32.5 -10.5t13.5 -27.5zM177 458q0 -24 -26 -36q-8 -3 -17 -3q-19 0 -34.5 12.5t-13.5 29.5q4 25 31 33
q8 2 14 2q19 0 32.5 -10.5t13.5 -27.5z" />
    <glyph glyph-name="igrave" unicode="&#xec;" horiz-adv-x="448" 
d="M472 100l-199 -75q-133 -48 -177 -48q-27 0 -51.5 14t-24.5 35q5 12 8 20q20 44 42 72q-27 -10 -41.5 -17t-28.5 -13q-17 -6 -29 14q-4 7 1 16t13 12l87 38q37 16 75 52l57 58q4 4 11 4q8 0 14.5 -5.5t6.5 -14.5q0 -10 -78 -105q-46 -56 -72 -105q-3 -6 -3 -12
q0 -18 17 -18q34 0 160 47l168 63q27 8 41 8q16 0 19 -10q2 -5 0.5 -14.5t-16.5 -15.5zM321 410q3 -17 -8 -24q-7 -4 -30 -8q-13 -2 -114.5 45t-101.5 61q0 9 11.5 11.5t32.5 2.5q69 -21 103 -33q104 -37 107 -55z" />
    <glyph glyph-name="iacute" unicode="&#xed;" horiz-adv-x="448" 
d="M472 100l-199 -75q-133 -48 -177 -48q-27 0 -51.5 14t-24.5 35q5 12 8 20q20 44 42 72q-27 -10 -41.5 -17t-28.5 -13q-17 -6 -29 14q-4 7 1 16t13 12l87 38q37 16 75 52l57 58q4 4 11 4q8 0 14.5 -5.5t6.5 -14.5q0 -10 -78 -105q-46 -56 -72 -105q-3 -6 -3 -12
q0 -18 17 -18q34 0 160 47l168 63q27 8 41 8q16 0 19 -10q2 -5 0.5 -14.5t-16.5 -15.5zM452 489q0 -13 -102 -60.5t-114 -45.5q-22 4 -23 4q-18 6 -15 28q2 17 106 54q34 12 104 34q26 0 35 -1.5t9 -12.5z" />
    <glyph glyph-name="icircumflex" unicode="&#xee;" horiz-adv-x="448" 
d="M472 100l-199 -75q-133 -48 -177 -48q-27 0 -51.5 14t-24.5 35q5 12 8 20q20 44 42 72q-27 -10 -41.5 -17t-28.5 -13q-17 -6 -29 14q-4 7 1 16t13 12l87 38q37 16 75 52l57 58q4 4 11 4q8 0 14.5 -5.5t6.5 -14.5q0 -10 -78 -105q-46 -56 -72 -105q-3 -6 -3 -12
q0 -18 17 -18q34 0 160 47l168 63q27 8 41 8q16 0 19 -10q2 -5 0.5 -14.5t-16.5 -15.5zM482 388q-2 -21 -10 -28.5t-40 -7.5q-27 0 -47 17q-15 13 -30.5 39.5l-30.5 51.5l-72 -46l-138 -86q-77 -46 -88 -46q-24 0 -24 18q0 22 49.5 51l98.5 57l107 74q60 40 79 40
q16 0 29 -18q6 -8 23 -42q11 -24 21 -40t19 -16q26 0 40 -3.5t14 -14.5z" />
    <glyph glyph-name="idieresis" unicode="&#xef;" horiz-adv-x="448" 
d="M472 100l-199 -75q-133 -48 -177 -48q-27 0 -51.5 14t-24.5 35q5 12 8 20q20 44 42 72q-27 -10 -41.5 -17t-28.5 -13q-17 -6 -29 14q-4 7 1 16t13 12l87 38q37 16 75 52l57 58q4 4 11 4q8 0 14.5 -5.5t6.5 -14.5q0 -10 -78 -105q-46 -56 -72 -105q-3 -6 -3 -12
q0 -18 17 -18q34 0 160 47l168 63q27 8 41 8q16 0 19 -10q2 -5 0.5 -14.5t-16.5 -15.5zM363 405q0 -24 -26 -36q-8 -3 -17 -3q-19 0 -34.5 12.5t-13.5 29.5q4 25 31 33q8 2 14 2q19 0 32.5 -10.5t13.5 -27.5zM207 403q0 -24 -26 -36q-8 -3 -17 -3q-19 0 -34.5 12.5
t-13.5 29.5q4 25 31 33q8 2 14 2q19 0 32.5 -10.5t13.5 -27.5z" />
    <glyph glyph-name="ntilde" unicode="&#xf1;" horiz-adv-x="666" 
d="M678 90q-61 -28 -137 -56q-92 -34 -123 -34q-52 0 -66 6.5t-14 21.5q0 14 10 37l28 57q-27 -27 -129 -85q-119 -67 -167 -67q-15 0 -19.5 7t-4.5 18q0 13 51 95l40 63q-27 -10 -56 -24q-69 -34 -80 -37t-17 -3q-16 0 -20.5 8t-4.5 13q0 17 23 26l114 50q84 36 102 36
q17 0 23 -5t6 -18q0 -19 -34 -62l-69 -86q-1 -7 11 -7q38 0 154 79t135 79q17 0 17 -21t-15.5 -45.5t-22.5 -34.5t-12.5 -23.5t-5.5 -23.5q0 -11 14 -11q32 0 124 36l128 52q15 5 27 5q9 0 13 -4q6 -6 -1.5 -21t-21.5 -21zM620 399q0 -17 -51 -50.5t-91 -33.5q-33 0 -61 25
q-7 6 -26.5 28t-31.5 31q-19 14 -42 16q-23 0 -79 -44.5t-61 -44.5q-10 -1 -15 -1q-13 0 -13 18q0 17 64 70q69 57 109 57q18 0 40 -15q8 -6 37.5 -32.5l47.5 -41.5q24 -20 34 -20q18 0 54 23l35 23q9 6 15.5 7.5t15.5 1.5q19 0 19 -17z" />
    <glyph glyph-name="ograve" unicode="&#xf2;" horiz-adv-x="545" 
d="M559 90l-108.5 -48t-100.5 -24h-16q-28 0 -37 1l-39 7q-75 -51 -79 -54q-63 -37 -119 -37q-29 0 -40.5 8.5t-11.5 32.5q0 20 19 66t36 67l-54 -20q-13 -4 -21 0.5t-11 13.5q-7 21 18 31l133 48q31 17 92.5 37t84.5 20q24 0 44.5 -18t20.5 -47q0 -21 -19 -54
q-5 -8 -35 -52q19 -6 48 -6q25 0 118 42q55 25 62.5 27.5t11.5 2.5h6q12 0 16 -7t-1.5 -19t-17.5 -18zM317 153q0 17 -5 23t-28 6q-40 0 -64 -23q-19 -18 -19 -38q0 -13 21 -24q7 -4 40 -17q21 21 35 39q20 24 20 34zM203 45q-26 7 -45 25.5t-22 41.5q-29 -33 -44 -57
q-20 -31 -20 -47q0 -11 12 -11q16 0 52.5 13.5t66.5 34.5zM396 335q3 -17 -8 -24q-7 -4 -30 -8q-13 -2 -114.5 45t-101.5 61q0 9 11.5 11.5t32.5 2.5q69 -21 103 -33q104 -37 107 -55z" />
    <glyph glyph-name="oacute" unicode="&#xf3;" horiz-adv-x="545" 
d="M559 90l-108.5 -48t-100.5 -24h-16q-28 0 -37 1l-39 7q-75 -51 -79 -54q-63 -37 -119 -37q-29 0 -40.5 8.5t-11.5 32.5q0 20 19 66t36 67l-54 -20q-13 -4 -21 0.5t-11 13.5q-7 21 18 31l133 48q31 17 92.5 37t84.5 20q24 0 44.5 -18t20.5 -47q0 -21 -19 -54
q-5 -8 -35 -52q19 -6 48 -6q25 0 118 42q55 25 62.5 27.5t11.5 2.5h6q12 0 16 -7t-1.5 -19t-17.5 -18zM317 153q0 17 -5 23t-28 6q-40 0 -64 -23q-19 -18 -19 -38q0 -13 21 -24q7 -4 40 -17q21 21 35 39q20 24 20 34zM203 45q-26 7 -45 25.5t-22 41.5q-29 -33 -44 -57
q-20 -31 -20 -47q0 -11 12 -11q16 0 52.5 13.5t66.5 34.5zM542 434q0 -13 -102 -60.5t-114 -45.5q-22 4 -23 4q-18 6 -15 28q2 17 106 54q34 12 104 34q26 0 35 -1.5t9 -12.5z" />
    <glyph glyph-name="ocircumflex" unicode="&#xf4;" horiz-adv-x="545" 
d="M559 90l-108.5 -48t-100.5 -24h-16q-28 0 -37 1l-39 7q-75 -51 -79 -54q-63 -37 -119 -37q-29 0 -40.5 8.5t-11.5 32.5q0 20 19 66t36 67l-54 -20q-13 -4 -21 0.5t-11 13.5q-7 21 18 31l133 48q31 17 92.5 37t84.5 20q24 0 44.5 -18t20.5 -47q0 -21 -19 -54
q-5 -8 -35 -52q19 -6 48 -6q25 0 118 42q55 25 62.5 27.5t11.5 2.5h6q12 0 16 -7t-1.5 -19t-17.5 -18zM317 153q0 17 -5 23t-28 6q-40 0 -64 -23q-19 -18 -19 -38q0 -13 21 -24q7 -4 40 -17q21 21 35 39q20 24 20 34zM203 45q-26 7 -45 25.5t-22 41.5q-29 -33 -44 -57
q-20 -31 -20 -47q0 -11 12 -11q16 0 52.5 13.5t66.5 34.5zM587 363q-2 -21 -10 -28.5t-40 -7.5q-27 0 -47 17q-15 13 -30.5 39.5l-30.5 51.5l-72 -46l-138 -86q-77 -46 -88 -46q-24 0 -24 18q0 22 49.5 51l98.5 57l107 74q60 40 79 40q16 0 29 -18q6 -8 23 -42
q11 -24 21 -40t19 -16q26 0 40 -3.5t14 -14.5z" />
    <glyph glyph-name="otilde" unicode="&#xf5;" horiz-adv-x="545" 
d="M559 90l-108.5 -48t-100.5 -24h-16q-28 0 -37 1l-39 7q-75 -51 -79 -54q-63 -37 -119 -37q-29 0 -40.5 8.5t-11.5 32.5q0 20 19 66t36 67l-54 -20q-13 -4 -21 0.5t-11 13.5q-7 21 18 31l133 48q31 17 92.5 37t84.5 20q24 0 44.5 -18t20.5 -47q0 -21 -19 -54
q-5 -8 -35 -52q19 -6 48 -6q25 0 118 42q55 25 62.5 27.5t11.5 2.5h6q12 0 16 -7t-1.5 -19t-17.5 -18zM317 153q0 17 -5 23t-28 6q-40 0 -64 -23q-19 -18 -19 -38q0 -13 21 -24q7 -4 40 -17q21 21 35 39q20 24 20 34zM203 45q-26 7 -45 25.5t-22 41.5q-29 -33 -44 -57
q-20 -31 -20 -47q0 -11 12 -11q16 0 52.5 13.5t66.5 34.5zM570 349q0 -17 -51 -50.5t-91 -33.5q-33 0 -61 25q-7 6 -26.5 28t-31.5 31q-19 14 -42 16q-23 0 -79 -44.5t-61 -44.5q-10 -1 -15 -1q-13 0 -13 18q0 17 64 70q69 57 109 57q18 0 40 -15q8 -6 37.5 -32.5
l47.5 -41.5q24 -20 34 -20q18 0 54 23l35 23q9 6 15.5 7.5t15.5 1.5q19 0 19 -17z" />
    <glyph glyph-name="odieresis" unicode="&#xf6;" horiz-adv-x="545" 
d="M559 90l-108.5 -48t-100.5 -24h-16q-28 0 -37 1l-39 7q-75 -51 -79 -54q-63 -37 -119 -37q-29 0 -40.5 8.5t-11.5 32.5q0 20 19 66t36 67l-54 -20q-13 -4 -21 0.5t-11 13.5q-7 21 18 31l133 48q31 17 92.5 37t84.5 20q24 0 44.5 -18t20.5 -47q0 -21 -19 -54
q-5 -8 -35 -52q19 -6 48 -6q25 0 118 42q55 25 62.5 27.5t11.5 2.5h6q12 0 16 -7t-1.5 -19t-17.5 -18zM317 153q0 17 -5 23t-28 6q-40 0 -64 -23q-19 -18 -19 -38q0 -13 21 -24q7 -4 40 -17q21 21 35 39q20 24 20 34zM203 45q-26 7 -45 25.5t-22 41.5q-29 -33 -44 -57
q-20 -31 -20 -47q0 -11 12 -11q16 0 52.5 13.5t66.5 34.5zM432 370q0 -24 -26 -36q-8 -3 -17 -3q-19 0 -34.5 12.5t-13.5 29.5q4 25 31 33q8 2 14 2q19 0 32.5 -10.5t13.5 -27.5zM276 368q0 -24 -26 -36q-8 -3 -17 -3q-19 0 -34.5 12.5t-13.5 29.5q4 25 31 33q8 2 14 2
q19 0 32.5 -10.5t13.5 -27.5z" />
    <glyph glyph-name="divide" unicode="&#xf7;" horiz-adv-x="618" 
d="M404 370q0 -20 -14.5 -33.5t-33.5 -9.5q-15 3 -24 15t-9 28t13 27t30 11q16 0 27 -11t11 -27zM315 66q0 -19 -14 -31t-34 -12q-15 0 -24 13t-9 30q0 16 13 27t30 11q16 0 27 -11t11 -27zM550 212q0 -31 -69 -36q-29 -2 -75 -2q-23 0 -113 -1t-116 -1q-28 0 -40 4
q-20 7 -20 24q0 12 8.5 17.5t21.5 5.5q10 0 14 -1q104 5 157 7q162 7 184 7h16q15 0 23.5 -5t8.5 -19z" />
    <glyph glyph-name="oslash" unicode="&#xf8;" horiz-adv-x="366" 
d="M502 336q0 -11 -62 -53l-100 -67q2 -12 5 -23q0 -6 -5.5 -19t-19.5 -36q-36 -60 -101 -106q-77 -53 -151 -53q-37 0 -54 15q-12 9 -14 26l-77 -56q-47 -33 -59 -33q-13 0 -17 16q-3 14 65 66q52 41 96 71q18 23 25 30q27 25 37 36q75 77 117 102q27 16 61 16
q21 0 39.5 -4.5t32.5 -13.5l66 44t56 34q16 11 24 16q16 10 28 10q8 1 8 -18zM262 222q-10 5 -21 5q-14 0 -30.5 -8.5t-42 -29t-43.5 -39.5l64 32q37 19 73 40zM283 156q7 11 7 20q0 4 -2 12l-97 -54q-79 -44 -133 -78v-15q0 -17 17 -17q54 0 108 34q65 41 100 98z" />
    <glyph glyph-name="ugrave" unicode="&#xf9;" horiz-adv-x="760" 
d="M532 12q-58 0 -82 17q-16 11 -32 49q-4 8 -5 15t-1 14q0 5 1 13t1 10q-10 -5 -112 -59q-134 -71 -186 -71q-13 0 -28 13q-20 17 -20 44q0 12 21 46q12 20 19 29l-31 -13q-47 -20 -62.5 -26t-25.5 -6q-12 0 -18 12q-4 9 0 18.5t16 13.5l104 39.5t75 33.5t57 46
q59 59 67 58q9 0 19.5 -8.5t10.5 -13.5q0 -19 -93 -109t-93 -109q0 -14 14 -14q7 0 80 30q83 34 134 60.5t175 113.5q49 34 55 34q18 0 18 -19q0 -18 -101 -110q-46 -42 -39 -63q6 -18 19 -27q19 -13 53 -13t100 27l101 42q16 4 26 4q17 0 21 -8q5 -9 -1 -17.5t-19 -14.5
q-94 -40 -122 -51q-78 -30 -116 -30zM495 365q3 -17 -8 -24q-7 -4 -30 -8q-13 -2 -114.5 45t-101.5 61q0 9 11.5 11.5t32.5 2.5q69 -21 103 -33q104 -37 107 -55z" />
    <glyph glyph-name="uacute" unicode="&#xfa;" horiz-adv-x="760" 
d="M532 12q-58 0 -82 17q-16 11 -32 49q-4 8 -5 15t-1 14q0 5 1 13t1 10q-10 -5 -112 -59q-134 -71 -186 -71q-13 0 -28 13q-20 17 -20 44q0 12 21 46q12 20 19 29l-31 -13q-47 -20 -62.5 -26t-25.5 -6q-12 0 -18 12q-4 9 0 18.5t16 13.5l104 39.5t75 33.5t57 46
q59 59 67 58q9 0 19.5 -8.5t10.5 -13.5q0 -19 -93 -109t-93 -109q0 -14 14 -14q7 0 80 30q83 34 134 60.5t175 113.5q49 34 55 34q18 0 18 -19q0 -18 -101 -110q-46 -42 -39 -63q6 -18 19 -27q19 -13 53 -13t100 27l101 42q16 4 26 4q17 0 21 -8q5 -9 -1 -17.5t-19 -14.5
q-94 -40 -122 -51q-78 -30 -116 -30zM687 434q0 -13 -102 -60.5t-114 -45.5q-22 4 -23 4q-18 6 -15 28q2 17 106 54q34 12 104 34q26 0 35 -1.5t9 -12.5z" />
    <glyph glyph-name="ucircumflex" unicode="&#xfb;" horiz-adv-x="760" 
d="M532 12q-58 0 -82 17q-16 11 -32 49q-4 8 -5 15t-1 14q0 5 1 13t1 10q-10 -5 -112 -59q-134 -71 -186 -71q-13 0 -28 13q-20 17 -20 44q0 12 21 46q12 20 19 29l-31 -13q-47 -20 -62.5 -26t-25.5 -6q-12 0 -18 12q-4 9 0 18.5t16 13.5l104 39.5t75 33.5t57 46
q59 59 67 58q9 0 19.5 -8.5t10.5 -13.5q0 -19 -93 -109t-93 -109q0 -14 14 -14q7 0 80 30q83 34 134 60.5t175 113.5q49 34 55 34q18 0 18 -19q0 -18 -101 -110q-46 -42 -39 -63q6 -18 19 -27q19 -13 53 -13t100 27l101 42q16 4 26 4q17 0 21 -8q5 -9 -1 -17.5t-19 -14.5
q-94 -40 -122 -51q-78 -30 -116 -30zM696 453q-2 -21 -10 -28.5t-40 -7.5q-27 0 -47 17q-15 13 -30.5 39.5l-30.5 51.5l-72 -46l-138 -86q-77 -46 -88 -46q-24 0 -24 18q0 22 49.5 51l98.5 57l107 74q60 40 79 40q16 0 29 -18q6 -8 23 -42q11 -24 21 -40t19 -16
q26 0 40 -3.5t14 -14.5z" />
    <glyph glyph-name="udieresis" unicode="&#xfc;" horiz-adv-x="760" 
d="M532 12q-58 0 -82 17q-16 11 -32 49q-4 8 -5 15t-1 14q0 5 1 13t1 10q-10 -5 -112 -59q-134 -71 -186 -71q-13 0 -28 13q-20 17 -20 44q0 12 21 46q12 20 19 29l-31 -13q-47 -20 -62.5 -26t-25.5 -6q-12 0 -18 12q-4 9 0 18.5t16 13.5l104 39.5t75 33.5t57 46
q59 59 67 58q9 0 19.5 -8.5t10.5 -13.5q0 -19 -93 -109t-93 -109q0 -14 14 -14q7 0 80 30q83 34 134 60.5t175 113.5q49 34 55 34q18 0 18 -19q0 -18 -101 -110q-46 -42 -39 -63q6 -18 19 -27q19 -13 53 -13t100 27l101 42q16 4 26 4q17 0 21 -8q5 -9 -1 -17.5t-19 -14.5
q-94 -40 -122 -51q-78 -30 -116 -30zM597 430q0 -24 -26 -36q-8 -3 -17 -3q-19 0 -34.5 12.5t-13.5 29.5q4 25 31 33q8 2 14 2q19 0 32.5 -10.5t13.5 -27.5zM441 428q0 -24 -26 -36q-8 -3 -17 -3q-19 0 -34.5 12.5t-13.5 29.5q4 25 31 33q8 2 14 2q19 0 32.5 -10.5
t13.5 -27.5z" />
    <glyph glyph-name="yacute" unicode="&#xfd;" horiz-adv-x="605" 
d="M628 100l-169 -67l-159 -60q-56 -66 -97 -119l-111 -150q-35 -50 -58 -70q-32 -29 -69 -29q-13 0 -28 9q-20 12 -20 31q0 7 -1 26t-1 23q0 38 8 65q12 39 42 70q54 57 150 112q79 46 157 73q35 33 52 56q24 32 24 56q0 10 -10 10q-64 -26 -119.5 -46t-98.5 -20
q-26 0 -44 20q-6 6 -14 21q-12 -5 -26 -8.5t-25 -8.5q-3 -2 -10 -2q-17 0 -21 14q-2 8 2 16t10 11q33 12 53 24q5 3 34 23q3 2 26 25q13 13 29 13q8 0 14.5 -7t5.5 -15q0 -11 -15 -29t-15 -27q0 -4 2.5 -10.5t11.5 -6.5q21 0 118.5 34.5t113.5 34.5q19 0 29 -11.5t10 -41.5
q0 -28 -30 -67q-13 -16 -31 -36q54 24 130.5 52t113.5 38q11 2 21.5 5.5t13.5 3.5q8 0 10.5 -5t2.5 -12q0 -13 -12 -18zM216 -55l-84 -49q-92 -56 -126 -89q-23 -24 -31.5 -52.5t-8.5 -60.5v-25q0 -9 21 -9q13 0 64 65q29 36 95 128q56 77 70 92zM497 349q0 -13 -102 -60.5
t-114 -45.5q-22 4 -23 4q-18 6 -15 28q2 17 106 54q34 12 104 34q26 0 35 -1.5t9 -12.5z" />
    <glyph glyph-name="ydieresis" unicode="&#xff;" horiz-adv-x="605" 
d="M628 100l-169 -67l-159 -60q-56 -66 -97 -119l-111 -150q-35 -50 -58 -70q-32 -29 -69 -29q-13 0 -28 9q-20 12 -20 31q0 7 -1 26t-1 23q0 38 8 65q12 39 42 70q54 57 150 112q79 46 157 73q35 33 52 56q24 32 24 56q0 10 -10 10q-64 -26 -119.5 -46t-98.5 -20
q-26 0 -44 20q-6 6 -14 21q-12 -5 -26 -8.5t-25 -8.5q-3 -2 -10 -2q-17 0 -21 14q-2 8 2 16t10 11q33 12 53 24q5 3 34 23q3 2 26 25q13 13 29 13q8 0 14.5 -7t5.5 -15q0 -11 -15 -29t-15 -27q0 -4 2.5 -10.5t11.5 -6.5q21 0 118.5 34.5t113.5 34.5q19 0 29 -11.5t10 -41.5
q0 -28 -30 -67q-13 -16 -31 -36q54 24 130.5 52t113.5 38q11 2 21.5 5.5t13.5 3.5q8 0 10.5 -5t2.5 -12q0 -13 -12 -18zM216 -55l-84 -49q-92 -56 -126 -89q-23 -24 -31.5 -52.5t-8.5 -60.5v-25q0 -9 21 -9q13 0 64 65q29 36 95 128q56 77 70 92zM442 345q0 -24 -26 -36
q-8 -3 -17 -3q-19 0 -34.5 12.5t-13.5 29.5q4 25 31 33q8 2 14 2q19 0 32.5 -10.5t13.5 -27.5zM286 343q0 -24 -26 -36q-8 -3 -17 -3q-19 0 -34.5 12.5t-13.5 29.5q4 25 31 33q8 2 14 2q19 0 32.5 -10.5t13.5 -27.5z" />
    <glyph glyph-name=".260" unicode="&#xe000;" horiz-adv-x="0" 
 />
    <glyph glyph-name="dotlessi" unicode="&#xe001;" horiz-adv-x="448" 
d="M472 100l-199 -75q-133 -48 -177 -48q-27 0 -51.5 14t-24.5 35q5 12 8 20q20 44 42 72q-27 -10 -41.5 -17t-28.5 -13q-17 -6 -29 14q-4 7 1 16t13 12l87 38q37 16 75 52l57 58q4 4 11 4q8 0 14.5 -5.5t6.5 -14.5q0 -10 -78 -105q-46 -56 -72 -105q-3 -6 -3 -12
q0 -18 17 -18q34 0 160 47l168 63q27 8 41 8q16 0 19 -10q2 -5 0.5 -14.5t-16.5 -15.5z" />
    <glyph glyph-name=".259" unicode="&#xe002;" horiz-adv-x="800" 
d="M50 0v800h700v-800h-700zM700 50v700h-600v-700h600z" />
    <glyph glyph-name="afii61352" unicode="&#xe003;" horiz-adv-x="883" 
d="M926 468q0 -40 -79 -96q-84 -60 -156 -60q-41 0 -41 28q0 4 2 16q12 60 65 113q58 59 124 59q35 0 60 -15.5t25 -44.5zM914 234q0 -22 -76.5 -38.5t-79.5 -17.5q-31 -9 -61.5 -16.5t-68.5 -7.5q-15 0 -26 4t-8 17q4 19 15.5 26t27.5 7q19 -2 21 -2q24 0 125 24t113 24
q6 -3 9 -5q9 -7 9 -15zM490 166l-36 -100q-25 -54 -53 -54q-16 0 -30 120q-9 73 -14 98l-29 131q-16 63 -29 63q-10 0 -43 -99q-21 -63 -31 -85q13 10 39 35q17 17 25 17q10 0 17.5 -8.5t4.5 -17.5q-4 -14 -39 -54q-23 -26 -42 -54l-55 -80q-29 -40 -39 -40q-8 -1 -14.5 9.5
t-4.5 22.5q4 22 16 52q22 53 23 56l51 148q31 93 37 108l22 60q14 27 47 27q43 0 74 -143q5 -21 37 -232l50 142q38 106 61 160q32 76 45 76t20 -11q4 -6 4 -11q0 -15 -59 -181zM872 448q5 11 -9 20.5t-31 9.5q-40 0 -75 -27t-41 -57q-4 -18 14 -18q35 0 83.5 26.5
t58.5 45.5z" />
  </font>
</defs>
</svg>
